G04 #@! TF.GenerationSoftware,KiCad,Pcbnew,9.0.7*
G04 #@! TF.CreationDate,2026-02-28T12:09:14-03:00*
G04 #@! TF.ProjectId,power_supply,706f7765-725f-4737-9570-706c792e6b69,rev?*
G04 #@! TF.SameCoordinates,Original*
G04 #@! TF.FileFunction,Paste,Top*
G04 #@! TF.FilePolarity,Positive*
%FSLAX46Y46*%
G04 Gerber Fmt 4.6, Leading zero omitted, Abs format (unit mm)*
G04 Created by KiCad (PCBNEW 9.0.7) date 2026-02-28 12:09:14*
%MOMM*%
%LPD*%
G01*
G04 APERTURE LIST*
G04 Aperture macros list*
%AMRoundRect*
0 Rectangle with rounded corners*
0 $1 Rounding radius*
0 $2 $3 $4 $5 $6 $7 $8 $9 X,Y pos of 4 corners*
0 Add a 4 corners polygon primitive as box body*
4,1,4,$2,$3,$4,$5,$6,$7,$8,$9,$2,$3,0*
0 Add four circle primitives for the rounded corners*
1,1,$1+$1,$2,$3*
1,1,$1+$1,$4,$5*
1,1,$1+$1,$6,$7*
1,1,$1+$1,$8,$9*
0 Add four rect primitives between the rounded corners*
20,1,$1+$1,$2,$3,$4,$5,0*
20,1,$1+$1,$4,$5,$6,$7,0*
20,1,$1+$1,$6,$7,$8,$9,0*
20,1,$1+$1,$8,$9,$2,$3,0*%
G04 Aperture macros list end*
%ADD10RoundRect,0.250000X-0.450000X0.262500X-0.450000X-0.262500X0.450000X-0.262500X0.450000X0.262500X0*%
%ADD11RoundRect,0.250000X0.650000X-0.325000X0.650000X0.325000X-0.650000X0.325000X-0.650000X-0.325000X0*%
%ADD12RoundRect,0.250000X-0.255000X-0.440000X0.255000X-0.440000X0.255000X0.440000X-0.255000X0.440000X0*%
%ADD13RoundRect,0.150000X-0.825000X-0.150000X0.825000X-0.150000X0.825000X0.150000X-0.825000X0.150000X0*%
%ADD14RoundRect,0.250000X0.450000X-0.262500X0.450000X0.262500X-0.450000X0.262500X-0.450000X-0.262500X0*%
%ADD15RoundRect,0.140000X0.170000X-0.140000X0.170000X0.140000X-0.170000X0.140000X-0.170000X-0.140000X0*%
%ADD16RoundRect,0.140000X0.140000X0.170000X-0.140000X0.170000X-0.140000X-0.170000X0.140000X-0.170000X0*%
%ADD17RoundRect,0.250000X-0.262500X-0.450000X0.262500X-0.450000X0.262500X0.450000X-0.262500X0.450000X0*%
%ADD18RoundRect,0.250000X0.262500X0.450000X-0.262500X0.450000X-0.262500X-0.450000X0.262500X-0.450000X0*%
%ADD19RoundRect,0.150000X-0.587500X-0.150000X0.587500X-0.150000X0.587500X0.150000X-0.587500X0.150000X0*%
%ADD20R,1.200000X0.700000*%
%ADD21R,1.200000X0.800000*%
%ADD22R,1.600000X4.200000*%
%ADD23RoundRect,0.243750X0.243750X0.456250X-0.243750X0.456250X-0.243750X-0.456250X0.243750X-0.456250X0*%
%ADD24RoundRect,0.250000X0.325000X0.650000X-0.325000X0.650000X-0.325000X-0.650000X0.325000X-0.650000X0*%
%ADD25RoundRect,0.250000X1.000000X0.650000X-1.000000X0.650000X-1.000000X-0.650000X1.000000X-0.650000X0*%
%ADD26RoundRect,0.250000X0.650000X-1.000000X0.650000X1.000000X-0.650000X1.000000X-0.650000X-1.000000X0*%
%ADD27RoundRect,0.162500X0.837500X0.162500X-0.837500X0.162500X-0.837500X-0.162500X0.837500X-0.162500X0*%
G04 APERTURE END LIST*
D10*
G04 #@! TO.C,R1*
X124604000Y-103834000D03*
X124604000Y-102009000D03*
G04 #@! TD*
G04 #@! TO.C,R2*
X126636000Y-103834000D03*
X126636000Y-102009000D03*
G04 #@! TD*
D11*
G04 #@! TO.C,C2*
X150554000Y-99459000D03*
X150554000Y-96509000D03*
G04 #@! TD*
D12*
G04 #@! TO.C,U1*
X149404000Y-88409000D03*
X149404000Y-90059000D03*
X150604000Y-88409000D03*
X150604000Y-90059000D03*
D13*
X147529000Y-87329000D03*
X147529000Y-88599000D03*
X147529000Y-89869000D03*
X147529000Y-91139000D03*
X152479000Y-91139000D03*
X152479000Y-89869000D03*
X152479000Y-88599000D03*
X152479000Y-87329000D03*
G04 #@! TD*
D14*
G04 #@! TO.C,R4*
X131304000Y-86146500D03*
X131304000Y-84321500D03*
G04 #@! TD*
D15*
G04 #@! TO.C,C1*
X156704000Y-89714000D03*
X156704000Y-88754000D03*
G04 #@! TD*
D16*
G04 #@! TO.C,C3*
X145384000Y-91134000D03*
X144424000Y-91134000D03*
G04 #@! TD*
D17*
G04 #@! TO.C,R5*
X140979000Y-84984000D03*
X142804000Y-84984000D03*
G04 #@! TD*
D18*
G04 #@! TO.C,R8*
X160216500Y-94234000D03*
X158391500Y-94234000D03*
G04 #@! TD*
D19*
G04 #@! TO.C,Q1*
X131616500Y-89284000D03*
X131616500Y-91184000D03*
X133491500Y-90234000D03*
G04 #@! TD*
D20*
G04 #@! TO.C,J1*
X122214000Y-93734000D03*
X122214000Y-95734000D03*
D21*
X122214000Y-96934000D03*
D20*
X122214000Y-94734000D03*
X122214000Y-92734000D03*
D21*
X122214000Y-91534000D03*
G04 #@! TD*
D22*
G04 #@! TO.C,L1*
X153904000Y-102484000D03*
X157704000Y-102484000D03*
G04 #@! TD*
D18*
G04 #@! TO.C,R3*
X142716500Y-89234000D03*
X140891500Y-89234000D03*
G04 #@! TD*
D23*
G04 #@! TO.C,D2*
X138991500Y-84984000D03*
X137116500Y-84984000D03*
G04 #@! TD*
D18*
G04 #@! TO.C,R7*
X164054000Y-94234000D03*
X162229000Y-94234000D03*
G04 #@! TD*
D24*
G04 #@! TO.C,C4*
X163779000Y-97234000D03*
X160829000Y-97234000D03*
G04 #@! TD*
D23*
G04 #@! TO.C,D3*
X138991500Y-87270000D03*
X137116500Y-87270000D03*
G04 #@! TD*
D25*
G04 #@! TO.C,D4*
X164304000Y-100484000D03*
X160304000Y-100484000D03*
G04 #@! TD*
D26*
G04 #@! TO.C,D1*
X127054000Y-93234000D03*
X127054000Y-89234000D03*
G04 #@! TD*
D17*
G04 #@! TO.C,R6*
X140891500Y-87234000D03*
X142716500Y-87234000D03*
G04 #@! TD*
D27*
G04 #@! TO.C,U2*
X157514000Y-98934000D03*
X157514000Y-97984000D03*
X157514000Y-97034000D03*
X154094000Y-97034000D03*
X154094000Y-97984000D03*
X154094000Y-98934000D03*
G04 #@! TD*
M02*
