G04 #@! TF.GenerationSoftware,KiCad,Pcbnew,9.0.7*
G04 #@! TF.CreationDate,2026-02-28T12:09:14-03:00*
G04 #@! TF.ProjectId,power_supply,706f7765-725f-4737-9570-706c792e6b69,rev?*
G04 #@! TF.SameCoordinates,Original*
G04 #@! TF.FileFunction,Soldermask,Top*
G04 #@! TF.FilePolarity,Negative*
%FSLAX46Y46*%
G04 Gerber Fmt 4.6, Leading zero omitted, Abs format (unit mm)*
G04 Created by KiCad (PCBNEW 9.0.7) date 2026-02-28 12:09:14*
%MOMM*%
%LPD*%
G01*
G04 APERTURE LIST*
G04 Aperture macros list*
%AMRoundRect*
0 Rectangle with rounded corners*
0 $1 Rounding radius*
0 $2 $3 $4 $5 $6 $7 $8 $9 X,Y pos of 4 corners*
0 Add a 4 corners polygon primitive as box body*
4,1,4,$2,$3,$4,$5,$6,$7,$8,$9,$2,$3,0*
0 Add four circle primitives for the rounded corners*
1,1,$1+$1,$2,$3*
1,1,$1+$1,$4,$5*
1,1,$1+$1,$6,$7*
1,1,$1+$1,$8,$9*
0 Add four rect primitives between the rounded corners*
20,1,$1+$1,$2,$3,$4,$5,0*
20,1,$1+$1,$4,$5,$6,$7,0*
20,1,$1+$1,$6,$7,$8,$9,0*
20,1,$1+$1,$8,$9,$2,$3,0*%
G04 Aperture macros list end*
%ADD10RoundRect,0.250000X-0.450000X0.262500X-0.450000X-0.262500X0.450000X-0.262500X0.450000X0.262500X0*%
%ADD11C,1.448000*%
%ADD12C,2.700000*%
%ADD13RoundRect,0.250000X0.650000X-0.325000X0.650000X0.325000X-0.650000X0.325000X-0.650000X-0.325000X0*%
%ADD14RoundRect,0.150000X-0.825000X-0.150000X0.825000X-0.150000X0.825000X0.150000X-0.825000X0.150000X0*%
%ADD15R,2.410000X3.300000*%
%ADD16RoundRect,0.250000X0.450000X-0.262500X0.450000X0.262500X-0.450000X0.262500X-0.450000X-0.262500X0*%
%ADD17C,2.600000*%
%ADD18RoundRect,0.140000X0.170000X-0.140000X0.170000X0.140000X-0.170000X0.140000X-0.170000X-0.140000X0*%
%ADD19RoundRect,0.140000X0.140000X0.170000X-0.140000X0.170000X-0.140000X-0.170000X0.140000X-0.170000X0*%
%ADD20RoundRect,0.250000X-0.262500X-0.450000X0.262500X-0.450000X0.262500X0.450000X-0.262500X0.450000X0*%
%ADD21O,2.190000X1.740000*%
%ADD22RoundRect,0.250000X-0.845000X0.620000X-0.845000X-0.620000X0.845000X-0.620000X0.845000X0.620000X0*%
%ADD23R,1.700000X1.700000*%
%ADD24C,1.700000*%
%ADD25RoundRect,0.250000X0.262500X0.450000X-0.262500X0.450000X-0.262500X-0.450000X0.262500X-0.450000X0*%
%ADD26RoundRect,0.150000X-0.587500X-0.150000X0.587500X-0.150000X0.587500X0.150000X-0.587500X0.150000X0*%
%ADD27O,1.900000X1.100000*%
%ADD28R,1.200000X0.700000*%
%ADD29R,1.200000X0.800000*%
%ADD30R,1.600000X4.200000*%
%ADD31RoundRect,0.243750X0.243750X0.456250X-0.243750X0.456250X-0.243750X-0.456250X0.243750X-0.456250X0*%
%ADD32RoundRect,0.250000X0.325000X0.650000X-0.325000X0.650000X-0.325000X-0.650000X0.325000X-0.650000X0*%
%ADD33RoundRect,0.250000X-0.600000X-0.750000X0.600000X-0.750000X0.600000X0.750000X-0.600000X0.750000X0*%
%ADD34O,1.700000X2.000000*%
%ADD35RoundRect,0.250000X1.000000X0.650000X-1.000000X0.650000X-1.000000X-0.650000X1.000000X-0.650000X0*%
%ADD36C,1.270000*%
%ADD37RoundRect,0.250000X0.650000X-1.000000X0.650000X1.000000X-0.650000X1.000000X-0.650000X-1.000000X0*%
%ADD38RoundRect,0.162500X0.837500X0.162500X-0.837500X0.162500X-0.837500X-0.162500X0.837500X-0.162500X0*%
G04 APERTURE END LIST*
D10*
G04 #@! TO.C,R1*
X124604000Y-103834000D03*
X124604000Y-102009000D03*
G04 #@! TD*
G04 #@! TO.C,R2*
X126636000Y-103834000D03*
X126636000Y-102009000D03*
G04 #@! TD*
D11*
G04 #@! TO.C,M4*
X142304000Y-103734000D03*
G04 #@! TD*
D12*
G04 #@! TO.C,M6*
X148054000Y-103234000D03*
G04 #@! TD*
D13*
G04 #@! TO.C,C2*
X150554000Y-99459000D03*
X150554000Y-96509000D03*
G04 #@! TD*
D14*
G04 #@! TO.C,U1*
X147529000Y-87329000D03*
X147529000Y-88599000D03*
X147529000Y-89869000D03*
X147529000Y-91139000D03*
X152479000Y-91139000D03*
X152479000Y-89869000D03*
X152479000Y-88599000D03*
X152479000Y-87329000D03*
D15*
X150004000Y-89234000D03*
G04 #@! TD*
D16*
G04 #@! TO.C,R4*
X131304000Y-86146500D03*
X131304000Y-84321500D03*
G04 #@! TD*
D17*
G04 #@! TO.C,TP1*
X132104000Y-102734000D03*
G04 #@! TD*
D18*
G04 #@! TO.C,C1*
X156704000Y-89714000D03*
X156704000Y-88754000D03*
G04 #@! TD*
D12*
G04 #@! TO.C,M2*
X170304000Y-103234000D03*
G04 #@! TD*
D11*
G04 #@! TO.C,M5*
X157204000Y-84984000D03*
G04 #@! TD*
D19*
G04 #@! TO.C,C3*
X145384000Y-91134000D03*
X144424000Y-91134000D03*
G04 #@! TD*
D20*
G04 #@! TO.C,R5*
X140979000Y-84984000D03*
X142804000Y-84984000D03*
G04 #@! TD*
D21*
G04 #@! TO.C,J2*
X169504000Y-96184000D03*
X169504000Y-93644000D03*
X169504000Y-91104000D03*
D22*
X169504000Y-88564000D03*
G04 #@! TD*
D23*
G04 #@! TO.C,JP1*
X135304000Y-97259000D03*
D24*
X135304000Y-94719000D03*
G04 #@! TD*
D17*
G04 #@! TO.C,TP2*
X136754000Y-102734000D03*
G04 #@! TD*
D25*
G04 #@! TO.C,R8*
X160216500Y-94234000D03*
X158391500Y-94234000D03*
G04 #@! TD*
D11*
G04 #@! TO.C,M3*
X118804000Y-103734000D03*
G04 #@! TD*
D23*
G04 #@! TO.C,JP2*
X125389000Y-85234000D03*
D24*
X127929000Y-85234000D03*
G04 #@! TD*
D26*
G04 #@! TO.C,Q1*
X131616500Y-89284000D03*
X131616500Y-91184000D03*
X133491500Y-90234000D03*
G04 #@! TD*
D27*
G04 #@! TO.C,J1*
X121964000Y-89914000D03*
X118154000Y-89914000D03*
X121964000Y-98554000D03*
X118154000Y-98554000D03*
D28*
X122214000Y-93734000D03*
X122214000Y-95734000D03*
D29*
X122214000Y-96934000D03*
D28*
X122214000Y-94734000D03*
X122214000Y-92734000D03*
D29*
X122214000Y-91534000D03*
G04 #@! TD*
D30*
G04 #@! TO.C,L1*
X153904000Y-102484000D03*
X157704000Y-102484000D03*
G04 #@! TD*
D25*
G04 #@! TO.C,R3*
X142716500Y-89234000D03*
X140891500Y-89234000D03*
G04 #@! TD*
D17*
G04 #@! TO.C,TP3*
X169704000Y-84884000D03*
G04 #@! TD*
D12*
G04 #@! TO.C,M1*
X119254000Y-85184000D03*
G04 #@! TD*
D31*
G04 #@! TO.C,D2*
X138991500Y-84984000D03*
X137116500Y-84984000D03*
G04 #@! TD*
D25*
G04 #@! TO.C,R7*
X164054000Y-94234000D03*
X162229000Y-94234000D03*
G04 #@! TD*
D23*
G04 #@! TO.C,JP3*
X127029000Y-96734000D03*
D24*
X129569000Y-96734000D03*
G04 #@! TD*
D32*
G04 #@! TO.C,C4*
X163779000Y-97234000D03*
X160829000Y-97234000D03*
G04 #@! TD*
D31*
G04 #@! TO.C,D3*
X138991500Y-87270000D03*
X137116500Y-87270000D03*
G04 #@! TD*
D33*
G04 #@! TO.C,BT1*
X140804000Y-95684000D03*
D34*
X143304000Y-95684000D03*
G04 #@! TD*
D35*
G04 #@! TO.C,D4*
X164304000Y-100484000D03*
X160304000Y-100484000D03*
G04 #@! TD*
D36*
G04 #@! TO.C,F1*
X161704000Y-89784000D03*
X163304000Y-84684000D03*
G04 #@! TD*
D37*
G04 #@! TO.C,D1*
X127054000Y-93234000D03*
X127054000Y-89234000D03*
G04 #@! TD*
D20*
G04 #@! TO.C,R6*
X140891500Y-87234000D03*
X142716500Y-87234000D03*
G04 #@! TD*
D38*
G04 #@! TO.C,U2*
X157514000Y-98934000D03*
X157514000Y-97984000D03*
X157514000Y-97034000D03*
X154094000Y-97034000D03*
X154094000Y-97984000D03*
X154094000Y-98934000D03*
G04 #@! TD*
M02*
