%TF.GenerationSoftware,KiCad,Pcbnew,9.0.7*%
%TF.CreationDate,2026-02-28T12:09:14-03:00*%
%TF.ProjectId,power_supply,706f7765-725f-4737-9570-706c792e6b69,rev?*%
%TF.SameCoordinates,Original*%
%TF.FileFunction,Drillmap*%
%TF.FilePolarity,Positive*%
%FSLAX45Y45*%
G04 Gerber Fmt 4.5, Leading zero omitted, Abs format (unit mm)*
G04 Created by KiCad (PCBNEW 9.0.7) date 2026-02-28 12:09:14*
%MOMM*%
%LPD*%
G01*
G04 APERTURE LIST*
%ADD10C,0.050000*%
%ADD11C,0.200000*%
%ADD12C,0.100000*%
%ADD13C,0.119000*%
%ADD14C,0.130000*%
G04 APERTURE END LIST*
D10*
X11630400Y-8223400D02*
X17330400Y-8223400D01*
X17330400Y-10623400D01*
X11630400Y-10623400D01*
X11630400Y-8223400D01*
D11*
D12*
X14565400Y-8483400D02*
X14595400Y-8513400D01*
X14595400Y-8483400D02*
X14565400Y-8513400D01*
X14565400Y-8708400D02*
X14595400Y-8738400D01*
X14595400Y-8708400D02*
X14565400Y-8738400D01*
X15435400Y-8848400D02*
X15465400Y-8878400D01*
X15465400Y-8848400D02*
X15435400Y-8878400D01*
X15435400Y-8978400D02*
X15465400Y-9008400D01*
X15465400Y-8978400D02*
X15435400Y-9008400D01*
X14960400Y-8803400D02*
G75*
G02*
X14930400Y-8803400I-15000J0D01*
G01*
X14930400Y-8803400D02*
G75*
G02*
X14960400Y-8803400I15000J0D01*
G01*
X14960400Y-8923400D02*
G75*
G02*
X14930400Y-8923400I-15000J0D01*
G01*
X14930400Y-8923400D02*
G75*
G02*
X14960400Y-8923400I15000J0D01*
G01*
X14960400Y-9043400D02*
G75*
G02*
X14930400Y-9043400I-15000J0D01*
G01*
X14930400Y-9043400D02*
G75*
G02*
X14960400Y-9043400I15000J0D01*
G01*
X15070400Y-8803400D02*
G75*
G02*
X15040400Y-8803400I-15000J0D01*
G01*
X15040400Y-8803400D02*
G75*
G02*
X15070400Y-8803400I15000J0D01*
G01*
X15070400Y-8923400D02*
G75*
G02*
X15040400Y-8923400I-15000J0D01*
G01*
X15040400Y-8923400D02*
G75*
G02*
X15070400Y-8923400I15000J0D01*
G01*
X15070400Y-9043400D02*
G75*
G02*
X15040400Y-9043400I-15000J0D01*
G01*
X15040400Y-9043400D02*
G75*
G02*
X15070400Y-9043400I15000J0D01*
G01*
X13620400Y-8983400D02*
X13620400Y-9023400D01*
X13600400Y-9003400D02*
X13640400Y-9003400D01*
X14855400Y-9628400D02*
X14855400Y-9668400D01*
X14835400Y-9648400D02*
X14875400Y-9648400D01*
X15055400Y-9503400D02*
X15055400Y-9543400D01*
X15035400Y-9523400D02*
X15075400Y-9523400D01*
X15355400Y-9403400D02*
X15355400Y-9443400D01*
X15335400Y-9423400D02*
X15375400Y-9423400D01*
X15360400Y-8463400D02*
X15360400Y-8503400D01*
X15340400Y-8483400D02*
X15380400Y-8483400D01*
X15530400Y-9403400D02*
X15530400Y-9443400D01*
X15510400Y-9423400D02*
X15550400Y-9423400D01*
X15705400Y-9403400D02*
X15705400Y-9443400D01*
X15685400Y-9423400D02*
X15725400Y-9423400D01*
X15790400Y-8953400D02*
X15790400Y-8993400D01*
X15770400Y-8973400D02*
X15810400Y-8973400D01*
X15930400Y-9778400D02*
X15930400Y-9818400D01*
X15910400Y-9798400D02*
X15950400Y-9798400D01*
X16080400Y-9203400D02*
X16080400Y-9243400D01*
X16060400Y-9223400D02*
X16100400Y-9223400D01*
X16136105Y-8803400D02*
X16136105Y-8843400D01*
X16116105Y-8823400D02*
X16156105Y-8823400D01*
X16230400Y-9703400D02*
X16230400Y-9743400D01*
X16210400Y-9723400D02*
X16250400Y-9723400D01*
X11840150Y-9016150D02*
X11840150Y-8966650D01*
X11790650Y-8966650D01*
X11790650Y-9016150D01*
X11840150Y-9016150D01*
X11855400Y-8956399D02*
X11775400Y-8956399D01*
X11775400Y-9026401D02*
G75*
G02*
X11775400Y-8956399I0J35001D01*
G01*
X11775400Y-9026401D02*
X11855400Y-9026401D01*
X11855400Y-9026401D02*
G75*
G03*
X11855400Y-8956399I0J35001D01*
G01*
X11840150Y-9880150D02*
X11840150Y-9830650D01*
X11790650Y-9830650D01*
X11790650Y-9880150D01*
X11840150Y-9880150D01*
X11855400Y-9820399D02*
X11775400Y-9820399D01*
X11775400Y-9890401D02*
G75*
G02*
X11775400Y-9820399I0J35001D01*
G01*
X11775400Y-9890401D02*
X11855400Y-9890401D01*
X11855400Y-9890401D02*
G75*
G03*
X11855400Y-9820399I0J35001D01*
G01*
X12221150Y-9016150D02*
X12221150Y-8966650D01*
X12171650Y-8966650D01*
X12171650Y-9016150D01*
X12221150Y-9016150D01*
X12236400Y-8956399D02*
X12156400Y-8956399D01*
X12156400Y-9026401D02*
G75*
G02*
X12156400Y-8956399I0J35001D01*
G01*
X12156400Y-9026401D02*
X12236400Y-9026401D01*
X12236400Y-9026401D02*
G75*
G03*
X12236400Y-8956399I0J35001D01*
G01*
X12221150Y-9880150D02*
X12221150Y-9830650D01*
X12171650Y-9830650D01*
X12171650Y-9880150D01*
X12221150Y-9880150D01*
X12236400Y-9820399D02*
X12156400Y-9820399D01*
X12156400Y-9890401D02*
G75*
G02*
X12156400Y-9820399I0J35001D01*
G01*
X12156400Y-9890401D02*
X12236400Y-9890401D01*
X12236400Y-9890401D02*
G75*
G03*
X12236400Y-9820399I0J35001D01*
G01*
X16170400Y-9013900D02*
X16205900Y-8978400D01*
X16170400Y-8942900D01*
X16134900Y-8978400D01*
X16170400Y-9013900D01*
X16330400Y-8503900D02*
X16365900Y-8468400D01*
X16330400Y-8432900D01*
X16294900Y-8468400D01*
X16330400Y-8503900D01*
X12488900Y-8473400D02*
X12588900Y-8573400D01*
X12588900Y-8473400D02*
X12488900Y-8573400D01*
X12588900Y-8523400D02*
G75*
G02*
X12488900Y-8523400I-50000J0D01*
G01*
X12488900Y-8523400D02*
G75*
G02*
X12588900Y-8523400I50000J0D01*
G01*
X12652900Y-9623400D02*
X12752900Y-9723400D01*
X12752900Y-9623400D02*
X12652900Y-9723400D01*
X12752900Y-9673400D02*
G75*
G02*
X12652900Y-9673400I-50000J0D01*
G01*
X12652900Y-9673400D02*
G75*
G02*
X12752900Y-9673400I50000J0D01*
G01*
X12742900Y-8473400D02*
X12842900Y-8573400D01*
X12842900Y-8473400D02*
X12742900Y-8573400D01*
X12842900Y-8523400D02*
G75*
G02*
X12742900Y-8523400I-50000J0D01*
G01*
X12742900Y-8523400D02*
G75*
G02*
X12842900Y-8523400I50000J0D01*
G01*
X12906900Y-9623400D02*
X13006900Y-9723400D01*
X13006900Y-9623400D02*
X12906900Y-9723400D01*
X13006900Y-9673400D02*
G75*
G02*
X12906900Y-9673400I-50000J0D01*
G01*
X12906900Y-9673400D02*
G75*
G02*
X13006900Y-9673400I50000J0D01*
G01*
X13480400Y-9421900D02*
X13580400Y-9521900D01*
X13580400Y-9421900D02*
X13480400Y-9521900D01*
X13580400Y-9471900D02*
G75*
G02*
X13480400Y-9471900I-50000J0D01*
G01*
X13480400Y-9471900D02*
G75*
G02*
X13580400Y-9471900I50000J0D01*
G01*
X13480400Y-9675900D02*
X13580400Y-9775900D01*
X13580400Y-9675900D02*
X13480400Y-9775900D01*
X13580400Y-9725900D02*
G75*
G02*
X13480400Y-9725900I-50000J0D01*
G01*
X13480400Y-9725900D02*
G75*
G02*
X13580400Y-9725900I50000J0D01*
G01*
X14030400Y-9518400D02*
X14130400Y-9618400D01*
X14130400Y-9518400D02*
X14030400Y-9618400D01*
X14130400Y-9568400D02*
G75*
G02*
X14030400Y-9568400I-50000J0D01*
G01*
X14030400Y-9568400D02*
G75*
G02*
X14130400Y-9568400I50000J0D01*
G01*
X14280400Y-9518400D02*
X14380400Y-9618400D01*
X14380400Y-9518400D02*
X14280400Y-9618400D01*
X14380400Y-9568400D02*
G75*
G02*
X14280400Y-9568400I-50000J0D01*
G01*
X14280400Y-9568400D02*
G75*
G02*
X14380400Y-9568400I50000J0D01*
G01*
D13*
X16890900Y-8796900D02*
X17009900Y-8915900D01*
X17009900Y-8796900D02*
X16890900Y-8915900D01*
X16950400Y-8796900D02*
X16950400Y-8915900D01*
X16890900Y-8856400D02*
X17009900Y-8856400D01*
X16890900Y-9050900D02*
X17009900Y-9169900D01*
X17009900Y-9050900D02*
X16890900Y-9169900D01*
X16950400Y-9050900D02*
X16950400Y-9169900D01*
X16890900Y-9110400D02*
X17009900Y-9110400D01*
X16890900Y-9304900D02*
X17009900Y-9423900D01*
X17009900Y-9304900D02*
X16890900Y-9423900D01*
X16950400Y-9304900D02*
X16950400Y-9423900D01*
X16890900Y-9364400D02*
X17009900Y-9364400D01*
X16890900Y-9558900D02*
X17009900Y-9677900D01*
X17009900Y-9558900D02*
X16890900Y-9677900D01*
X16950400Y-9558900D02*
X16950400Y-9677900D01*
X16890900Y-9618400D02*
X17009900Y-9618400D01*
D14*
X13145400Y-10208400D02*
X13275400Y-10338400D01*
X13275400Y-10208400D02*
X13145400Y-10338400D01*
X13256362Y-10319362D02*
X13256362Y-10227438D01*
X13164438Y-10227438D01*
X13164438Y-10319362D01*
X13256362Y-10319362D01*
X13610400Y-10208400D02*
X13740400Y-10338400D01*
X13740400Y-10208400D02*
X13610400Y-10338400D01*
X13721362Y-10319362D02*
X13721362Y-10227438D01*
X13629438Y-10227438D01*
X13629438Y-10319362D01*
X13721362Y-10319362D01*
X16905400Y-8423400D02*
X17035400Y-8553400D01*
X17035400Y-8423400D02*
X16905400Y-8553400D01*
X17016362Y-8534362D02*
X17016362Y-8442438D01*
X16924438Y-8442438D01*
X16924438Y-8534362D01*
X17016362Y-8534362D01*
D11*
X11888677Y-10937384D02*
X11888677Y-10737384D01*
X11888677Y-10737384D02*
X11936296Y-10737384D01*
X11936296Y-10737384D02*
X11964867Y-10746908D01*
X11964867Y-10746908D02*
X11983915Y-10765955D01*
X11983915Y-10765955D02*
X11993439Y-10785003D01*
X11993439Y-10785003D02*
X12002962Y-10823098D01*
X12002962Y-10823098D02*
X12002962Y-10851670D01*
X12002962Y-10851670D02*
X11993439Y-10889765D01*
X11993439Y-10889765D02*
X11983915Y-10908812D01*
X11983915Y-10908812D02*
X11964867Y-10927860D01*
X11964867Y-10927860D02*
X11936296Y-10937384D01*
X11936296Y-10937384D02*
X11888677Y-10937384D01*
X12088677Y-10937384D02*
X12088677Y-10804050D01*
X12088677Y-10842146D02*
X12098201Y-10823098D01*
X12098201Y-10823098D02*
X12107724Y-10813574D01*
X12107724Y-10813574D02*
X12126772Y-10804050D01*
X12126772Y-10804050D02*
X12145820Y-10804050D01*
X12212486Y-10937384D02*
X12212486Y-10804050D01*
X12212486Y-10737384D02*
X12202962Y-10746908D01*
X12202962Y-10746908D02*
X12212486Y-10756431D01*
X12212486Y-10756431D02*
X12222010Y-10746908D01*
X12222010Y-10746908D02*
X12212486Y-10737384D01*
X12212486Y-10737384D02*
X12212486Y-10756431D01*
X12336296Y-10937384D02*
X12317248Y-10927860D01*
X12317248Y-10927860D02*
X12307724Y-10908812D01*
X12307724Y-10908812D02*
X12307724Y-10737384D01*
X12441058Y-10937384D02*
X12422010Y-10927860D01*
X12422010Y-10927860D02*
X12412486Y-10908812D01*
X12412486Y-10908812D02*
X12412486Y-10737384D01*
X12669629Y-10937384D02*
X12669629Y-10737384D01*
X12669629Y-10737384D02*
X12736296Y-10880241D01*
X12736296Y-10880241D02*
X12802962Y-10737384D01*
X12802962Y-10737384D02*
X12802962Y-10937384D01*
X12983915Y-10937384D02*
X12983915Y-10832622D01*
X12983915Y-10832622D02*
X12974391Y-10813574D01*
X12974391Y-10813574D02*
X12955343Y-10804050D01*
X12955343Y-10804050D02*
X12917248Y-10804050D01*
X12917248Y-10804050D02*
X12898201Y-10813574D01*
X12983915Y-10927860D02*
X12964867Y-10937384D01*
X12964867Y-10937384D02*
X12917248Y-10937384D01*
X12917248Y-10937384D02*
X12898201Y-10927860D01*
X12898201Y-10927860D02*
X12888677Y-10908812D01*
X12888677Y-10908812D02*
X12888677Y-10889765D01*
X12888677Y-10889765D02*
X12898201Y-10870717D01*
X12898201Y-10870717D02*
X12917248Y-10861193D01*
X12917248Y-10861193D02*
X12964867Y-10861193D01*
X12964867Y-10861193D02*
X12983915Y-10851670D01*
X13079153Y-10804050D02*
X13079153Y-11004050D01*
X13079153Y-10813574D02*
X13098201Y-10804050D01*
X13098201Y-10804050D02*
X13136296Y-10804050D01*
X13136296Y-10804050D02*
X13155343Y-10813574D01*
X13155343Y-10813574D02*
X13164867Y-10823098D01*
X13164867Y-10823098D02*
X13174391Y-10842146D01*
X13174391Y-10842146D02*
X13174391Y-10899289D01*
X13174391Y-10899289D02*
X13164867Y-10918336D01*
X13164867Y-10918336D02*
X13155343Y-10927860D01*
X13155343Y-10927860D02*
X13136296Y-10937384D01*
X13136296Y-10937384D02*
X13098201Y-10937384D01*
X13098201Y-10937384D02*
X13079153Y-10927860D01*
X13260105Y-10918336D02*
X13269629Y-10927860D01*
X13269629Y-10927860D02*
X13260105Y-10937384D01*
X13260105Y-10937384D02*
X13250582Y-10927860D01*
X13250582Y-10927860D02*
X13260105Y-10918336D01*
X13260105Y-10918336D02*
X13260105Y-10937384D01*
X13260105Y-10813574D02*
X13269629Y-10823098D01*
X13269629Y-10823098D02*
X13260105Y-10832622D01*
X13260105Y-10832622D02*
X13250582Y-10823098D01*
X13250582Y-10823098D02*
X13260105Y-10813574D01*
X13260105Y-10813574D02*
X13260105Y-10832622D01*
D12*
X11597900Y-11250900D02*
X11627900Y-11280900D01*
X11627900Y-11250900D02*
X11597900Y-11280900D01*
D11*
X11926772Y-11157384D02*
X11945820Y-11157384D01*
X11945820Y-11157384D02*
X11964867Y-11166908D01*
X11964867Y-11166908D02*
X11974391Y-11176431D01*
X11974391Y-11176431D02*
X11983915Y-11195479D01*
X11983915Y-11195479D02*
X11993439Y-11233574D01*
X11993439Y-11233574D02*
X11993439Y-11281193D01*
X11993439Y-11281193D02*
X11983915Y-11319288D01*
X11983915Y-11319288D02*
X11974391Y-11338336D01*
X11974391Y-11338336D02*
X11964867Y-11347860D01*
X11964867Y-11347860D02*
X11945820Y-11357384D01*
X11945820Y-11357384D02*
X11926772Y-11357384D01*
X11926772Y-11357384D02*
X11907724Y-11347860D01*
X11907724Y-11347860D02*
X11898201Y-11338336D01*
X11898201Y-11338336D02*
X11888677Y-11319288D01*
X11888677Y-11319288D02*
X11879153Y-11281193D01*
X11879153Y-11281193D02*
X11879153Y-11233574D01*
X11879153Y-11233574D02*
X11888677Y-11195479D01*
X11888677Y-11195479D02*
X11898201Y-11176431D01*
X11898201Y-11176431D02*
X11907724Y-11166908D01*
X11907724Y-11166908D02*
X11926772Y-11157384D01*
X12079153Y-11338336D02*
X12088677Y-11347860D01*
X12088677Y-11347860D02*
X12079153Y-11357384D01*
X12079153Y-11357384D02*
X12069629Y-11347860D01*
X12069629Y-11347860D02*
X12079153Y-11338336D01*
X12079153Y-11338336D02*
X12079153Y-11357384D01*
X12155343Y-11157384D02*
X12279153Y-11157384D01*
X12279153Y-11157384D02*
X12212486Y-11233574D01*
X12212486Y-11233574D02*
X12241058Y-11233574D01*
X12241058Y-11233574D02*
X12260105Y-11243098D01*
X12260105Y-11243098D02*
X12269629Y-11252622D01*
X12269629Y-11252622D02*
X12279153Y-11271669D01*
X12279153Y-11271669D02*
X12279153Y-11319288D01*
X12279153Y-11319288D02*
X12269629Y-11338336D01*
X12269629Y-11338336D02*
X12260105Y-11347860D01*
X12260105Y-11347860D02*
X12241058Y-11357384D01*
X12241058Y-11357384D02*
X12183915Y-11357384D01*
X12183915Y-11357384D02*
X12164867Y-11347860D01*
X12164867Y-11347860D02*
X12155343Y-11338336D01*
X12402962Y-11157384D02*
X12422010Y-11157384D01*
X12422010Y-11157384D02*
X12441058Y-11166908D01*
X12441058Y-11166908D02*
X12450582Y-11176431D01*
X12450582Y-11176431D02*
X12460105Y-11195479D01*
X12460105Y-11195479D02*
X12469629Y-11233574D01*
X12469629Y-11233574D02*
X12469629Y-11281193D01*
X12469629Y-11281193D02*
X12460105Y-11319288D01*
X12460105Y-11319288D02*
X12450582Y-11338336D01*
X12450582Y-11338336D02*
X12441058Y-11347860D01*
X12441058Y-11347860D02*
X12422010Y-11357384D01*
X12422010Y-11357384D02*
X12402962Y-11357384D01*
X12402962Y-11357384D02*
X12383915Y-11347860D01*
X12383915Y-11347860D02*
X12374391Y-11338336D01*
X12374391Y-11338336D02*
X12364867Y-11319288D01*
X12364867Y-11319288D02*
X12355343Y-11281193D01*
X12355343Y-11281193D02*
X12355343Y-11233574D01*
X12355343Y-11233574D02*
X12364867Y-11195479D01*
X12364867Y-11195479D02*
X12374391Y-11176431D01*
X12374391Y-11176431D02*
X12383915Y-11166908D01*
X12383915Y-11166908D02*
X12402962Y-11157384D01*
X12593439Y-11157384D02*
X12612486Y-11157384D01*
X12612486Y-11157384D02*
X12631534Y-11166908D01*
X12631534Y-11166908D02*
X12641058Y-11176431D01*
X12641058Y-11176431D02*
X12650582Y-11195479D01*
X12650582Y-11195479D02*
X12660105Y-11233574D01*
X12660105Y-11233574D02*
X12660105Y-11281193D01*
X12660105Y-11281193D02*
X12650582Y-11319288D01*
X12650582Y-11319288D02*
X12641058Y-11338336D01*
X12641058Y-11338336D02*
X12631534Y-11347860D01*
X12631534Y-11347860D02*
X12612486Y-11357384D01*
X12612486Y-11357384D02*
X12593439Y-11357384D01*
X12593439Y-11357384D02*
X12574391Y-11347860D01*
X12574391Y-11347860D02*
X12564867Y-11338336D01*
X12564867Y-11338336D02*
X12555343Y-11319288D01*
X12555343Y-11319288D02*
X12545820Y-11281193D01*
X12545820Y-11281193D02*
X12545820Y-11233574D01*
X12545820Y-11233574D02*
X12555343Y-11195479D01*
X12555343Y-11195479D02*
X12564867Y-11176431D01*
X12564867Y-11176431D02*
X12574391Y-11166908D01*
X12574391Y-11166908D02*
X12593439Y-11157384D01*
X12745820Y-11357384D02*
X12745820Y-11224050D01*
X12745820Y-11243098D02*
X12755343Y-11233574D01*
X12755343Y-11233574D02*
X12774391Y-11224050D01*
X12774391Y-11224050D02*
X12802963Y-11224050D01*
X12802963Y-11224050D02*
X12822010Y-11233574D01*
X12822010Y-11233574D02*
X12831534Y-11252622D01*
X12831534Y-11252622D02*
X12831534Y-11357384D01*
X12831534Y-11252622D02*
X12841058Y-11233574D01*
X12841058Y-11233574D02*
X12860105Y-11224050D01*
X12860105Y-11224050D02*
X12888677Y-11224050D01*
X12888677Y-11224050D02*
X12907724Y-11233574D01*
X12907724Y-11233574D02*
X12917248Y-11252622D01*
X12917248Y-11252622D02*
X12917248Y-11357384D01*
X13012486Y-11357384D02*
X13012486Y-11224050D01*
X13012486Y-11243098D02*
X13022010Y-11233574D01*
X13022010Y-11233574D02*
X13041058Y-11224050D01*
X13041058Y-11224050D02*
X13069629Y-11224050D01*
X13069629Y-11224050D02*
X13088677Y-11233574D01*
X13088677Y-11233574D02*
X13098201Y-11252622D01*
X13098201Y-11252622D02*
X13098201Y-11357384D01*
X13098201Y-11252622D02*
X13107724Y-11233574D01*
X13107724Y-11233574D02*
X13126772Y-11224050D01*
X13126772Y-11224050D02*
X13155343Y-11224050D01*
X13155343Y-11224050D02*
X13174391Y-11233574D01*
X13174391Y-11233574D02*
X13183915Y-11252622D01*
X13183915Y-11252622D02*
X13183915Y-11357384D01*
X13574391Y-11147860D02*
X13402963Y-11405003D01*
X13831534Y-11157384D02*
X13850582Y-11157384D01*
X13850582Y-11157384D02*
X13869629Y-11166908D01*
X13869629Y-11166908D02*
X13879153Y-11176431D01*
X13879153Y-11176431D02*
X13888677Y-11195479D01*
X13888677Y-11195479D02*
X13898201Y-11233574D01*
X13898201Y-11233574D02*
X13898201Y-11281193D01*
X13898201Y-11281193D02*
X13888677Y-11319288D01*
X13888677Y-11319288D02*
X13879153Y-11338336D01*
X13879153Y-11338336D02*
X13869629Y-11347860D01*
X13869629Y-11347860D02*
X13850582Y-11357384D01*
X13850582Y-11357384D02*
X13831534Y-11357384D01*
X13831534Y-11357384D02*
X13812486Y-11347860D01*
X13812486Y-11347860D02*
X13802963Y-11338336D01*
X13802963Y-11338336D02*
X13793439Y-11319288D01*
X13793439Y-11319288D02*
X13783915Y-11281193D01*
X13783915Y-11281193D02*
X13783915Y-11233574D01*
X13783915Y-11233574D02*
X13793439Y-11195479D01*
X13793439Y-11195479D02*
X13802963Y-11176431D01*
X13802963Y-11176431D02*
X13812486Y-11166908D01*
X13812486Y-11166908D02*
X13831534Y-11157384D01*
X13983915Y-11338336D02*
X13993439Y-11347860D01*
X13993439Y-11347860D02*
X13983915Y-11357384D01*
X13983915Y-11357384D02*
X13974391Y-11347860D01*
X13974391Y-11347860D02*
X13983915Y-11338336D01*
X13983915Y-11338336D02*
X13983915Y-11357384D01*
X14117248Y-11157384D02*
X14136296Y-11157384D01*
X14136296Y-11157384D02*
X14155344Y-11166908D01*
X14155344Y-11166908D02*
X14164867Y-11176431D01*
X14164867Y-11176431D02*
X14174391Y-11195479D01*
X14174391Y-11195479D02*
X14183915Y-11233574D01*
X14183915Y-11233574D02*
X14183915Y-11281193D01*
X14183915Y-11281193D02*
X14174391Y-11319288D01*
X14174391Y-11319288D02*
X14164867Y-11338336D01*
X14164867Y-11338336D02*
X14155344Y-11347860D01*
X14155344Y-11347860D02*
X14136296Y-11357384D01*
X14136296Y-11357384D02*
X14117248Y-11357384D01*
X14117248Y-11357384D02*
X14098201Y-11347860D01*
X14098201Y-11347860D02*
X14088677Y-11338336D01*
X14088677Y-11338336D02*
X14079153Y-11319288D01*
X14079153Y-11319288D02*
X14069629Y-11281193D01*
X14069629Y-11281193D02*
X14069629Y-11233574D01*
X14069629Y-11233574D02*
X14079153Y-11195479D01*
X14079153Y-11195479D02*
X14088677Y-11176431D01*
X14088677Y-11176431D02*
X14098201Y-11166908D01*
X14098201Y-11166908D02*
X14117248Y-11157384D01*
X14374391Y-11357384D02*
X14260106Y-11357384D01*
X14317248Y-11357384D02*
X14317248Y-11157384D01*
X14317248Y-11157384D02*
X14298201Y-11185955D01*
X14298201Y-11185955D02*
X14279153Y-11205003D01*
X14279153Y-11205003D02*
X14260106Y-11214527D01*
X14564867Y-11357384D02*
X14450582Y-11357384D01*
X14507725Y-11357384D02*
X14507725Y-11157384D01*
X14507725Y-11157384D02*
X14488677Y-11185955D01*
X14488677Y-11185955D02*
X14469629Y-11205003D01*
X14469629Y-11205003D02*
X14450582Y-11214527D01*
X14679153Y-11243098D02*
X14660106Y-11233574D01*
X14660106Y-11233574D02*
X14650582Y-11224050D01*
X14650582Y-11224050D02*
X14641058Y-11205003D01*
X14641058Y-11205003D02*
X14641058Y-11195479D01*
X14641058Y-11195479D02*
X14650582Y-11176431D01*
X14650582Y-11176431D02*
X14660106Y-11166908D01*
X14660106Y-11166908D02*
X14679153Y-11157384D01*
X14679153Y-11157384D02*
X14717248Y-11157384D01*
X14717248Y-11157384D02*
X14736296Y-11166908D01*
X14736296Y-11166908D02*
X14745820Y-11176431D01*
X14745820Y-11176431D02*
X14755344Y-11195479D01*
X14755344Y-11195479D02*
X14755344Y-11205003D01*
X14755344Y-11205003D02*
X14745820Y-11224050D01*
X14745820Y-11224050D02*
X14736296Y-11233574D01*
X14736296Y-11233574D02*
X14717248Y-11243098D01*
X14717248Y-11243098D02*
X14679153Y-11243098D01*
X14679153Y-11243098D02*
X14660106Y-11252622D01*
X14660106Y-11252622D02*
X14650582Y-11262146D01*
X14650582Y-11262146D02*
X14641058Y-11281193D01*
X14641058Y-11281193D02*
X14641058Y-11319288D01*
X14641058Y-11319288D02*
X14650582Y-11338336D01*
X14650582Y-11338336D02*
X14660106Y-11347860D01*
X14660106Y-11347860D02*
X14679153Y-11357384D01*
X14679153Y-11357384D02*
X14717248Y-11357384D01*
X14717248Y-11357384D02*
X14736296Y-11347860D01*
X14736296Y-11347860D02*
X14745820Y-11338336D01*
X14745820Y-11338336D02*
X14755344Y-11319288D01*
X14755344Y-11319288D02*
X14755344Y-11281193D01*
X14755344Y-11281193D02*
X14745820Y-11262146D01*
X14745820Y-11262146D02*
X14736296Y-11252622D01*
X14736296Y-11252622D02*
X14717248Y-11243098D01*
X14831534Y-11157384D02*
X14831534Y-11195479D01*
X14907725Y-11157384D02*
X14907725Y-11195479D01*
X15202963Y-11433574D02*
X15193439Y-11424050D01*
X15193439Y-11424050D02*
X15174391Y-11395479D01*
X15174391Y-11395479D02*
X15164868Y-11376431D01*
X15164868Y-11376431D02*
X15155344Y-11347860D01*
X15155344Y-11347860D02*
X15145820Y-11300241D01*
X15145820Y-11300241D02*
X15145820Y-11262146D01*
X15145820Y-11262146D02*
X15155344Y-11214527D01*
X15155344Y-11214527D02*
X15164868Y-11185955D01*
X15164868Y-11185955D02*
X15174391Y-11166908D01*
X15174391Y-11166908D02*
X15193439Y-11138336D01*
X15193439Y-11138336D02*
X15202963Y-11128812D01*
X15364868Y-11224050D02*
X15364868Y-11357384D01*
X15317248Y-11147860D02*
X15269629Y-11290717D01*
X15269629Y-11290717D02*
X15393439Y-11290717D01*
X15622010Y-11357384D02*
X15622010Y-11157384D01*
X15707725Y-11357384D02*
X15707725Y-11252622D01*
X15707725Y-11252622D02*
X15698201Y-11233574D01*
X15698201Y-11233574D02*
X15679153Y-11224050D01*
X15679153Y-11224050D02*
X15650582Y-11224050D01*
X15650582Y-11224050D02*
X15631534Y-11233574D01*
X15631534Y-11233574D02*
X15622010Y-11243098D01*
X15831534Y-11357384D02*
X15812487Y-11347860D01*
X15812487Y-11347860D02*
X15802963Y-11338336D01*
X15802963Y-11338336D02*
X15793439Y-11319288D01*
X15793439Y-11319288D02*
X15793439Y-11262146D01*
X15793439Y-11262146D02*
X15802963Y-11243098D01*
X15802963Y-11243098D02*
X15812487Y-11233574D01*
X15812487Y-11233574D02*
X15831534Y-11224050D01*
X15831534Y-11224050D02*
X15860106Y-11224050D01*
X15860106Y-11224050D02*
X15879153Y-11233574D01*
X15879153Y-11233574D02*
X15888677Y-11243098D01*
X15888677Y-11243098D02*
X15898201Y-11262146D01*
X15898201Y-11262146D02*
X15898201Y-11319288D01*
X15898201Y-11319288D02*
X15888677Y-11338336D01*
X15888677Y-11338336D02*
X15879153Y-11347860D01*
X15879153Y-11347860D02*
X15860106Y-11357384D01*
X15860106Y-11357384D02*
X15831534Y-11357384D01*
X16012487Y-11357384D02*
X15993439Y-11347860D01*
X15993439Y-11347860D02*
X15983915Y-11328812D01*
X15983915Y-11328812D02*
X15983915Y-11157384D01*
X16164868Y-11347860D02*
X16145820Y-11357384D01*
X16145820Y-11357384D02*
X16107725Y-11357384D01*
X16107725Y-11357384D02*
X16088677Y-11347860D01*
X16088677Y-11347860D02*
X16079153Y-11328812D01*
X16079153Y-11328812D02*
X16079153Y-11252622D01*
X16079153Y-11252622D02*
X16088677Y-11233574D01*
X16088677Y-11233574D02*
X16107725Y-11224050D01*
X16107725Y-11224050D02*
X16145820Y-11224050D01*
X16145820Y-11224050D02*
X16164868Y-11233574D01*
X16164868Y-11233574D02*
X16174391Y-11252622D01*
X16174391Y-11252622D02*
X16174391Y-11271669D01*
X16174391Y-11271669D02*
X16079153Y-11290717D01*
X16250582Y-11347860D02*
X16269630Y-11357384D01*
X16269630Y-11357384D02*
X16307725Y-11357384D01*
X16307725Y-11357384D02*
X16326772Y-11347860D01*
X16326772Y-11347860D02*
X16336296Y-11328812D01*
X16336296Y-11328812D02*
X16336296Y-11319288D01*
X16336296Y-11319288D02*
X16326772Y-11300241D01*
X16326772Y-11300241D02*
X16307725Y-11290717D01*
X16307725Y-11290717D02*
X16279153Y-11290717D01*
X16279153Y-11290717D02*
X16260106Y-11281193D01*
X16260106Y-11281193D02*
X16250582Y-11262146D01*
X16250582Y-11262146D02*
X16250582Y-11252622D01*
X16250582Y-11252622D02*
X16260106Y-11233574D01*
X16260106Y-11233574D02*
X16279153Y-11224050D01*
X16279153Y-11224050D02*
X16307725Y-11224050D01*
X16307725Y-11224050D02*
X16326772Y-11233574D01*
X16402963Y-11433574D02*
X16412487Y-11424050D01*
X16412487Y-11424050D02*
X16431534Y-11395479D01*
X16431534Y-11395479D02*
X16441058Y-11376431D01*
X16441058Y-11376431D02*
X16450582Y-11347860D01*
X16450582Y-11347860D02*
X16460106Y-11300241D01*
X16460106Y-11300241D02*
X16460106Y-11262146D01*
X16460106Y-11262146D02*
X16450582Y-11214527D01*
X16450582Y-11214527D02*
X16441058Y-11185955D01*
X16441058Y-11185955D02*
X16431534Y-11166908D01*
X16431534Y-11166908D02*
X16412487Y-11138336D01*
X16412487Y-11138336D02*
X16402963Y-11128812D01*
D12*
X11627900Y-11529900D02*
G75*
G02*
X11597900Y-11529900I-15000J0D01*
G01*
X11597900Y-11529900D02*
G75*
G02*
X11627900Y-11529900I15000J0D01*
G01*
D11*
X11926772Y-11421384D02*
X11945820Y-11421384D01*
X11945820Y-11421384D02*
X11964867Y-11430908D01*
X11964867Y-11430908D02*
X11974391Y-11440431D01*
X11974391Y-11440431D02*
X11983915Y-11459479D01*
X11983915Y-11459479D02*
X11993439Y-11497574D01*
X11993439Y-11497574D02*
X11993439Y-11545193D01*
X11993439Y-11545193D02*
X11983915Y-11583288D01*
X11983915Y-11583288D02*
X11974391Y-11602336D01*
X11974391Y-11602336D02*
X11964867Y-11611860D01*
X11964867Y-11611860D02*
X11945820Y-11621384D01*
X11945820Y-11621384D02*
X11926772Y-11621384D01*
X11926772Y-11621384D02*
X11907724Y-11611860D01*
X11907724Y-11611860D02*
X11898201Y-11602336D01*
X11898201Y-11602336D02*
X11888677Y-11583288D01*
X11888677Y-11583288D02*
X11879153Y-11545193D01*
X11879153Y-11545193D02*
X11879153Y-11497574D01*
X11879153Y-11497574D02*
X11888677Y-11459479D01*
X11888677Y-11459479D02*
X11898201Y-11440431D01*
X11898201Y-11440431D02*
X11907724Y-11430908D01*
X11907724Y-11430908D02*
X11926772Y-11421384D01*
X12079153Y-11602336D02*
X12088677Y-11611860D01*
X12088677Y-11611860D02*
X12079153Y-11621384D01*
X12079153Y-11621384D02*
X12069629Y-11611860D01*
X12069629Y-11611860D02*
X12079153Y-11602336D01*
X12079153Y-11602336D02*
X12079153Y-11621384D01*
X12155343Y-11421384D02*
X12279153Y-11421384D01*
X12279153Y-11421384D02*
X12212486Y-11497574D01*
X12212486Y-11497574D02*
X12241058Y-11497574D01*
X12241058Y-11497574D02*
X12260105Y-11507098D01*
X12260105Y-11507098D02*
X12269629Y-11516622D01*
X12269629Y-11516622D02*
X12279153Y-11535669D01*
X12279153Y-11535669D02*
X12279153Y-11583288D01*
X12279153Y-11583288D02*
X12269629Y-11602336D01*
X12269629Y-11602336D02*
X12260105Y-11611860D01*
X12260105Y-11611860D02*
X12241058Y-11621384D01*
X12241058Y-11621384D02*
X12183915Y-11621384D01*
X12183915Y-11621384D02*
X12164867Y-11611860D01*
X12164867Y-11611860D02*
X12155343Y-11602336D01*
X12402962Y-11421384D02*
X12422010Y-11421384D01*
X12422010Y-11421384D02*
X12441058Y-11430908D01*
X12441058Y-11430908D02*
X12450582Y-11440431D01*
X12450582Y-11440431D02*
X12460105Y-11459479D01*
X12460105Y-11459479D02*
X12469629Y-11497574D01*
X12469629Y-11497574D02*
X12469629Y-11545193D01*
X12469629Y-11545193D02*
X12460105Y-11583288D01*
X12460105Y-11583288D02*
X12450582Y-11602336D01*
X12450582Y-11602336D02*
X12441058Y-11611860D01*
X12441058Y-11611860D02*
X12422010Y-11621384D01*
X12422010Y-11621384D02*
X12402962Y-11621384D01*
X12402962Y-11621384D02*
X12383915Y-11611860D01*
X12383915Y-11611860D02*
X12374391Y-11602336D01*
X12374391Y-11602336D02*
X12364867Y-11583288D01*
X12364867Y-11583288D02*
X12355343Y-11545193D01*
X12355343Y-11545193D02*
X12355343Y-11497574D01*
X12355343Y-11497574D02*
X12364867Y-11459479D01*
X12364867Y-11459479D02*
X12374391Y-11440431D01*
X12374391Y-11440431D02*
X12383915Y-11430908D01*
X12383915Y-11430908D02*
X12402962Y-11421384D01*
X12593439Y-11421384D02*
X12612486Y-11421384D01*
X12612486Y-11421384D02*
X12631534Y-11430908D01*
X12631534Y-11430908D02*
X12641058Y-11440431D01*
X12641058Y-11440431D02*
X12650582Y-11459479D01*
X12650582Y-11459479D02*
X12660105Y-11497574D01*
X12660105Y-11497574D02*
X12660105Y-11545193D01*
X12660105Y-11545193D02*
X12650582Y-11583288D01*
X12650582Y-11583288D02*
X12641058Y-11602336D01*
X12641058Y-11602336D02*
X12631534Y-11611860D01*
X12631534Y-11611860D02*
X12612486Y-11621384D01*
X12612486Y-11621384D02*
X12593439Y-11621384D01*
X12593439Y-11621384D02*
X12574391Y-11611860D01*
X12574391Y-11611860D02*
X12564867Y-11602336D01*
X12564867Y-11602336D02*
X12555343Y-11583288D01*
X12555343Y-11583288D02*
X12545820Y-11545193D01*
X12545820Y-11545193D02*
X12545820Y-11497574D01*
X12545820Y-11497574D02*
X12555343Y-11459479D01*
X12555343Y-11459479D02*
X12564867Y-11440431D01*
X12564867Y-11440431D02*
X12574391Y-11430908D01*
X12574391Y-11430908D02*
X12593439Y-11421384D01*
X12745820Y-11621384D02*
X12745820Y-11488050D01*
X12745820Y-11507098D02*
X12755343Y-11497574D01*
X12755343Y-11497574D02*
X12774391Y-11488050D01*
X12774391Y-11488050D02*
X12802963Y-11488050D01*
X12802963Y-11488050D02*
X12822010Y-11497574D01*
X12822010Y-11497574D02*
X12831534Y-11516622D01*
X12831534Y-11516622D02*
X12831534Y-11621384D01*
X12831534Y-11516622D02*
X12841058Y-11497574D01*
X12841058Y-11497574D02*
X12860105Y-11488050D01*
X12860105Y-11488050D02*
X12888677Y-11488050D01*
X12888677Y-11488050D02*
X12907724Y-11497574D01*
X12907724Y-11497574D02*
X12917248Y-11516622D01*
X12917248Y-11516622D02*
X12917248Y-11621384D01*
X13012486Y-11621384D02*
X13012486Y-11488050D01*
X13012486Y-11507098D02*
X13022010Y-11497574D01*
X13022010Y-11497574D02*
X13041058Y-11488050D01*
X13041058Y-11488050D02*
X13069629Y-11488050D01*
X13069629Y-11488050D02*
X13088677Y-11497574D01*
X13088677Y-11497574D02*
X13098201Y-11516622D01*
X13098201Y-11516622D02*
X13098201Y-11621384D01*
X13098201Y-11516622D02*
X13107724Y-11497574D01*
X13107724Y-11497574D02*
X13126772Y-11488050D01*
X13126772Y-11488050D02*
X13155343Y-11488050D01*
X13155343Y-11488050D02*
X13174391Y-11497574D01*
X13174391Y-11497574D02*
X13183915Y-11516622D01*
X13183915Y-11516622D02*
X13183915Y-11621384D01*
X13574391Y-11411860D02*
X13402963Y-11669003D01*
X13831534Y-11421384D02*
X13850582Y-11421384D01*
X13850582Y-11421384D02*
X13869629Y-11430908D01*
X13869629Y-11430908D02*
X13879153Y-11440431D01*
X13879153Y-11440431D02*
X13888677Y-11459479D01*
X13888677Y-11459479D02*
X13898201Y-11497574D01*
X13898201Y-11497574D02*
X13898201Y-11545193D01*
X13898201Y-11545193D02*
X13888677Y-11583288D01*
X13888677Y-11583288D02*
X13879153Y-11602336D01*
X13879153Y-11602336D02*
X13869629Y-11611860D01*
X13869629Y-11611860D02*
X13850582Y-11621384D01*
X13850582Y-11621384D02*
X13831534Y-11621384D01*
X13831534Y-11621384D02*
X13812486Y-11611860D01*
X13812486Y-11611860D02*
X13802963Y-11602336D01*
X13802963Y-11602336D02*
X13793439Y-11583288D01*
X13793439Y-11583288D02*
X13783915Y-11545193D01*
X13783915Y-11545193D02*
X13783915Y-11497574D01*
X13783915Y-11497574D02*
X13793439Y-11459479D01*
X13793439Y-11459479D02*
X13802963Y-11440431D01*
X13802963Y-11440431D02*
X13812486Y-11430908D01*
X13812486Y-11430908D02*
X13831534Y-11421384D01*
X13983915Y-11602336D02*
X13993439Y-11611860D01*
X13993439Y-11611860D02*
X13983915Y-11621384D01*
X13983915Y-11621384D02*
X13974391Y-11611860D01*
X13974391Y-11611860D02*
X13983915Y-11602336D01*
X13983915Y-11602336D02*
X13983915Y-11621384D01*
X14117248Y-11421384D02*
X14136296Y-11421384D01*
X14136296Y-11421384D02*
X14155344Y-11430908D01*
X14155344Y-11430908D02*
X14164867Y-11440431D01*
X14164867Y-11440431D02*
X14174391Y-11459479D01*
X14174391Y-11459479D02*
X14183915Y-11497574D01*
X14183915Y-11497574D02*
X14183915Y-11545193D01*
X14183915Y-11545193D02*
X14174391Y-11583288D01*
X14174391Y-11583288D02*
X14164867Y-11602336D01*
X14164867Y-11602336D02*
X14155344Y-11611860D01*
X14155344Y-11611860D02*
X14136296Y-11621384D01*
X14136296Y-11621384D02*
X14117248Y-11621384D01*
X14117248Y-11621384D02*
X14098201Y-11611860D01*
X14098201Y-11611860D02*
X14088677Y-11602336D01*
X14088677Y-11602336D02*
X14079153Y-11583288D01*
X14079153Y-11583288D02*
X14069629Y-11545193D01*
X14069629Y-11545193D02*
X14069629Y-11497574D01*
X14069629Y-11497574D02*
X14079153Y-11459479D01*
X14079153Y-11459479D02*
X14088677Y-11440431D01*
X14088677Y-11440431D02*
X14098201Y-11430908D01*
X14098201Y-11430908D02*
X14117248Y-11421384D01*
X14374391Y-11621384D02*
X14260106Y-11621384D01*
X14317248Y-11621384D02*
X14317248Y-11421384D01*
X14317248Y-11421384D02*
X14298201Y-11449955D01*
X14298201Y-11449955D02*
X14279153Y-11469003D01*
X14279153Y-11469003D02*
X14260106Y-11478527D01*
X14564867Y-11621384D02*
X14450582Y-11621384D01*
X14507725Y-11621384D02*
X14507725Y-11421384D01*
X14507725Y-11421384D02*
X14488677Y-11449955D01*
X14488677Y-11449955D02*
X14469629Y-11469003D01*
X14469629Y-11469003D02*
X14450582Y-11478527D01*
X14679153Y-11507098D02*
X14660106Y-11497574D01*
X14660106Y-11497574D02*
X14650582Y-11488050D01*
X14650582Y-11488050D02*
X14641058Y-11469003D01*
X14641058Y-11469003D02*
X14641058Y-11459479D01*
X14641058Y-11459479D02*
X14650582Y-11440431D01*
X14650582Y-11440431D02*
X14660106Y-11430908D01*
X14660106Y-11430908D02*
X14679153Y-11421384D01*
X14679153Y-11421384D02*
X14717248Y-11421384D01*
X14717248Y-11421384D02*
X14736296Y-11430908D01*
X14736296Y-11430908D02*
X14745820Y-11440431D01*
X14745820Y-11440431D02*
X14755344Y-11459479D01*
X14755344Y-11459479D02*
X14755344Y-11469003D01*
X14755344Y-11469003D02*
X14745820Y-11488050D01*
X14745820Y-11488050D02*
X14736296Y-11497574D01*
X14736296Y-11497574D02*
X14717248Y-11507098D01*
X14717248Y-11507098D02*
X14679153Y-11507098D01*
X14679153Y-11507098D02*
X14660106Y-11516622D01*
X14660106Y-11516622D02*
X14650582Y-11526146D01*
X14650582Y-11526146D02*
X14641058Y-11545193D01*
X14641058Y-11545193D02*
X14641058Y-11583288D01*
X14641058Y-11583288D02*
X14650582Y-11602336D01*
X14650582Y-11602336D02*
X14660106Y-11611860D01*
X14660106Y-11611860D02*
X14679153Y-11621384D01*
X14679153Y-11621384D02*
X14717248Y-11621384D01*
X14717248Y-11621384D02*
X14736296Y-11611860D01*
X14736296Y-11611860D02*
X14745820Y-11602336D01*
X14745820Y-11602336D02*
X14755344Y-11583288D01*
X14755344Y-11583288D02*
X14755344Y-11545193D01*
X14755344Y-11545193D02*
X14745820Y-11526146D01*
X14745820Y-11526146D02*
X14736296Y-11516622D01*
X14736296Y-11516622D02*
X14717248Y-11507098D01*
X14831534Y-11421384D02*
X14831534Y-11459479D01*
X14907725Y-11421384D02*
X14907725Y-11459479D01*
X15202963Y-11697574D02*
X15193439Y-11688050D01*
X15193439Y-11688050D02*
X15174391Y-11659479D01*
X15174391Y-11659479D02*
X15164868Y-11640431D01*
X15164868Y-11640431D02*
X15155344Y-11611860D01*
X15155344Y-11611860D02*
X15145820Y-11564241D01*
X15145820Y-11564241D02*
X15145820Y-11526146D01*
X15145820Y-11526146D02*
X15155344Y-11478527D01*
X15155344Y-11478527D02*
X15164868Y-11449955D01*
X15164868Y-11449955D02*
X15174391Y-11430908D01*
X15174391Y-11430908D02*
X15193439Y-11402336D01*
X15193439Y-11402336D02*
X15202963Y-11392812D01*
X15364868Y-11421384D02*
X15326772Y-11421384D01*
X15326772Y-11421384D02*
X15307725Y-11430908D01*
X15307725Y-11430908D02*
X15298201Y-11440431D01*
X15298201Y-11440431D02*
X15279153Y-11469003D01*
X15279153Y-11469003D02*
X15269629Y-11507098D01*
X15269629Y-11507098D02*
X15269629Y-11583288D01*
X15269629Y-11583288D02*
X15279153Y-11602336D01*
X15279153Y-11602336D02*
X15288677Y-11611860D01*
X15288677Y-11611860D02*
X15307725Y-11621384D01*
X15307725Y-11621384D02*
X15345820Y-11621384D01*
X15345820Y-11621384D02*
X15364868Y-11611860D01*
X15364868Y-11611860D02*
X15374391Y-11602336D01*
X15374391Y-11602336D02*
X15383915Y-11583288D01*
X15383915Y-11583288D02*
X15383915Y-11535669D01*
X15383915Y-11535669D02*
X15374391Y-11516622D01*
X15374391Y-11516622D02*
X15364868Y-11507098D01*
X15364868Y-11507098D02*
X15345820Y-11497574D01*
X15345820Y-11497574D02*
X15307725Y-11497574D01*
X15307725Y-11497574D02*
X15288677Y-11507098D01*
X15288677Y-11507098D02*
X15279153Y-11516622D01*
X15279153Y-11516622D02*
X15269629Y-11535669D01*
X15622010Y-11621384D02*
X15622010Y-11421384D01*
X15707725Y-11621384D02*
X15707725Y-11516622D01*
X15707725Y-11516622D02*
X15698201Y-11497574D01*
X15698201Y-11497574D02*
X15679153Y-11488050D01*
X15679153Y-11488050D02*
X15650582Y-11488050D01*
X15650582Y-11488050D02*
X15631534Y-11497574D01*
X15631534Y-11497574D02*
X15622010Y-11507098D01*
X15831534Y-11621384D02*
X15812487Y-11611860D01*
X15812487Y-11611860D02*
X15802963Y-11602336D01*
X15802963Y-11602336D02*
X15793439Y-11583288D01*
X15793439Y-11583288D02*
X15793439Y-11526146D01*
X15793439Y-11526146D02*
X15802963Y-11507098D01*
X15802963Y-11507098D02*
X15812487Y-11497574D01*
X15812487Y-11497574D02*
X15831534Y-11488050D01*
X15831534Y-11488050D02*
X15860106Y-11488050D01*
X15860106Y-11488050D02*
X15879153Y-11497574D01*
X15879153Y-11497574D02*
X15888677Y-11507098D01*
X15888677Y-11507098D02*
X15898201Y-11526146D01*
X15898201Y-11526146D02*
X15898201Y-11583288D01*
X15898201Y-11583288D02*
X15888677Y-11602336D01*
X15888677Y-11602336D02*
X15879153Y-11611860D01*
X15879153Y-11611860D02*
X15860106Y-11621384D01*
X15860106Y-11621384D02*
X15831534Y-11621384D01*
X16012487Y-11621384D02*
X15993439Y-11611860D01*
X15993439Y-11611860D02*
X15983915Y-11592812D01*
X15983915Y-11592812D02*
X15983915Y-11421384D01*
X16164868Y-11611860D02*
X16145820Y-11621384D01*
X16145820Y-11621384D02*
X16107725Y-11621384D01*
X16107725Y-11621384D02*
X16088677Y-11611860D01*
X16088677Y-11611860D02*
X16079153Y-11592812D01*
X16079153Y-11592812D02*
X16079153Y-11516622D01*
X16079153Y-11516622D02*
X16088677Y-11497574D01*
X16088677Y-11497574D02*
X16107725Y-11488050D01*
X16107725Y-11488050D02*
X16145820Y-11488050D01*
X16145820Y-11488050D02*
X16164868Y-11497574D01*
X16164868Y-11497574D02*
X16174391Y-11516622D01*
X16174391Y-11516622D02*
X16174391Y-11535669D01*
X16174391Y-11535669D02*
X16079153Y-11554717D01*
X16250582Y-11611860D02*
X16269630Y-11621384D01*
X16269630Y-11621384D02*
X16307725Y-11621384D01*
X16307725Y-11621384D02*
X16326772Y-11611860D01*
X16326772Y-11611860D02*
X16336296Y-11592812D01*
X16336296Y-11592812D02*
X16336296Y-11583288D01*
X16336296Y-11583288D02*
X16326772Y-11564241D01*
X16326772Y-11564241D02*
X16307725Y-11554717D01*
X16307725Y-11554717D02*
X16279153Y-11554717D01*
X16279153Y-11554717D02*
X16260106Y-11545193D01*
X16260106Y-11545193D02*
X16250582Y-11526146D01*
X16250582Y-11526146D02*
X16250582Y-11516622D01*
X16250582Y-11516622D02*
X16260106Y-11497574D01*
X16260106Y-11497574D02*
X16279153Y-11488050D01*
X16279153Y-11488050D02*
X16307725Y-11488050D01*
X16307725Y-11488050D02*
X16326772Y-11497574D01*
X16402963Y-11697574D02*
X16412487Y-11688050D01*
X16412487Y-11688050D02*
X16431534Y-11659479D01*
X16431534Y-11659479D02*
X16441058Y-11640431D01*
X16441058Y-11640431D02*
X16450582Y-11611860D01*
X16450582Y-11611860D02*
X16460106Y-11564241D01*
X16460106Y-11564241D02*
X16460106Y-11526146D01*
X16460106Y-11526146D02*
X16450582Y-11478527D01*
X16450582Y-11478527D02*
X16441058Y-11449955D01*
X16441058Y-11449955D02*
X16431534Y-11430908D01*
X16431534Y-11430908D02*
X16412487Y-11402336D01*
X16412487Y-11402336D02*
X16402963Y-11392812D01*
D12*
X11607900Y-11773900D02*
X11607900Y-11813900D01*
X11587900Y-11793900D02*
X11627900Y-11793900D01*
D11*
X11926772Y-11685384D02*
X11945820Y-11685384D01*
X11945820Y-11685384D02*
X11964867Y-11694908D01*
X11964867Y-11694908D02*
X11974391Y-11704431D01*
X11974391Y-11704431D02*
X11983915Y-11723479D01*
X11983915Y-11723479D02*
X11993439Y-11761574D01*
X11993439Y-11761574D02*
X11993439Y-11809193D01*
X11993439Y-11809193D02*
X11983915Y-11847288D01*
X11983915Y-11847288D02*
X11974391Y-11866336D01*
X11974391Y-11866336D02*
X11964867Y-11875860D01*
X11964867Y-11875860D02*
X11945820Y-11885384D01*
X11945820Y-11885384D02*
X11926772Y-11885384D01*
X11926772Y-11885384D02*
X11907724Y-11875860D01*
X11907724Y-11875860D02*
X11898201Y-11866336D01*
X11898201Y-11866336D02*
X11888677Y-11847288D01*
X11888677Y-11847288D02*
X11879153Y-11809193D01*
X11879153Y-11809193D02*
X11879153Y-11761574D01*
X11879153Y-11761574D02*
X11888677Y-11723479D01*
X11888677Y-11723479D02*
X11898201Y-11704431D01*
X11898201Y-11704431D02*
X11907724Y-11694908D01*
X11907724Y-11694908D02*
X11926772Y-11685384D01*
X12079153Y-11866336D02*
X12088677Y-11875860D01*
X12088677Y-11875860D02*
X12079153Y-11885384D01*
X12079153Y-11885384D02*
X12069629Y-11875860D01*
X12069629Y-11875860D02*
X12079153Y-11866336D01*
X12079153Y-11866336D02*
X12079153Y-11885384D01*
X12260105Y-11752050D02*
X12260105Y-11885384D01*
X12212486Y-11675860D02*
X12164867Y-11818717D01*
X12164867Y-11818717D02*
X12288677Y-11818717D01*
X12402962Y-11685384D02*
X12422010Y-11685384D01*
X12422010Y-11685384D02*
X12441058Y-11694908D01*
X12441058Y-11694908D02*
X12450582Y-11704431D01*
X12450582Y-11704431D02*
X12460105Y-11723479D01*
X12460105Y-11723479D02*
X12469629Y-11761574D01*
X12469629Y-11761574D02*
X12469629Y-11809193D01*
X12469629Y-11809193D02*
X12460105Y-11847288D01*
X12460105Y-11847288D02*
X12450582Y-11866336D01*
X12450582Y-11866336D02*
X12441058Y-11875860D01*
X12441058Y-11875860D02*
X12422010Y-11885384D01*
X12422010Y-11885384D02*
X12402962Y-11885384D01*
X12402962Y-11885384D02*
X12383915Y-11875860D01*
X12383915Y-11875860D02*
X12374391Y-11866336D01*
X12374391Y-11866336D02*
X12364867Y-11847288D01*
X12364867Y-11847288D02*
X12355343Y-11809193D01*
X12355343Y-11809193D02*
X12355343Y-11761574D01*
X12355343Y-11761574D02*
X12364867Y-11723479D01*
X12364867Y-11723479D02*
X12374391Y-11704431D01*
X12374391Y-11704431D02*
X12383915Y-11694908D01*
X12383915Y-11694908D02*
X12402962Y-11685384D01*
X12593439Y-11685384D02*
X12612486Y-11685384D01*
X12612486Y-11685384D02*
X12631534Y-11694908D01*
X12631534Y-11694908D02*
X12641058Y-11704431D01*
X12641058Y-11704431D02*
X12650582Y-11723479D01*
X12650582Y-11723479D02*
X12660105Y-11761574D01*
X12660105Y-11761574D02*
X12660105Y-11809193D01*
X12660105Y-11809193D02*
X12650582Y-11847288D01*
X12650582Y-11847288D02*
X12641058Y-11866336D01*
X12641058Y-11866336D02*
X12631534Y-11875860D01*
X12631534Y-11875860D02*
X12612486Y-11885384D01*
X12612486Y-11885384D02*
X12593439Y-11885384D01*
X12593439Y-11885384D02*
X12574391Y-11875860D01*
X12574391Y-11875860D02*
X12564867Y-11866336D01*
X12564867Y-11866336D02*
X12555343Y-11847288D01*
X12555343Y-11847288D02*
X12545820Y-11809193D01*
X12545820Y-11809193D02*
X12545820Y-11761574D01*
X12545820Y-11761574D02*
X12555343Y-11723479D01*
X12555343Y-11723479D02*
X12564867Y-11704431D01*
X12564867Y-11704431D02*
X12574391Y-11694908D01*
X12574391Y-11694908D02*
X12593439Y-11685384D01*
X12745820Y-11885384D02*
X12745820Y-11752050D01*
X12745820Y-11771098D02*
X12755343Y-11761574D01*
X12755343Y-11761574D02*
X12774391Y-11752050D01*
X12774391Y-11752050D02*
X12802963Y-11752050D01*
X12802963Y-11752050D02*
X12822010Y-11761574D01*
X12822010Y-11761574D02*
X12831534Y-11780622D01*
X12831534Y-11780622D02*
X12831534Y-11885384D01*
X12831534Y-11780622D02*
X12841058Y-11761574D01*
X12841058Y-11761574D02*
X12860105Y-11752050D01*
X12860105Y-11752050D02*
X12888677Y-11752050D01*
X12888677Y-11752050D02*
X12907724Y-11761574D01*
X12907724Y-11761574D02*
X12917248Y-11780622D01*
X12917248Y-11780622D02*
X12917248Y-11885384D01*
X13012486Y-11885384D02*
X13012486Y-11752050D01*
X13012486Y-11771098D02*
X13022010Y-11761574D01*
X13022010Y-11761574D02*
X13041058Y-11752050D01*
X13041058Y-11752050D02*
X13069629Y-11752050D01*
X13069629Y-11752050D02*
X13088677Y-11761574D01*
X13088677Y-11761574D02*
X13098201Y-11780622D01*
X13098201Y-11780622D02*
X13098201Y-11885384D01*
X13098201Y-11780622D02*
X13107724Y-11761574D01*
X13107724Y-11761574D02*
X13126772Y-11752050D01*
X13126772Y-11752050D02*
X13155343Y-11752050D01*
X13155343Y-11752050D02*
X13174391Y-11761574D01*
X13174391Y-11761574D02*
X13183915Y-11780622D01*
X13183915Y-11780622D02*
X13183915Y-11885384D01*
X13574391Y-11675860D02*
X13402963Y-11933003D01*
X13831534Y-11685384D02*
X13850582Y-11685384D01*
X13850582Y-11685384D02*
X13869629Y-11694908D01*
X13869629Y-11694908D02*
X13879153Y-11704431D01*
X13879153Y-11704431D02*
X13888677Y-11723479D01*
X13888677Y-11723479D02*
X13898201Y-11761574D01*
X13898201Y-11761574D02*
X13898201Y-11809193D01*
X13898201Y-11809193D02*
X13888677Y-11847288D01*
X13888677Y-11847288D02*
X13879153Y-11866336D01*
X13879153Y-11866336D02*
X13869629Y-11875860D01*
X13869629Y-11875860D02*
X13850582Y-11885384D01*
X13850582Y-11885384D02*
X13831534Y-11885384D01*
X13831534Y-11885384D02*
X13812486Y-11875860D01*
X13812486Y-11875860D02*
X13802963Y-11866336D01*
X13802963Y-11866336D02*
X13793439Y-11847288D01*
X13793439Y-11847288D02*
X13783915Y-11809193D01*
X13783915Y-11809193D02*
X13783915Y-11761574D01*
X13783915Y-11761574D02*
X13793439Y-11723479D01*
X13793439Y-11723479D02*
X13802963Y-11704431D01*
X13802963Y-11704431D02*
X13812486Y-11694908D01*
X13812486Y-11694908D02*
X13831534Y-11685384D01*
X13983915Y-11866336D02*
X13993439Y-11875860D01*
X13993439Y-11875860D02*
X13983915Y-11885384D01*
X13983915Y-11885384D02*
X13974391Y-11875860D01*
X13974391Y-11875860D02*
X13983915Y-11866336D01*
X13983915Y-11866336D02*
X13983915Y-11885384D01*
X14117248Y-11685384D02*
X14136296Y-11685384D01*
X14136296Y-11685384D02*
X14155344Y-11694908D01*
X14155344Y-11694908D02*
X14164867Y-11704431D01*
X14164867Y-11704431D02*
X14174391Y-11723479D01*
X14174391Y-11723479D02*
X14183915Y-11761574D01*
X14183915Y-11761574D02*
X14183915Y-11809193D01*
X14183915Y-11809193D02*
X14174391Y-11847288D01*
X14174391Y-11847288D02*
X14164867Y-11866336D01*
X14164867Y-11866336D02*
X14155344Y-11875860D01*
X14155344Y-11875860D02*
X14136296Y-11885384D01*
X14136296Y-11885384D02*
X14117248Y-11885384D01*
X14117248Y-11885384D02*
X14098201Y-11875860D01*
X14098201Y-11875860D02*
X14088677Y-11866336D01*
X14088677Y-11866336D02*
X14079153Y-11847288D01*
X14079153Y-11847288D02*
X14069629Y-11809193D01*
X14069629Y-11809193D02*
X14069629Y-11761574D01*
X14069629Y-11761574D02*
X14079153Y-11723479D01*
X14079153Y-11723479D02*
X14088677Y-11704431D01*
X14088677Y-11704431D02*
X14098201Y-11694908D01*
X14098201Y-11694908D02*
X14117248Y-11685384D01*
X14374391Y-11885384D02*
X14260106Y-11885384D01*
X14317248Y-11885384D02*
X14317248Y-11685384D01*
X14317248Y-11685384D02*
X14298201Y-11713955D01*
X14298201Y-11713955D02*
X14279153Y-11733003D01*
X14279153Y-11733003D02*
X14260106Y-11742527D01*
X14555344Y-11685384D02*
X14460106Y-11685384D01*
X14460106Y-11685384D02*
X14450582Y-11780622D01*
X14450582Y-11780622D02*
X14460106Y-11771098D01*
X14460106Y-11771098D02*
X14479153Y-11761574D01*
X14479153Y-11761574D02*
X14526772Y-11761574D01*
X14526772Y-11761574D02*
X14545820Y-11771098D01*
X14545820Y-11771098D02*
X14555344Y-11780622D01*
X14555344Y-11780622D02*
X14564867Y-11799669D01*
X14564867Y-11799669D02*
X14564867Y-11847288D01*
X14564867Y-11847288D02*
X14555344Y-11866336D01*
X14555344Y-11866336D02*
X14545820Y-11875860D01*
X14545820Y-11875860D02*
X14526772Y-11885384D01*
X14526772Y-11885384D02*
X14479153Y-11885384D01*
X14479153Y-11885384D02*
X14460106Y-11875860D01*
X14460106Y-11875860D02*
X14450582Y-11866336D01*
X14631534Y-11685384D02*
X14764867Y-11685384D01*
X14764867Y-11685384D02*
X14679153Y-11885384D01*
X14831534Y-11685384D02*
X14831534Y-11723479D01*
X14907725Y-11685384D02*
X14907725Y-11723479D01*
X15202963Y-11961574D02*
X15193439Y-11952050D01*
X15193439Y-11952050D02*
X15174391Y-11923479D01*
X15174391Y-11923479D02*
X15164868Y-11904431D01*
X15164868Y-11904431D02*
X15155344Y-11875860D01*
X15155344Y-11875860D02*
X15145820Y-11828241D01*
X15145820Y-11828241D02*
X15145820Y-11790146D01*
X15145820Y-11790146D02*
X15155344Y-11742527D01*
X15155344Y-11742527D02*
X15164868Y-11713955D01*
X15164868Y-11713955D02*
X15174391Y-11694908D01*
X15174391Y-11694908D02*
X15193439Y-11666336D01*
X15193439Y-11666336D02*
X15202963Y-11656812D01*
X15383915Y-11885384D02*
X15269629Y-11885384D01*
X15326772Y-11885384D02*
X15326772Y-11685384D01*
X15326772Y-11685384D02*
X15307725Y-11713955D01*
X15307725Y-11713955D02*
X15288677Y-11733003D01*
X15288677Y-11733003D02*
X15269629Y-11742527D01*
X15460106Y-11704431D02*
X15469629Y-11694908D01*
X15469629Y-11694908D02*
X15488677Y-11685384D01*
X15488677Y-11685384D02*
X15536296Y-11685384D01*
X15536296Y-11685384D02*
X15555344Y-11694908D01*
X15555344Y-11694908D02*
X15564868Y-11704431D01*
X15564868Y-11704431D02*
X15574391Y-11723479D01*
X15574391Y-11723479D02*
X15574391Y-11742527D01*
X15574391Y-11742527D02*
X15564868Y-11771098D01*
X15564868Y-11771098D02*
X15450582Y-11885384D01*
X15450582Y-11885384D02*
X15574391Y-11885384D01*
X15812487Y-11885384D02*
X15812487Y-11685384D01*
X15898201Y-11885384D02*
X15898201Y-11780622D01*
X15898201Y-11780622D02*
X15888677Y-11761574D01*
X15888677Y-11761574D02*
X15869630Y-11752050D01*
X15869630Y-11752050D02*
X15841058Y-11752050D01*
X15841058Y-11752050D02*
X15822010Y-11761574D01*
X15822010Y-11761574D02*
X15812487Y-11771098D01*
X16022010Y-11885384D02*
X16002963Y-11875860D01*
X16002963Y-11875860D02*
X15993439Y-11866336D01*
X15993439Y-11866336D02*
X15983915Y-11847288D01*
X15983915Y-11847288D02*
X15983915Y-11790146D01*
X15983915Y-11790146D02*
X15993439Y-11771098D01*
X15993439Y-11771098D02*
X16002963Y-11761574D01*
X16002963Y-11761574D02*
X16022010Y-11752050D01*
X16022010Y-11752050D02*
X16050582Y-11752050D01*
X16050582Y-11752050D02*
X16069630Y-11761574D01*
X16069630Y-11761574D02*
X16079153Y-11771098D01*
X16079153Y-11771098D02*
X16088677Y-11790146D01*
X16088677Y-11790146D02*
X16088677Y-11847288D01*
X16088677Y-11847288D02*
X16079153Y-11866336D01*
X16079153Y-11866336D02*
X16069630Y-11875860D01*
X16069630Y-11875860D02*
X16050582Y-11885384D01*
X16050582Y-11885384D02*
X16022010Y-11885384D01*
X16202963Y-11885384D02*
X16183915Y-11875860D01*
X16183915Y-11875860D02*
X16174391Y-11856812D01*
X16174391Y-11856812D02*
X16174391Y-11685384D01*
X16355344Y-11875860D02*
X16336296Y-11885384D01*
X16336296Y-11885384D02*
X16298201Y-11885384D01*
X16298201Y-11885384D02*
X16279153Y-11875860D01*
X16279153Y-11875860D02*
X16269630Y-11856812D01*
X16269630Y-11856812D02*
X16269630Y-11780622D01*
X16269630Y-11780622D02*
X16279153Y-11761574D01*
X16279153Y-11761574D02*
X16298201Y-11752050D01*
X16298201Y-11752050D02*
X16336296Y-11752050D01*
X16336296Y-11752050D02*
X16355344Y-11761574D01*
X16355344Y-11761574D02*
X16364868Y-11780622D01*
X16364868Y-11780622D02*
X16364868Y-11799669D01*
X16364868Y-11799669D02*
X16269630Y-11818717D01*
X16441058Y-11875860D02*
X16460106Y-11885384D01*
X16460106Y-11885384D02*
X16498201Y-11885384D01*
X16498201Y-11885384D02*
X16517249Y-11875860D01*
X16517249Y-11875860D02*
X16526772Y-11856812D01*
X16526772Y-11856812D02*
X16526772Y-11847288D01*
X16526772Y-11847288D02*
X16517249Y-11828241D01*
X16517249Y-11828241D02*
X16498201Y-11818717D01*
X16498201Y-11818717D02*
X16469630Y-11818717D01*
X16469630Y-11818717D02*
X16450582Y-11809193D01*
X16450582Y-11809193D02*
X16441058Y-11790146D01*
X16441058Y-11790146D02*
X16441058Y-11780622D01*
X16441058Y-11780622D02*
X16450582Y-11761574D01*
X16450582Y-11761574D02*
X16469630Y-11752050D01*
X16469630Y-11752050D02*
X16498201Y-11752050D01*
X16498201Y-11752050D02*
X16517249Y-11761574D01*
X16593439Y-11961574D02*
X16602963Y-11952050D01*
X16602963Y-11952050D02*
X16622011Y-11923479D01*
X16622011Y-11923479D02*
X16631534Y-11904431D01*
X16631534Y-11904431D02*
X16641058Y-11875860D01*
X16641058Y-11875860D02*
X16650582Y-11828241D01*
X16650582Y-11828241D02*
X16650582Y-11790146D01*
X16650582Y-11790146D02*
X16641058Y-11742527D01*
X16641058Y-11742527D02*
X16631534Y-11713955D01*
X16631534Y-11713955D02*
X16622011Y-11694908D01*
X16622011Y-11694908D02*
X16602963Y-11666336D01*
X16602963Y-11666336D02*
X16593439Y-11656812D01*
D12*
X11617649Y-12082650D02*
X11617649Y-12033150D01*
X11568149Y-12033150D01*
X11568149Y-12082650D01*
X11617649Y-12082650D01*
D11*
X11926772Y-11949384D02*
X11945820Y-11949384D01*
X11945820Y-11949384D02*
X11964867Y-11958908D01*
X11964867Y-11958908D02*
X11974391Y-11968431D01*
X11974391Y-11968431D02*
X11983915Y-11987479D01*
X11983915Y-11987479D02*
X11993439Y-12025574D01*
X11993439Y-12025574D02*
X11993439Y-12073193D01*
X11993439Y-12073193D02*
X11983915Y-12111288D01*
X11983915Y-12111288D02*
X11974391Y-12130336D01*
X11974391Y-12130336D02*
X11964867Y-12139860D01*
X11964867Y-12139860D02*
X11945820Y-12149384D01*
X11945820Y-12149384D02*
X11926772Y-12149384D01*
X11926772Y-12149384D02*
X11907724Y-12139860D01*
X11907724Y-12139860D02*
X11898201Y-12130336D01*
X11898201Y-12130336D02*
X11888677Y-12111288D01*
X11888677Y-12111288D02*
X11879153Y-12073193D01*
X11879153Y-12073193D02*
X11879153Y-12025574D01*
X11879153Y-12025574D02*
X11888677Y-11987479D01*
X11888677Y-11987479D02*
X11898201Y-11968431D01*
X11898201Y-11968431D02*
X11907724Y-11958908D01*
X11907724Y-11958908D02*
X11926772Y-11949384D01*
X12079153Y-12130336D02*
X12088677Y-12139860D01*
X12088677Y-12139860D02*
X12079153Y-12149384D01*
X12079153Y-12149384D02*
X12069629Y-12139860D01*
X12069629Y-12139860D02*
X12079153Y-12130336D01*
X12079153Y-12130336D02*
X12079153Y-12149384D01*
X12155343Y-11949384D02*
X12288677Y-11949384D01*
X12288677Y-11949384D02*
X12202962Y-12149384D01*
X12402962Y-11949384D02*
X12422010Y-11949384D01*
X12422010Y-11949384D02*
X12441058Y-11958908D01*
X12441058Y-11958908D02*
X12450582Y-11968431D01*
X12450582Y-11968431D02*
X12460105Y-11987479D01*
X12460105Y-11987479D02*
X12469629Y-12025574D01*
X12469629Y-12025574D02*
X12469629Y-12073193D01*
X12469629Y-12073193D02*
X12460105Y-12111288D01*
X12460105Y-12111288D02*
X12450582Y-12130336D01*
X12450582Y-12130336D02*
X12441058Y-12139860D01*
X12441058Y-12139860D02*
X12422010Y-12149384D01*
X12422010Y-12149384D02*
X12402962Y-12149384D01*
X12402962Y-12149384D02*
X12383915Y-12139860D01*
X12383915Y-12139860D02*
X12374391Y-12130336D01*
X12374391Y-12130336D02*
X12364867Y-12111288D01*
X12364867Y-12111288D02*
X12355343Y-12073193D01*
X12355343Y-12073193D02*
X12355343Y-12025574D01*
X12355343Y-12025574D02*
X12364867Y-11987479D01*
X12364867Y-11987479D02*
X12374391Y-11968431D01*
X12374391Y-11968431D02*
X12383915Y-11958908D01*
X12383915Y-11958908D02*
X12402962Y-11949384D01*
X12593439Y-11949384D02*
X12612486Y-11949384D01*
X12612486Y-11949384D02*
X12631534Y-11958908D01*
X12631534Y-11958908D02*
X12641058Y-11968431D01*
X12641058Y-11968431D02*
X12650582Y-11987479D01*
X12650582Y-11987479D02*
X12660105Y-12025574D01*
X12660105Y-12025574D02*
X12660105Y-12073193D01*
X12660105Y-12073193D02*
X12650582Y-12111288D01*
X12650582Y-12111288D02*
X12641058Y-12130336D01*
X12641058Y-12130336D02*
X12631534Y-12139860D01*
X12631534Y-12139860D02*
X12612486Y-12149384D01*
X12612486Y-12149384D02*
X12593439Y-12149384D01*
X12593439Y-12149384D02*
X12574391Y-12139860D01*
X12574391Y-12139860D02*
X12564867Y-12130336D01*
X12564867Y-12130336D02*
X12555343Y-12111288D01*
X12555343Y-12111288D02*
X12545820Y-12073193D01*
X12545820Y-12073193D02*
X12545820Y-12025574D01*
X12545820Y-12025574D02*
X12555343Y-11987479D01*
X12555343Y-11987479D02*
X12564867Y-11968431D01*
X12564867Y-11968431D02*
X12574391Y-11958908D01*
X12574391Y-11958908D02*
X12593439Y-11949384D01*
X12745820Y-12149384D02*
X12745820Y-12016050D01*
X12745820Y-12035098D02*
X12755343Y-12025574D01*
X12755343Y-12025574D02*
X12774391Y-12016050D01*
X12774391Y-12016050D02*
X12802963Y-12016050D01*
X12802963Y-12016050D02*
X12822010Y-12025574D01*
X12822010Y-12025574D02*
X12831534Y-12044622D01*
X12831534Y-12044622D02*
X12831534Y-12149384D01*
X12831534Y-12044622D02*
X12841058Y-12025574D01*
X12841058Y-12025574D02*
X12860105Y-12016050D01*
X12860105Y-12016050D02*
X12888677Y-12016050D01*
X12888677Y-12016050D02*
X12907724Y-12025574D01*
X12907724Y-12025574D02*
X12917248Y-12044622D01*
X12917248Y-12044622D02*
X12917248Y-12149384D01*
X13012486Y-12149384D02*
X13012486Y-12016050D01*
X13012486Y-12035098D02*
X13022010Y-12025574D01*
X13022010Y-12025574D02*
X13041058Y-12016050D01*
X13041058Y-12016050D02*
X13069629Y-12016050D01*
X13069629Y-12016050D02*
X13088677Y-12025574D01*
X13088677Y-12025574D02*
X13098201Y-12044622D01*
X13098201Y-12044622D02*
X13098201Y-12149384D01*
X13098201Y-12044622D02*
X13107724Y-12025574D01*
X13107724Y-12025574D02*
X13126772Y-12016050D01*
X13126772Y-12016050D02*
X13155343Y-12016050D01*
X13155343Y-12016050D02*
X13174391Y-12025574D01*
X13174391Y-12025574D02*
X13183915Y-12044622D01*
X13183915Y-12044622D02*
X13183915Y-12149384D01*
X13574391Y-11939860D02*
X13402963Y-12197003D01*
X13831534Y-11949384D02*
X13850582Y-11949384D01*
X13850582Y-11949384D02*
X13869629Y-11958908D01*
X13869629Y-11958908D02*
X13879153Y-11968431D01*
X13879153Y-11968431D02*
X13888677Y-11987479D01*
X13888677Y-11987479D02*
X13898201Y-12025574D01*
X13898201Y-12025574D02*
X13898201Y-12073193D01*
X13898201Y-12073193D02*
X13888677Y-12111288D01*
X13888677Y-12111288D02*
X13879153Y-12130336D01*
X13879153Y-12130336D02*
X13869629Y-12139860D01*
X13869629Y-12139860D02*
X13850582Y-12149384D01*
X13850582Y-12149384D02*
X13831534Y-12149384D01*
X13831534Y-12149384D02*
X13812486Y-12139860D01*
X13812486Y-12139860D02*
X13802963Y-12130336D01*
X13802963Y-12130336D02*
X13793439Y-12111288D01*
X13793439Y-12111288D02*
X13783915Y-12073193D01*
X13783915Y-12073193D02*
X13783915Y-12025574D01*
X13783915Y-12025574D02*
X13793439Y-11987479D01*
X13793439Y-11987479D02*
X13802963Y-11968431D01*
X13802963Y-11968431D02*
X13812486Y-11958908D01*
X13812486Y-11958908D02*
X13831534Y-11949384D01*
X13983915Y-12130336D02*
X13993439Y-12139860D01*
X13993439Y-12139860D02*
X13983915Y-12149384D01*
X13983915Y-12149384D02*
X13974391Y-12139860D01*
X13974391Y-12139860D02*
X13983915Y-12130336D01*
X13983915Y-12130336D02*
X13983915Y-12149384D01*
X14117248Y-11949384D02*
X14136296Y-11949384D01*
X14136296Y-11949384D02*
X14155344Y-11958908D01*
X14155344Y-11958908D02*
X14164867Y-11968431D01*
X14164867Y-11968431D02*
X14174391Y-11987479D01*
X14174391Y-11987479D02*
X14183915Y-12025574D01*
X14183915Y-12025574D02*
X14183915Y-12073193D01*
X14183915Y-12073193D02*
X14174391Y-12111288D01*
X14174391Y-12111288D02*
X14164867Y-12130336D01*
X14164867Y-12130336D02*
X14155344Y-12139860D01*
X14155344Y-12139860D02*
X14136296Y-12149384D01*
X14136296Y-12149384D02*
X14117248Y-12149384D01*
X14117248Y-12149384D02*
X14098201Y-12139860D01*
X14098201Y-12139860D02*
X14088677Y-12130336D01*
X14088677Y-12130336D02*
X14079153Y-12111288D01*
X14079153Y-12111288D02*
X14069629Y-12073193D01*
X14069629Y-12073193D02*
X14069629Y-12025574D01*
X14069629Y-12025574D02*
X14079153Y-11987479D01*
X14079153Y-11987479D02*
X14088677Y-11968431D01*
X14088677Y-11968431D02*
X14098201Y-11958908D01*
X14098201Y-11958908D02*
X14117248Y-11949384D01*
X14260106Y-11968431D02*
X14269629Y-11958908D01*
X14269629Y-11958908D02*
X14288677Y-11949384D01*
X14288677Y-11949384D02*
X14336296Y-11949384D01*
X14336296Y-11949384D02*
X14355344Y-11958908D01*
X14355344Y-11958908D02*
X14364867Y-11968431D01*
X14364867Y-11968431D02*
X14374391Y-11987479D01*
X14374391Y-11987479D02*
X14374391Y-12006527D01*
X14374391Y-12006527D02*
X14364867Y-12035098D01*
X14364867Y-12035098D02*
X14250582Y-12149384D01*
X14250582Y-12149384D02*
X14374391Y-12149384D01*
X14441058Y-11949384D02*
X14574391Y-11949384D01*
X14574391Y-11949384D02*
X14488677Y-12149384D01*
X14736296Y-11949384D02*
X14698201Y-11949384D01*
X14698201Y-11949384D02*
X14679153Y-11958908D01*
X14679153Y-11958908D02*
X14669629Y-11968431D01*
X14669629Y-11968431D02*
X14650582Y-11997003D01*
X14650582Y-11997003D02*
X14641058Y-12035098D01*
X14641058Y-12035098D02*
X14641058Y-12111288D01*
X14641058Y-12111288D02*
X14650582Y-12130336D01*
X14650582Y-12130336D02*
X14660106Y-12139860D01*
X14660106Y-12139860D02*
X14679153Y-12149384D01*
X14679153Y-12149384D02*
X14717248Y-12149384D01*
X14717248Y-12149384D02*
X14736296Y-12139860D01*
X14736296Y-12139860D02*
X14745820Y-12130336D01*
X14745820Y-12130336D02*
X14755344Y-12111288D01*
X14755344Y-12111288D02*
X14755344Y-12063669D01*
X14755344Y-12063669D02*
X14745820Y-12044622D01*
X14745820Y-12044622D02*
X14736296Y-12035098D01*
X14736296Y-12035098D02*
X14717248Y-12025574D01*
X14717248Y-12025574D02*
X14679153Y-12025574D01*
X14679153Y-12025574D02*
X14660106Y-12035098D01*
X14660106Y-12035098D02*
X14650582Y-12044622D01*
X14650582Y-12044622D02*
X14641058Y-12063669D01*
X14831534Y-11949384D02*
X14831534Y-11987479D01*
X14907725Y-11949384D02*
X14907725Y-11987479D01*
X15202963Y-12225574D02*
X15193439Y-12216050D01*
X15193439Y-12216050D02*
X15174391Y-12187479D01*
X15174391Y-12187479D02*
X15164868Y-12168431D01*
X15164868Y-12168431D02*
X15155344Y-12139860D01*
X15155344Y-12139860D02*
X15145820Y-12092241D01*
X15145820Y-12092241D02*
X15145820Y-12054146D01*
X15145820Y-12054146D02*
X15155344Y-12006527D01*
X15155344Y-12006527D02*
X15164868Y-11977955D01*
X15164868Y-11977955D02*
X15174391Y-11958908D01*
X15174391Y-11958908D02*
X15193439Y-11930336D01*
X15193439Y-11930336D02*
X15202963Y-11920812D01*
X15317248Y-11949384D02*
X15336296Y-11949384D01*
X15336296Y-11949384D02*
X15355344Y-11958908D01*
X15355344Y-11958908D02*
X15364868Y-11968431D01*
X15364868Y-11968431D02*
X15374391Y-11987479D01*
X15374391Y-11987479D02*
X15383915Y-12025574D01*
X15383915Y-12025574D02*
X15383915Y-12073193D01*
X15383915Y-12073193D02*
X15374391Y-12111288D01*
X15374391Y-12111288D02*
X15364868Y-12130336D01*
X15364868Y-12130336D02*
X15355344Y-12139860D01*
X15355344Y-12139860D02*
X15336296Y-12149384D01*
X15336296Y-12149384D02*
X15317248Y-12149384D01*
X15317248Y-12149384D02*
X15298201Y-12139860D01*
X15298201Y-12139860D02*
X15288677Y-12130336D01*
X15288677Y-12130336D02*
X15279153Y-12111288D01*
X15279153Y-12111288D02*
X15269629Y-12073193D01*
X15269629Y-12073193D02*
X15269629Y-12025574D01*
X15269629Y-12025574D02*
X15279153Y-11987479D01*
X15279153Y-11987479D02*
X15288677Y-11968431D01*
X15288677Y-11968431D02*
X15298201Y-11958908D01*
X15298201Y-11958908D02*
X15317248Y-11949384D01*
X15622010Y-12149384D02*
X15622010Y-11949384D01*
X15707725Y-12149384D02*
X15707725Y-12044622D01*
X15707725Y-12044622D02*
X15698201Y-12025574D01*
X15698201Y-12025574D02*
X15679153Y-12016050D01*
X15679153Y-12016050D02*
X15650582Y-12016050D01*
X15650582Y-12016050D02*
X15631534Y-12025574D01*
X15631534Y-12025574D02*
X15622010Y-12035098D01*
X15831534Y-12149384D02*
X15812487Y-12139860D01*
X15812487Y-12139860D02*
X15802963Y-12130336D01*
X15802963Y-12130336D02*
X15793439Y-12111288D01*
X15793439Y-12111288D02*
X15793439Y-12054146D01*
X15793439Y-12054146D02*
X15802963Y-12035098D01*
X15802963Y-12035098D02*
X15812487Y-12025574D01*
X15812487Y-12025574D02*
X15831534Y-12016050D01*
X15831534Y-12016050D02*
X15860106Y-12016050D01*
X15860106Y-12016050D02*
X15879153Y-12025574D01*
X15879153Y-12025574D02*
X15888677Y-12035098D01*
X15888677Y-12035098D02*
X15898201Y-12054146D01*
X15898201Y-12054146D02*
X15898201Y-12111288D01*
X15898201Y-12111288D02*
X15888677Y-12130336D01*
X15888677Y-12130336D02*
X15879153Y-12139860D01*
X15879153Y-12139860D02*
X15860106Y-12149384D01*
X15860106Y-12149384D02*
X15831534Y-12149384D01*
X16012487Y-12149384D02*
X15993439Y-12139860D01*
X15993439Y-12139860D02*
X15983915Y-12120812D01*
X15983915Y-12120812D02*
X15983915Y-11949384D01*
X16164868Y-12139860D02*
X16145820Y-12149384D01*
X16145820Y-12149384D02*
X16107725Y-12149384D01*
X16107725Y-12149384D02*
X16088677Y-12139860D01*
X16088677Y-12139860D02*
X16079153Y-12120812D01*
X16079153Y-12120812D02*
X16079153Y-12044622D01*
X16079153Y-12044622D02*
X16088677Y-12025574D01*
X16088677Y-12025574D02*
X16107725Y-12016050D01*
X16107725Y-12016050D02*
X16145820Y-12016050D01*
X16145820Y-12016050D02*
X16164868Y-12025574D01*
X16164868Y-12025574D02*
X16174391Y-12044622D01*
X16174391Y-12044622D02*
X16174391Y-12063669D01*
X16174391Y-12063669D02*
X16079153Y-12082717D01*
X16250582Y-12139860D02*
X16269630Y-12149384D01*
X16269630Y-12149384D02*
X16307725Y-12149384D01*
X16307725Y-12149384D02*
X16326772Y-12139860D01*
X16326772Y-12139860D02*
X16336296Y-12120812D01*
X16336296Y-12120812D02*
X16336296Y-12111288D01*
X16336296Y-12111288D02*
X16326772Y-12092241D01*
X16326772Y-12092241D02*
X16307725Y-12082717D01*
X16307725Y-12082717D02*
X16279153Y-12082717D01*
X16279153Y-12082717D02*
X16260106Y-12073193D01*
X16260106Y-12073193D02*
X16250582Y-12054146D01*
X16250582Y-12054146D02*
X16250582Y-12044622D01*
X16250582Y-12044622D02*
X16260106Y-12025574D01*
X16260106Y-12025574D02*
X16279153Y-12016050D01*
X16279153Y-12016050D02*
X16307725Y-12016050D01*
X16307725Y-12016050D02*
X16326772Y-12025574D01*
X16574392Y-12073193D02*
X16726773Y-12073193D01*
X16650582Y-12149384D02*
X16650582Y-11997003D01*
X17060106Y-12016050D02*
X17060106Y-12149384D01*
X17012487Y-11939860D02*
X16964868Y-12082717D01*
X16964868Y-12082717D02*
X17088677Y-12082717D01*
X17307725Y-12139860D02*
X17326773Y-12149384D01*
X17326773Y-12149384D02*
X17364868Y-12149384D01*
X17364868Y-12149384D02*
X17383916Y-12139860D01*
X17383916Y-12139860D02*
X17393439Y-12120812D01*
X17393439Y-12120812D02*
X17393439Y-12111288D01*
X17393439Y-12111288D02*
X17383916Y-12092241D01*
X17383916Y-12092241D02*
X17364868Y-12082717D01*
X17364868Y-12082717D02*
X17336296Y-12082717D01*
X17336296Y-12082717D02*
X17317249Y-12073193D01*
X17317249Y-12073193D02*
X17307725Y-12054146D01*
X17307725Y-12054146D02*
X17307725Y-12044622D01*
X17307725Y-12044622D02*
X17317249Y-12025574D01*
X17317249Y-12025574D02*
X17336296Y-12016050D01*
X17336296Y-12016050D02*
X17364868Y-12016050D01*
X17364868Y-12016050D02*
X17383916Y-12025574D01*
X17507725Y-12149384D02*
X17488677Y-12139860D01*
X17488677Y-12139860D02*
X17479154Y-12120812D01*
X17479154Y-12120812D02*
X17479154Y-11949384D01*
X17612487Y-12149384D02*
X17593439Y-12139860D01*
X17593439Y-12139860D02*
X17583916Y-12130336D01*
X17583916Y-12130336D02*
X17574392Y-12111288D01*
X17574392Y-12111288D02*
X17574392Y-12054146D01*
X17574392Y-12054146D02*
X17583916Y-12035098D01*
X17583916Y-12035098D02*
X17593439Y-12025574D01*
X17593439Y-12025574D02*
X17612487Y-12016050D01*
X17612487Y-12016050D02*
X17641058Y-12016050D01*
X17641058Y-12016050D02*
X17660106Y-12025574D01*
X17660106Y-12025574D02*
X17669630Y-12035098D01*
X17669630Y-12035098D02*
X17679154Y-12054146D01*
X17679154Y-12054146D02*
X17679154Y-12111288D01*
X17679154Y-12111288D02*
X17669630Y-12130336D01*
X17669630Y-12130336D02*
X17660106Y-12139860D01*
X17660106Y-12139860D02*
X17641058Y-12149384D01*
X17641058Y-12149384D02*
X17612487Y-12149384D01*
X17736297Y-12016050D02*
X17812487Y-12016050D01*
X17764868Y-11949384D02*
X17764868Y-12120812D01*
X17764868Y-12120812D02*
X17774392Y-12139860D01*
X17774392Y-12139860D02*
X17793439Y-12149384D01*
X17793439Y-12149384D02*
X17812487Y-12149384D01*
X17869630Y-12139860D02*
X17888677Y-12149384D01*
X17888677Y-12149384D02*
X17926773Y-12149384D01*
X17926773Y-12149384D02*
X17945820Y-12139860D01*
X17945820Y-12139860D02*
X17955344Y-12120812D01*
X17955344Y-12120812D02*
X17955344Y-12111288D01*
X17955344Y-12111288D02*
X17945820Y-12092241D01*
X17945820Y-12092241D02*
X17926773Y-12082717D01*
X17926773Y-12082717D02*
X17898201Y-12082717D01*
X17898201Y-12082717D02*
X17879154Y-12073193D01*
X17879154Y-12073193D02*
X17869630Y-12054146D01*
X17869630Y-12054146D02*
X17869630Y-12044622D01*
X17869630Y-12044622D02*
X17879154Y-12025574D01*
X17879154Y-12025574D02*
X17898201Y-12016050D01*
X17898201Y-12016050D02*
X17926773Y-12016050D01*
X17926773Y-12016050D02*
X17945820Y-12025574D01*
X18022011Y-12225574D02*
X18031535Y-12216050D01*
X18031535Y-12216050D02*
X18050582Y-12187479D01*
X18050582Y-12187479D02*
X18060106Y-12168431D01*
X18060106Y-12168431D02*
X18069630Y-12139860D01*
X18069630Y-12139860D02*
X18079154Y-12092241D01*
X18079154Y-12092241D02*
X18079154Y-12054146D01*
X18079154Y-12054146D02*
X18069630Y-12006527D01*
X18069630Y-12006527D02*
X18060106Y-11977955D01*
X18060106Y-11977955D02*
X18050582Y-11958908D01*
X18050582Y-11958908D02*
X18031535Y-11930336D01*
X18031535Y-11930336D02*
X18022011Y-11920812D01*
D12*
X11592400Y-12357400D02*
X11627900Y-12321900D01*
X11592400Y-12286400D01*
X11556900Y-12321900D01*
X11592400Y-12357400D01*
D11*
X11926772Y-12213384D02*
X11945820Y-12213384D01*
X11945820Y-12213384D02*
X11964867Y-12222908D01*
X11964867Y-12222908D02*
X11974391Y-12232431D01*
X11974391Y-12232431D02*
X11983915Y-12251479D01*
X11983915Y-12251479D02*
X11993439Y-12289574D01*
X11993439Y-12289574D02*
X11993439Y-12337193D01*
X11993439Y-12337193D02*
X11983915Y-12375288D01*
X11983915Y-12375288D02*
X11974391Y-12394336D01*
X11974391Y-12394336D02*
X11964867Y-12403860D01*
X11964867Y-12403860D02*
X11945820Y-12413384D01*
X11945820Y-12413384D02*
X11926772Y-12413384D01*
X11926772Y-12413384D02*
X11907724Y-12403860D01*
X11907724Y-12403860D02*
X11898201Y-12394336D01*
X11898201Y-12394336D02*
X11888677Y-12375288D01*
X11888677Y-12375288D02*
X11879153Y-12337193D01*
X11879153Y-12337193D02*
X11879153Y-12289574D01*
X11879153Y-12289574D02*
X11888677Y-12251479D01*
X11888677Y-12251479D02*
X11898201Y-12232431D01*
X11898201Y-12232431D02*
X11907724Y-12222908D01*
X11907724Y-12222908D02*
X11926772Y-12213384D01*
X12079153Y-12394336D02*
X12088677Y-12403860D01*
X12088677Y-12403860D02*
X12079153Y-12413384D01*
X12079153Y-12413384D02*
X12069629Y-12403860D01*
X12069629Y-12403860D02*
X12079153Y-12394336D01*
X12079153Y-12394336D02*
X12079153Y-12413384D01*
X12155343Y-12213384D02*
X12288677Y-12213384D01*
X12288677Y-12213384D02*
X12202962Y-12413384D01*
X12469629Y-12413384D02*
X12355343Y-12413384D01*
X12412486Y-12413384D02*
X12412486Y-12213384D01*
X12412486Y-12213384D02*
X12393439Y-12241955D01*
X12393439Y-12241955D02*
X12374391Y-12261003D01*
X12374391Y-12261003D02*
X12355343Y-12270527D01*
X12593439Y-12213384D02*
X12612486Y-12213384D01*
X12612486Y-12213384D02*
X12631534Y-12222908D01*
X12631534Y-12222908D02*
X12641058Y-12232431D01*
X12641058Y-12232431D02*
X12650582Y-12251479D01*
X12650582Y-12251479D02*
X12660105Y-12289574D01*
X12660105Y-12289574D02*
X12660105Y-12337193D01*
X12660105Y-12337193D02*
X12650582Y-12375288D01*
X12650582Y-12375288D02*
X12641058Y-12394336D01*
X12641058Y-12394336D02*
X12631534Y-12403860D01*
X12631534Y-12403860D02*
X12612486Y-12413384D01*
X12612486Y-12413384D02*
X12593439Y-12413384D01*
X12593439Y-12413384D02*
X12574391Y-12403860D01*
X12574391Y-12403860D02*
X12564867Y-12394336D01*
X12564867Y-12394336D02*
X12555343Y-12375288D01*
X12555343Y-12375288D02*
X12545820Y-12337193D01*
X12545820Y-12337193D02*
X12545820Y-12289574D01*
X12545820Y-12289574D02*
X12555343Y-12251479D01*
X12555343Y-12251479D02*
X12564867Y-12232431D01*
X12564867Y-12232431D02*
X12574391Y-12222908D01*
X12574391Y-12222908D02*
X12593439Y-12213384D01*
X12745820Y-12413384D02*
X12745820Y-12280050D01*
X12745820Y-12299098D02*
X12755343Y-12289574D01*
X12755343Y-12289574D02*
X12774391Y-12280050D01*
X12774391Y-12280050D02*
X12802963Y-12280050D01*
X12802963Y-12280050D02*
X12822010Y-12289574D01*
X12822010Y-12289574D02*
X12831534Y-12308622D01*
X12831534Y-12308622D02*
X12831534Y-12413384D01*
X12831534Y-12308622D02*
X12841058Y-12289574D01*
X12841058Y-12289574D02*
X12860105Y-12280050D01*
X12860105Y-12280050D02*
X12888677Y-12280050D01*
X12888677Y-12280050D02*
X12907724Y-12289574D01*
X12907724Y-12289574D02*
X12917248Y-12308622D01*
X12917248Y-12308622D02*
X12917248Y-12413384D01*
X13012486Y-12413384D02*
X13012486Y-12280050D01*
X13012486Y-12299098D02*
X13022010Y-12289574D01*
X13022010Y-12289574D02*
X13041058Y-12280050D01*
X13041058Y-12280050D02*
X13069629Y-12280050D01*
X13069629Y-12280050D02*
X13088677Y-12289574D01*
X13088677Y-12289574D02*
X13098201Y-12308622D01*
X13098201Y-12308622D02*
X13098201Y-12413384D01*
X13098201Y-12308622D02*
X13107724Y-12289574D01*
X13107724Y-12289574D02*
X13126772Y-12280050D01*
X13126772Y-12280050D02*
X13155343Y-12280050D01*
X13155343Y-12280050D02*
X13174391Y-12289574D01*
X13174391Y-12289574D02*
X13183915Y-12308622D01*
X13183915Y-12308622D02*
X13183915Y-12413384D01*
X13574391Y-12203860D02*
X13402963Y-12461003D01*
X13831534Y-12213384D02*
X13850582Y-12213384D01*
X13850582Y-12213384D02*
X13869629Y-12222908D01*
X13869629Y-12222908D02*
X13879153Y-12232431D01*
X13879153Y-12232431D02*
X13888677Y-12251479D01*
X13888677Y-12251479D02*
X13898201Y-12289574D01*
X13898201Y-12289574D02*
X13898201Y-12337193D01*
X13898201Y-12337193D02*
X13888677Y-12375288D01*
X13888677Y-12375288D02*
X13879153Y-12394336D01*
X13879153Y-12394336D02*
X13869629Y-12403860D01*
X13869629Y-12403860D02*
X13850582Y-12413384D01*
X13850582Y-12413384D02*
X13831534Y-12413384D01*
X13831534Y-12413384D02*
X13812486Y-12403860D01*
X13812486Y-12403860D02*
X13802963Y-12394336D01*
X13802963Y-12394336D02*
X13793439Y-12375288D01*
X13793439Y-12375288D02*
X13783915Y-12337193D01*
X13783915Y-12337193D02*
X13783915Y-12289574D01*
X13783915Y-12289574D02*
X13793439Y-12251479D01*
X13793439Y-12251479D02*
X13802963Y-12232431D01*
X13802963Y-12232431D02*
X13812486Y-12222908D01*
X13812486Y-12222908D02*
X13831534Y-12213384D01*
X13983915Y-12394336D02*
X13993439Y-12403860D01*
X13993439Y-12403860D02*
X13983915Y-12413384D01*
X13983915Y-12413384D02*
X13974391Y-12403860D01*
X13974391Y-12403860D02*
X13983915Y-12394336D01*
X13983915Y-12394336D02*
X13983915Y-12413384D01*
X14117248Y-12213384D02*
X14136296Y-12213384D01*
X14136296Y-12213384D02*
X14155344Y-12222908D01*
X14155344Y-12222908D02*
X14164867Y-12232431D01*
X14164867Y-12232431D02*
X14174391Y-12251479D01*
X14174391Y-12251479D02*
X14183915Y-12289574D01*
X14183915Y-12289574D02*
X14183915Y-12337193D01*
X14183915Y-12337193D02*
X14174391Y-12375288D01*
X14174391Y-12375288D02*
X14164867Y-12394336D01*
X14164867Y-12394336D02*
X14155344Y-12403860D01*
X14155344Y-12403860D02*
X14136296Y-12413384D01*
X14136296Y-12413384D02*
X14117248Y-12413384D01*
X14117248Y-12413384D02*
X14098201Y-12403860D01*
X14098201Y-12403860D02*
X14088677Y-12394336D01*
X14088677Y-12394336D02*
X14079153Y-12375288D01*
X14079153Y-12375288D02*
X14069629Y-12337193D01*
X14069629Y-12337193D02*
X14069629Y-12289574D01*
X14069629Y-12289574D02*
X14079153Y-12251479D01*
X14079153Y-12251479D02*
X14088677Y-12232431D01*
X14088677Y-12232431D02*
X14098201Y-12222908D01*
X14098201Y-12222908D02*
X14117248Y-12213384D01*
X14260106Y-12232431D02*
X14269629Y-12222908D01*
X14269629Y-12222908D02*
X14288677Y-12213384D01*
X14288677Y-12213384D02*
X14336296Y-12213384D01*
X14336296Y-12213384D02*
X14355344Y-12222908D01*
X14355344Y-12222908D02*
X14364867Y-12232431D01*
X14364867Y-12232431D02*
X14374391Y-12251479D01*
X14374391Y-12251479D02*
X14374391Y-12270527D01*
X14374391Y-12270527D02*
X14364867Y-12299098D01*
X14364867Y-12299098D02*
X14250582Y-12413384D01*
X14250582Y-12413384D02*
X14374391Y-12413384D01*
X14488677Y-12299098D02*
X14469629Y-12289574D01*
X14469629Y-12289574D02*
X14460106Y-12280050D01*
X14460106Y-12280050D02*
X14450582Y-12261003D01*
X14450582Y-12261003D02*
X14450582Y-12251479D01*
X14450582Y-12251479D02*
X14460106Y-12232431D01*
X14460106Y-12232431D02*
X14469629Y-12222908D01*
X14469629Y-12222908D02*
X14488677Y-12213384D01*
X14488677Y-12213384D02*
X14526772Y-12213384D01*
X14526772Y-12213384D02*
X14545820Y-12222908D01*
X14545820Y-12222908D02*
X14555344Y-12232431D01*
X14555344Y-12232431D02*
X14564867Y-12251479D01*
X14564867Y-12251479D02*
X14564867Y-12261003D01*
X14564867Y-12261003D02*
X14555344Y-12280050D01*
X14555344Y-12280050D02*
X14545820Y-12289574D01*
X14545820Y-12289574D02*
X14526772Y-12299098D01*
X14526772Y-12299098D02*
X14488677Y-12299098D01*
X14488677Y-12299098D02*
X14469629Y-12308622D01*
X14469629Y-12308622D02*
X14460106Y-12318146D01*
X14460106Y-12318146D02*
X14450582Y-12337193D01*
X14450582Y-12337193D02*
X14450582Y-12375288D01*
X14450582Y-12375288D02*
X14460106Y-12394336D01*
X14460106Y-12394336D02*
X14469629Y-12403860D01*
X14469629Y-12403860D02*
X14488677Y-12413384D01*
X14488677Y-12413384D02*
X14526772Y-12413384D01*
X14526772Y-12413384D02*
X14545820Y-12403860D01*
X14545820Y-12403860D02*
X14555344Y-12394336D01*
X14555344Y-12394336D02*
X14564867Y-12375288D01*
X14564867Y-12375288D02*
X14564867Y-12337193D01*
X14564867Y-12337193D02*
X14555344Y-12318146D01*
X14555344Y-12318146D02*
X14545820Y-12308622D01*
X14545820Y-12308622D02*
X14526772Y-12299098D01*
X14688677Y-12213384D02*
X14707725Y-12213384D01*
X14707725Y-12213384D02*
X14726772Y-12222908D01*
X14726772Y-12222908D02*
X14736296Y-12232431D01*
X14736296Y-12232431D02*
X14745820Y-12251479D01*
X14745820Y-12251479D02*
X14755344Y-12289574D01*
X14755344Y-12289574D02*
X14755344Y-12337193D01*
X14755344Y-12337193D02*
X14745820Y-12375288D01*
X14745820Y-12375288D02*
X14736296Y-12394336D01*
X14736296Y-12394336D02*
X14726772Y-12403860D01*
X14726772Y-12403860D02*
X14707725Y-12413384D01*
X14707725Y-12413384D02*
X14688677Y-12413384D01*
X14688677Y-12413384D02*
X14669629Y-12403860D01*
X14669629Y-12403860D02*
X14660106Y-12394336D01*
X14660106Y-12394336D02*
X14650582Y-12375288D01*
X14650582Y-12375288D02*
X14641058Y-12337193D01*
X14641058Y-12337193D02*
X14641058Y-12289574D01*
X14641058Y-12289574D02*
X14650582Y-12251479D01*
X14650582Y-12251479D02*
X14660106Y-12232431D01*
X14660106Y-12232431D02*
X14669629Y-12222908D01*
X14669629Y-12222908D02*
X14688677Y-12213384D01*
X14831534Y-12213384D02*
X14831534Y-12251479D01*
X14907725Y-12213384D02*
X14907725Y-12251479D01*
X15202963Y-12489574D02*
X15193439Y-12480050D01*
X15193439Y-12480050D02*
X15174391Y-12451479D01*
X15174391Y-12451479D02*
X15164868Y-12432431D01*
X15164868Y-12432431D02*
X15155344Y-12403860D01*
X15155344Y-12403860D02*
X15145820Y-12356241D01*
X15145820Y-12356241D02*
X15145820Y-12318146D01*
X15145820Y-12318146D02*
X15155344Y-12270527D01*
X15155344Y-12270527D02*
X15164868Y-12241955D01*
X15164868Y-12241955D02*
X15174391Y-12222908D01*
X15174391Y-12222908D02*
X15193439Y-12194336D01*
X15193439Y-12194336D02*
X15202963Y-12184812D01*
X15269629Y-12232431D02*
X15279153Y-12222908D01*
X15279153Y-12222908D02*
X15298201Y-12213384D01*
X15298201Y-12213384D02*
X15345820Y-12213384D01*
X15345820Y-12213384D02*
X15364868Y-12222908D01*
X15364868Y-12222908D02*
X15374391Y-12232431D01*
X15374391Y-12232431D02*
X15383915Y-12251479D01*
X15383915Y-12251479D02*
X15383915Y-12270527D01*
X15383915Y-12270527D02*
X15374391Y-12299098D01*
X15374391Y-12299098D02*
X15260106Y-12413384D01*
X15260106Y-12413384D02*
X15383915Y-12413384D01*
X15622010Y-12413384D02*
X15622010Y-12213384D01*
X15707725Y-12413384D02*
X15707725Y-12308622D01*
X15707725Y-12308622D02*
X15698201Y-12289574D01*
X15698201Y-12289574D02*
X15679153Y-12280050D01*
X15679153Y-12280050D02*
X15650582Y-12280050D01*
X15650582Y-12280050D02*
X15631534Y-12289574D01*
X15631534Y-12289574D02*
X15622010Y-12299098D01*
X15831534Y-12413384D02*
X15812487Y-12403860D01*
X15812487Y-12403860D02*
X15802963Y-12394336D01*
X15802963Y-12394336D02*
X15793439Y-12375288D01*
X15793439Y-12375288D02*
X15793439Y-12318146D01*
X15793439Y-12318146D02*
X15802963Y-12299098D01*
X15802963Y-12299098D02*
X15812487Y-12289574D01*
X15812487Y-12289574D02*
X15831534Y-12280050D01*
X15831534Y-12280050D02*
X15860106Y-12280050D01*
X15860106Y-12280050D02*
X15879153Y-12289574D01*
X15879153Y-12289574D02*
X15888677Y-12299098D01*
X15888677Y-12299098D02*
X15898201Y-12318146D01*
X15898201Y-12318146D02*
X15898201Y-12375288D01*
X15898201Y-12375288D02*
X15888677Y-12394336D01*
X15888677Y-12394336D02*
X15879153Y-12403860D01*
X15879153Y-12403860D02*
X15860106Y-12413384D01*
X15860106Y-12413384D02*
X15831534Y-12413384D01*
X16012487Y-12413384D02*
X15993439Y-12403860D01*
X15993439Y-12403860D02*
X15983915Y-12384812D01*
X15983915Y-12384812D02*
X15983915Y-12213384D01*
X16164868Y-12403860D02*
X16145820Y-12413384D01*
X16145820Y-12413384D02*
X16107725Y-12413384D01*
X16107725Y-12413384D02*
X16088677Y-12403860D01*
X16088677Y-12403860D02*
X16079153Y-12384812D01*
X16079153Y-12384812D02*
X16079153Y-12308622D01*
X16079153Y-12308622D02*
X16088677Y-12289574D01*
X16088677Y-12289574D02*
X16107725Y-12280050D01*
X16107725Y-12280050D02*
X16145820Y-12280050D01*
X16145820Y-12280050D02*
X16164868Y-12289574D01*
X16164868Y-12289574D02*
X16174391Y-12308622D01*
X16174391Y-12308622D02*
X16174391Y-12327669D01*
X16174391Y-12327669D02*
X16079153Y-12346717D01*
X16250582Y-12403860D02*
X16269630Y-12413384D01*
X16269630Y-12413384D02*
X16307725Y-12413384D01*
X16307725Y-12413384D02*
X16326772Y-12403860D01*
X16326772Y-12403860D02*
X16336296Y-12384812D01*
X16336296Y-12384812D02*
X16336296Y-12375288D01*
X16336296Y-12375288D02*
X16326772Y-12356241D01*
X16326772Y-12356241D02*
X16307725Y-12346717D01*
X16307725Y-12346717D02*
X16279153Y-12346717D01*
X16279153Y-12346717D02*
X16260106Y-12337193D01*
X16260106Y-12337193D02*
X16250582Y-12318146D01*
X16250582Y-12318146D02*
X16250582Y-12308622D01*
X16250582Y-12308622D02*
X16260106Y-12289574D01*
X16260106Y-12289574D02*
X16279153Y-12280050D01*
X16279153Y-12280050D02*
X16307725Y-12280050D01*
X16307725Y-12280050D02*
X16326772Y-12289574D01*
X16402963Y-12489574D02*
X16412487Y-12480050D01*
X16412487Y-12480050D02*
X16431534Y-12451479D01*
X16431534Y-12451479D02*
X16441058Y-12432431D01*
X16441058Y-12432431D02*
X16450582Y-12403860D01*
X16450582Y-12403860D02*
X16460106Y-12356241D01*
X16460106Y-12356241D02*
X16460106Y-12318146D01*
X16460106Y-12318146D02*
X16450582Y-12270527D01*
X16450582Y-12270527D02*
X16441058Y-12241955D01*
X16441058Y-12241955D02*
X16431534Y-12222908D01*
X16431534Y-12222908D02*
X16412487Y-12194336D01*
X16412487Y-12194336D02*
X16402963Y-12184812D01*
D12*
X11527900Y-12535900D02*
X11627900Y-12635900D01*
X11627900Y-12535900D02*
X11527900Y-12635900D01*
X11627900Y-12585900D02*
G75*
G02*
X11527900Y-12585900I-50000J0D01*
G01*
X11527900Y-12585900D02*
G75*
G02*
X11627900Y-12585900I50000J0D01*
G01*
D11*
X11993439Y-12677384D02*
X11879153Y-12677384D01*
X11936296Y-12677384D02*
X11936296Y-12477384D01*
X11936296Y-12477384D02*
X11917248Y-12505955D01*
X11917248Y-12505955D02*
X11898201Y-12525003D01*
X11898201Y-12525003D02*
X11879153Y-12534527D01*
X12079153Y-12658336D02*
X12088677Y-12667860D01*
X12088677Y-12667860D02*
X12079153Y-12677384D01*
X12079153Y-12677384D02*
X12069629Y-12667860D01*
X12069629Y-12667860D02*
X12079153Y-12658336D01*
X12079153Y-12658336D02*
X12079153Y-12677384D01*
X12212486Y-12477384D02*
X12231534Y-12477384D01*
X12231534Y-12477384D02*
X12250582Y-12486908D01*
X12250582Y-12486908D02*
X12260105Y-12496431D01*
X12260105Y-12496431D02*
X12269629Y-12515479D01*
X12269629Y-12515479D02*
X12279153Y-12553574D01*
X12279153Y-12553574D02*
X12279153Y-12601193D01*
X12279153Y-12601193D02*
X12269629Y-12639288D01*
X12269629Y-12639288D02*
X12260105Y-12658336D01*
X12260105Y-12658336D02*
X12250582Y-12667860D01*
X12250582Y-12667860D02*
X12231534Y-12677384D01*
X12231534Y-12677384D02*
X12212486Y-12677384D01*
X12212486Y-12677384D02*
X12193439Y-12667860D01*
X12193439Y-12667860D02*
X12183915Y-12658336D01*
X12183915Y-12658336D02*
X12174391Y-12639288D01*
X12174391Y-12639288D02*
X12164867Y-12601193D01*
X12164867Y-12601193D02*
X12164867Y-12553574D01*
X12164867Y-12553574D02*
X12174391Y-12515479D01*
X12174391Y-12515479D02*
X12183915Y-12496431D01*
X12183915Y-12496431D02*
X12193439Y-12486908D01*
X12193439Y-12486908D02*
X12212486Y-12477384D01*
X12402962Y-12477384D02*
X12422010Y-12477384D01*
X12422010Y-12477384D02*
X12441058Y-12486908D01*
X12441058Y-12486908D02*
X12450582Y-12496431D01*
X12450582Y-12496431D02*
X12460105Y-12515479D01*
X12460105Y-12515479D02*
X12469629Y-12553574D01*
X12469629Y-12553574D02*
X12469629Y-12601193D01*
X12469629Y-12601193D02*
X12460105Y-12639288D01*
X12460105Y-12639288D02*
X12450582Y-12658336D01*
X12450582Y-12658336D02*
X12441058Y-12667860D01*
X12441058Y-12667860D02*
X12422010Y-12677384D01*
X12422010Y-12677384D02*
X12402962Y-12677384D01*
X12402962Y-12677384D02*
X12383915Y-12667860D01*
X12383915Y-12667860D02*
X12374391Y-12658336D01*
X12374391Y-12658336D02*
X12364867Y-12639288D01*
X12364867Y-12639288D02*
X12355343Y-12601193D01*
X12355343Y-12601193D02*
X12355343Y-12553574D01*
X12355343Y-12553574D02*
X12364867Y-12515479D01*
X12364867Y-12515479D02*
X12374391Y-12496431D01*
X12374391Y-12496431D02*
X12383915Y-12486908D01*
X12383915Y-12486908D02*
X12402962Y-12477384D01*
X12593439Y-12477384D02*
X12612486Y-12477384D01*
X12612486Y-12477384D02*
X12631534Y-12486908D01*
X12631534Y-12486908D02*
X12641058Y-12496431D01*
X12641058Y-12496431D02*
X12650582Y-12515479D01*
X12650582Y-12515479D02*
X12660105Y-12553574D01*
X12660105Y-12553574D02*
X12660105Y-12601193D01*
X12660105Y-12601193D02*
X12650582Y-12639288D01*
X12650582Y-12639288D02*
X12641058Y-12658336D01*
X12641058Y-12658336D02*
X12631534Y-12667860D01*
X12631534Y-12667860D02*
X12612486Y-12677384D01*
X12612486Y-12677384D02*
X12593439Y-12677384D01*
X12593439Y-12677384D02*
X12574391Y-12667860D01*
X12574391Y-12667860D02*
X12564867Y-12658336D01*
X12564867Y-12658336D02*
X12555343Y-12639288D01*
X12555343Y-12639288D02*
X12545820Y-12601193D01*
X12545820Y-12601193D02*
X12545820Y-12553574D01*
X12545820Y-12553574D02*
X12555343Y-12515479D01*
X12555343Y-12515479D02*
X12564867Y-12496431D01*
X12564867Y-12496431D02*
X12574391Y-12486908D01*
X12574391Y-12486908D02*
X12593439Y-12477384D01*
X12745820Y-12677384D02*
X12745820Y-12544050D01*
X12745820Y-12563098D02*
X12755343Y-12553574D01*
X12755343Y-12553574D02*
X12774391Y-12544050D01*
X12774391Y-12544050D02*
X12802963Y-12544050D01*
X12802963Y-12544050D02*
X12822010Y-12553574D01*
X12822010Y-12553574D02*
X12831534Y-12572622D01*
X12831534Y-12572622D02*
X12831534Y-12677384D01*
X12831534Y-12572622D02*
X12841058Y-12553574D01*
X12841058Y-12553574D02*
X12860105Y-12544050D01*
X12860105Y-12544050D02*
X12888677Y-12544050D01*
X12888677Y-12544050D02*
X12907724Y-12553574D01*
X12907724Y-12553574D02*
X12917248Y-12572622D01*
X12917248Y-12572622D02*
X12917248Y-12677384D01*
X13012486Y-12677384D02*
X13012486Y-12544050D01*
X13012486Y-12563098D02*
X13022010Y-12553574D01*
X13022010Y-12553574D02*
X13041058Y-12544050D01*
X13041058Y-12544050D02*
X13069629Y-12544050D01*
X13069629Y-12544050D02*
X13088677Y-12553574D01*
X13088677Y-12553574D02*
X13098201Y-12572622D01*
X13098201Y-12572622D02*
X13098201Y-12677384D01*
X13098201Y-12572622D02*
X13107724Y-12553574D01*
X13107724Y-12553574D02*
X13126772Y-12544050D01*
X13126772Y-12544050D02*
X13155343Y-12544050D01*
X13155343Y-12544050D02*
X13174391Y-12553574D01*
X13174391Y-12553574D02*
X13183915Y-12572622D01*
X13183915Y-12572622D02*
X13183915Y-12677384D01*
X13574391Y-12467860D02*
X13402963Y-12725003D01*
X13831534Y-12477384D02*
X13850582Y-12477384D01*
X13850582Y-12477384D02*
X13869629Y-12486908D01*
X13869629Y-12486908D02*
X13879153Y-12496431D01*
X13879153Y-12496431D02*
X13888677Y-12515479D01*
X13888677Y-12515479D02*
X13898201Y-12553574D01*
X13898201Y-12553574D02*
X13898201Y-12601193D01*
X13898201Y-12601193D02*
X13888677Y-12639288D01*
X13888677Y-12639288D02*
X13879153Y-12658336D01*
X13879153Y-12658336D02*
X13869629Y-12667860D01*
X13869629Y-12667860D02*
X13850582Y-12677384D01*
X13850582Y-12677384D02*
X13831534Y-12677384D01*
X13831534Y-12677384D02*
X13812486Y-12667860D01*
X13812486Y-12667860D02*
X13802963Y-12658336D01*
X13802963Y-12658336D02*
X13793439Y-12639288D01*
X13793439Y-12639288D02*
X13783915Y-12601193D01*
X13783915Y-12601193D02*
X13783915Y-12553574D01*
X13783915Y-12553574D02*
X13793439Y-12515479D01*
X13793439Y-12515479D02*
X13802963Y-12496431D01*
X13802963Y-12496431D02*
X13812486Y-12486908D01*
X13812486Y-12486908D02*
X13831534Y-12477384D01*
X13983915Y-12658336D02*
X13993439Y-12667860D01*
X13993439Y-12667860D02*
X13983915Y-12677384D01*
X13983915Y-12677384D02*
X13974391Y-12667860D01*
X13974391Y-12667860D02*
X13983915Y-12658336D01*
X13983915Y-12658336D02*
X13983915Y-12677384D01*
X14117248Y-12477384D02*
X14136296Y-12477384D01*
X14136296Y-12477384D02*
X14155344Y-12486908D01*
X14155344Y-12486908D02*
X14164867Y-12496431D01*
X14164867Y-12496431D02*
X14174391Y-12515479D01*
X14174391Y-12515479D02*
X14183915Y-12553574D01*
X14183915Y-12553574D02*
X14183915Y-12601193D01*
X14183915Y-12601193D02*
X14174391Y-12639288D01*
X14174391Y-12639288D02*
X14164867Y-12658336D01*
X14164867Y-12658336D02*
X14155344Y-12667860D01*
X14155344Y-12667860D02*
X14136296Y-12677384D01*
X14136296Y-12677384D02*
X14117248Y-12677384D01*
X14117248Y-12677384D02*
X14098201Y-12667860D01*
X14098201Y-12667860D02*
X14088677Y-12658336D01*
X14088677Y-12658336D02*
X14079153Y-12639288D01*
X14079153Y-12639288D02*
X14069629Y-12601193D01*
X14069629Y-12601193D02*
X14069629Y-12553574D01*
X14069629Y-12553574D02*
X14079153Y-12515479D01*
X14079153Y-12515479D02*
X14088677Y-12496431D01*
X14088677Y-12496431D02*
X14098201Y-12486908D01*
X14098201Y-12486908D02*
X14117248Y-12477384D01*
X14250582Y-12477384D02*
X14374391Y-12477384D01*
X14374391Y-12477384D02*
X14307725Y-12553574D01*
X14307725Y-12553574D02*
X14336296Y-12553574D01*
X14336296Y-12553574D02*
X14355344Y-12563098D01*
X14355344Y-12563098D02*
X14364867Y-12572622D01*
X14364867Y-12572622D02*
X14374391Y-12591669D01*
X14374391Y-12591669D02*
X14374391Y-12639288D01*
X14374391Y-12639288D02*
X14364867Y-12658336D01*
X14364867Y-12658336D02*
X14355344Y-12667860D01*
X14355344Y-12667860D02*
X14336296Y-12677384D01*
X14336296Y-12677384D02*
X14279153Y-12677384D01*
X14279153Y-12677384D02*
X14260106Y-12667860D01*
X14260106Y-12667860D02*
X14250582Y-12658336D01*
X14469629Y-12677384D02*
X14507725Y-12677384D01*
X14507725Y-12677384D02*
X14526772Y-12667860D01*
X14526772Y-12667860D02*
X14536296Y-12658336D01*
X14536296Y-12658336D02*
X14555344Y-12629765D01*
X14555344Y-12629765D02*
X14564867Y-12591669D01*
X14564867Y-12591669D02*
X14564867Y-12515479D01*
X14564867Y-12515479D02*
X14555344Y-12496431D01*
X14555344Y-12496431D02*
X14545820Y-12486908D01*
X14545820Y-12486908D02*
X14526772Y-12477384D01*
X14526772Y-12477384D02*
X14488677Y-12477384D01*
X14488677Y-12477384D02*
X14469629Y-12486908D01*
X14469629Y-12486908D02*
X14460106Y-12496431D01*
X14460106Y-12496431D02*
X14450582Y-12515479D01*
X14450582Y-12515479D02*
X14450582Y-12563098D01*
X14450582Y-12563098D02*
X14460106Y-12582146D01*
X14460106Y-12582146D02*
X14469629Y-12591669D01*
X14469629Y-12591669D02*
X14488677Y-12601193D01*
X14488677Y-12601193D02*
X14526772Y-12601193D01*
X14526772Y-12601193D02*
X14545820Y-12591669D01*
X14545820Y-12591669D02*
X14555344Y-12582146D01*
X14555344Y-12582146D02*
X14564867Y-12563098D01*
X14736296Y-12544050D02*
X14736296Y-12677384D01*
X14688677Y-12467860D02*
X14641058Y-12610717D01*
X14641058Y-12610717D02*
X14764867Y-12610717D01*
X14831534Y-12477384D02*
X14831534Y-12515479D01*
X14907725Y-12477384D02*
X14907725Y-12515479D01*
X15202963Y-12753574D02*
X15193439Y-12744050D01*
X15193439Y-12744050D02*
X15174391Y-12715479D01*
X15174391Y-12715479D02*
X15164868Y-12696431D01*
X15164868Y-12696431D02*
X15155344Y-12667860D01*
X15155344Y-12667860D02*
X15145820Y-12620241D01*
X15145820Y-12620241D02*
X15145820Y-12582146D01*
X15145820Y-12582146D02*
X15155344Y-12534527D01*
X15155344Y-12534527D02*
X15164868Y-12505955D01*
X15164868Y-12505955D02*
X15174391Y-12486908D01*
X15174391Y-12486908D02*
X15193439Y-12458336D01*
X15193439Y-12458336D02*
X15202963Y-12448812D01*
X15307725Y-12563098D02*
X15288677Y-12553574D01*
X15288677Y-12553574D02*
X15279153Y-12544050D01*
X15279153Y-12544050D02*
X15269629Y-12525003D01*
X15269629Y-12525003D02*
X15269629Y-12515479D01*
X15269629Y-12515479D02*
X15279153Y-12496431D01*
X15279153Y-12496431D02*
X15288677Y-12486908D01*
X15288677Y-12486908D02*
X15307725Y-12477384D01*
X15307725Y-12477384D02*
X15345820Y-12477384D01*
X15345820Y-12477384D02*
X15364868Y-12486908D01*
X15364868Y-12486908D02*
X15374391Y-12496431D01*
X15374391Y-12496431D02*
X15383915Y-12515479D01*
X15383915Y-12515479D02*
X15383915Y-12525003D01*
X15383915Y-12525003D02*
X15374391Y-12544050D01*
X15374391Y-12544050D02*
X15364868Y-12553574D01*
X15364868Y-12553574D02*
X15345820Y-12563098D01*
X15345820Y-12563098D02*
X15307725Y-12563098D01*
X15307725Y-12563098D02*
X15288677Y-12572622D01*
X15288677Y-12572622D02*
X15279153Y-12582146D01*
X15279153Y-12582146D02*
X15269629Y-12601193D01*
X15269629Y-12601193D02*
X15269629Y-12639288D01*
X15269629Y-12639288D02*
X15279153Y-12658336D01*
X15279153Y-12658336D02*
X15288677Y-12667860D01*
X15288677Y-12667860D02*
X15307725Y-12677384D01*
X15307725Y-12677384D02*
X15345820Y-12677384D01*
X15345820Y-12677384D02*
X15364868Y-12667860D01*
X15364868Y-12667860D02*
X15374391Y-12658336D01*
X15374391Y-12658336D02*
X15383915Y-12639288D01*
X15383915Y-12639288D02*
X15383915Y-12601193D01*
X15383915Y-12601193D02*
X15374391Y-12582146D01*
X15374391Y-12582146D02*
X15364868Y-12572622D01*
X15364868Y-12572622D02*
X15345820Y-12563098D01*
X15622010Y-12677384D02*
X15622010Y-12477384D01*
X15707725Y-12677384D02*
X15707725Y-12572622D01*
X15707725Y-12572622D02*
X15698201Y-12553574D01*
X15698201Y-12553574D02*
X15679153Y-12544050D01*
X15679153Y-12544050D02*
X15650582Y-12544050D01*
X15650582Y-12544050D02*
X15631534Y-12553574D01*
X15631534Y-12553574D02*
X15622010Y-12563098D01*
X15831534Y-12677384D02*
X15812487Y-12667860D01*
X15812487Y-12667860D02*
X15802963Y-12658336D01*
X15802963Y-12658336D02*
X15793439Y-12639288D01*
X15793439Y-12639288D02*
X15793439Y-12582146D01*
X15793439Y-12582146D02*
X15802963Y-12563098D01*
X15802963Y-12563098D02*
X15812487Y-12553574D01*
X15812487Y-12553574D02*
X15831534Y-12544050D01*
X15831534Y-12544050D02*
X15860106Y-12544050D01*
X15860106Y-12544050D02*
X15879153Y-12553574D01*
X15879153Y-12553574D02*
X15888677Y-12563098D01*
X15888677Y-12563098D02*
X15898201Y-12582146D01*
X15898201Y-12582146D02*
X15898201Y-12639288D01*
X15898201Y-12639288D02*
X15888677Y-12658336D01*
X15888677Y-12658336D02*
X15879153Y-12667860D01*
X15879153Y-12667860D02*
X15860106Y-12677384D01*
X15860106Y-12677384D02*
X15831534Y-12677384D01*
X16012487Y-12677384D02*
X15993439Y-12667860D01*
X15993439Y-12667860D02*
X15983915Y-12648812D01*
X15983915Y-12648812D02*
X15983915Y-12477384D01*
X16164868Y-12667860D02*
X16145820Y-12677384D01*
X16145820Y-12677384D02*
X16107725Y-12677384D01*
X16107725Y-12677384D02*
X16088677Y-12667860D01*
X16088677Y-12667860D02*
X16079153Y-12648812D01*
X16079153Y-12648812D02*
X16079153Y-12572622D01*
X16079153Y-12572622D02*
X16088677Y-12553574D01*
X16088677Y-12553574D02*
X16107725Y-12544050D01*
X16107725Y-12544050D02*
X16145820Y-12544050D01*
X16145820Y-12544050D02*
X16164868Y-12553574D01*
X16164868Y-12553574D02*
X16174391Y-12572622D01*
X16174391Y-12572622D02*
X16174391Y-12591669D01*
X16174391Y-12591669D02*
X16079153Y-12610717D01*
X16250582Y-12667860D02*
X16269630Y-12677384D01*
X16269630Y-12677384D02*
X16307725Y-12677384D01*
X16307725Y-12677384D02*
X16326772Y-12667860D01*
X16326772Y-12667860D02*
X16336296Y-12648812D01*
X16336296Y-12648812D02*
X16336296Y-12639288D01*
X16336296Y-12639288D02*
X16326772Y-12620241D01*
X16326772Y-12620241D02*
X16307725Y-12610717D01*
X16307725Y-12610717D02*
X16279153Y-12610717D01*
X16279153Y-12610717D02*
X16260106Y-12601193D01*
X16260106Y-12601193D02*
X16250582Y-12582146D01*
X16250582Y-12582146D02*
X16250582Y-12572622D01*
X16250582Y-12572622D02*
X16260106Y-12553574D01*
X16260106Y-12553574D02*
X16279153Y-12544050D01*
X16279153Y-12544050D02*
X16307725Y-12544050D01*
X16307725Y-12544050D02*
X16326772Y-12553574D01*
X16402963Y-12753574D02*
X16412487Y-12744050D01*
X16412487Y-12744050D02*
X16431534Y-12715479D01*
X16431534Y-12715479D02*
X16441058Y-12696431D01*
X16441058Y-12696431D02*
X16450582Y-12667860D01*
X16450582Y-12667860D02*
X16460106Y-12620241D01*
X16460106Y-12620241D02*
X16460106Y-12582146D01*
X16460106Y-12582146D02*
X16450582Y-12534527D01*
X16450582Y-12534527D02*
X16441058Y-12505955D01*
X16441058Y-12505955D02*
X16431534Y-12486908D01*
X16431534Y-12486908D02*
X16412487Y-12458336D01*
X16412487Y-12458336D02*
X16402963Y-12448812D01*
D13*
X11508900Y-12790400D02*
X11627900Y-12909400D01*
X11627900Y-12790400D02*
X11508900Y-12909400D01*
X11568400Y-12790400D02*
X11568400Y-12909400D01*
X11508900Y-12849900D02*
X11627900Y-12849900D01*
D11*
X11993439Y-12941384D02*
X11879153Y-12941384D01*
X11936296Y-12941384D02*
X11936296Y-12741384D01*
X11936296Y-12741384D02*
X11917248Y-12769955D01*
X11917248Y-12769955D02*
X11898201Y-12789003D01*
X11898201Y-12789003D02*
X11879153Y-12798527D01*
X12079153Y-12922336D02*
X12088677Y-12931860D01*
X12088677Y-12931860D02*
X12079153Y-12941384D01*
X12079153Y-12941384D02*
X12069629Y-12931860D01*
X12069629Y-12931860D02*
X12079153Y-12922336D01*
X12079153Y-12922336D02*
X12079153Y-12941384D01*
X12279153Y-12941384D02*
X12164867Y-12941384D01*
X12222010Y-12941384D02*
X12222010Y-12741384D01*
X12222010Y-12741384D02*
X12202962Y-12769955D01*
X12202962Y-12769955D02*
X12183915Y-12789003D01*
X12183915Y-12789003D02*
X12164867Y-12798527D01*
X12374391Y-12941384D02*
X12412486Y-12941384D01*
X12412486Y-12941384D02*
X12431534Y-12931860D01*
X12431534Y-12931860D02*
X12441058Y-12922336D01*
X12441058Y-12922336D02*
X12460105Y-12893765D01*
X12460105Y-12893765D02*
X12469629Y-12855669D01*
X12469629Y-12855669D02*
X12469629Y-12779479D01*
X12469629Y-12779479D02*
X12460105Y-12760431D01*
X12460105Y-12760431D02*
X12450582Y-12750908D01*
X12450582Y-12750908D02*
X12431534Y-12741384D01*
X12431534Y-12741384D02*
X12393439Y-12741384D01*
X12393439Y-12741384D02*
X12374391Y-12750908D01*
X12374391Y-12750908D02*
X12364867Y-12760431D01*
X12364867Y-12760431D02*
X12355343Y-12779479D01*
X12355343Y-12779479D02*
X12355343Y-12827098D01*
X12355343Y-12827098D02*
X12364867Y-12846146D01*
X12364867Y-12846146D02*
X12374391Y-12855669D01*
X12374391Y-12855669D02*
X12393439Y-12865193D01*
X12393439Y-12865193D02*
X12431534Y-12865193D01*
X12431534Y-12865193D02*
X12450582Y-12855669D01*
X12450582Y-12855669D02*
X12460105Y-12846146D01*
X12460105Y-12846146D02*
X12469629Y-12827098D01*
X12593439Y-12741384D02*
X12612486Y-12741384D01*
X12612486Y-12741384D02*
X12631534Y-12750908D01*
X12631534Y-12750908D02*
X12641058Y-12760431D01*
X12641058Y-12760431D02*
X12650582Y-12779479D01*
X12650582Y-12779479D02*
X12660105Y-12817574D01*
X12660105Y-12817574D02*
X12660105Y-12865193D01*
X12660105Y-12865193D02*
X12650582Y-12903288D01*
X12650582Y-12903288D02*
X12641058Y-12922336D01*
X12641058Y-12922336D02*
X12631534Y-12931860D01*
X12631534Y-12931860D02*
X12612486Y-12941384D01*
X12612486Y-12941384D02*
X12593439Y-12941384D01*
X12593439Y-12941384D02*
X12574391Y-12931860D01*
X12574391Y-12931860D02*
X12564867Y-12922336D01*
X12564867Y-12922336D02*
X12555343Y-12903288D01*
X12555343Y-12903288D02*
X12545820Y-12865193D01*
X12545820Y-12865193D02*
X12545820Y-12817574D01*
X12545820Y-12817574D02*
X12555343Y-12779479D01*
X12555343Y-12779479D02*
X12564867Y-12760431D01*
X12564867Y-12760431D02*
X12574391Y-12750908D01*
X12574391Y-12750908D02*
X12593439Y-12741384D01*
X12745820Y-12941384D02*
X12745820Y-12808050D01*
X12745820Y-12827098D02*
X12755343Y-12817574D01*
X12755343Y-12817574D02*
X12774391Y-12808050D01*
X12774391Y-12808050D02*
X12802963Y-12808050D01*
X12802963Y-12808050D02*
X12822010Y-12817574D01*
X12822010Y-12817574D02*
X12831534Y-12836622D01*
X12831534Y-12836622D02*
X12831534Y-12941384D01*
X12831534Y-12836622D02*
X12841058Y-12817574D01*
X12841058Y-12817574D02*
X12860105Y-12808050D01*
X12860105Y-12808050D02*
X12888677Y-12808050D01*
X12888677Y-12808050D02*
X12907724Y-12817574D01*
X12907724Y-12817574D02*
X12917248Y-12836622D01*
X12917248Y-12836622D02*
X12917248Y-12941384D01*
X13012486Y-12941384D02*
X13012486Y-12808050D01*
X13012486Y-12827098D02*
X13022010Y-12817574D01*
X13022010Y-12817574D02*
X13041058Y-12808050D01*
X13041058Y-12808050D02*
X13069629Y-12808050D01*
X13069629Y-12808050D02*
X13088677Y-12817574D01*
X13088677Y-12817574D02*
X13098201Y-12836622D01*
X13098201Y-12836622D02*
X13098201Y-12941384D01*
X13098201Y-12836622D02*
X13107724Y-12817574D01*
X13107724Y-12817574D02*
X13126772Y-12808050D01*
X13126772Y-12808050D02*
X13155343Y-12808050D01*
X13155343Y-12808050D02*
X13174391Y-12817574D01*
X13174391Y-12817574D02*
X13183915Y-12836622D01*
X13183915Y-12836622D02*
X13183915Y-12941384D01*
X13574391Y-12731860D02*
X13402963Y-12989003D01*
X13831534Y-12741384D02*
X13850582Y-12741384D01*
X13850582Y-12741384D02*
X13869629Y-12750908D01*
X13869629Y-12750908D02*
X13879153Y-12760431D01*
X13879153Y-12760431D02*
X13888677Y-12779479D01*
X13888677Y-12779479D02*
X13898201Y-12817574D01*
X13898201Y-12817574D02*
X13898201Y-12865193D01*
X13898201Y-12865193D02*
X13888677Y-12903288D01*
X13888677Y-12903288D02*
X13879153Y-12922336D01*
X13879153Y-12922336D02*
X13869629Y-12931860D01*
X13869629Y-12931860D02*
X13850582Y-12941384D01*
X13850582Y-12941384D02*
X13831534Y-12941384D01*
X13831534Y-12941384D02*
X13812486Y-12931860D01*
X13812486Y-12931860D02*
X13802963Y-12922336D01*
X13802963Y-12922336D02*
X13793439Y-12903288D01*
X13793439Y-12903288D02*
X13783915Y-12865193D01*
X13783915Y-12865193D02*
X13783915Y-12817574D01*
X13783915Y-12817574D02*
X13793439Y-12779479D01*
X13793439Y-12779479D02*
X13802963Y-12760431D01*
X13802963Y-12760431D02*
X13812486Y-12750908D01*
X13812486Y-12750908D02*
X13831534Y-12741384D01*
X13983915Y-12922336D02*
X13993439Y-12931860D01*
X13993439Y-12931860D02*
X13983915Y-12941384D01*
X13983915Y-12941384D02*
X13974391Y-12931860D01*
X13974391Y-12931860D02*
X13983915Y-12922336D01*
X13983915Y-12922336D02*
X13983915Y-12941384D01*
X14117248Y-12741384D02*
X14136296Y-12741384D01*
X14136296Y-12741384D02*
X14155344Y-12750908D01*
X14155344Y-12750908D02*
X14164867Y-12760431D01*
X14164867Y-12760431D02*
X14174391Y-12779479D01*
X14174391Y-12779479D02*
X14183915Y-12817574D01*
X14183915Y-12817574D02*
X14183915Y-12865193D01*
X14183915Y-12865193D02*
X14174391Y-12903288D01*
X14174391Y-12903288D02*
X14164867Y-12922336D01*
X14164867Y-12922336D02*
X14155344Y-12931860D01*
X14155344Y-12931860D02*
X14136296Y-12941384D01*
X14136296Y-12941384D02*
X14117248Y-12941384D01*
X14117248Y-12941384D02*
X14098201Y-12931860D01*
X14098201Y-12931860D02*
X14088677Y-12922336D01*
X14088677Y-12922336D02*
X14079153Y-12903288D01*
X14079153Y-12903288D02*
X14069629Y-12865193D01*
X14069629Y-12865193D02*
X14069629Y-12817574D01*
X14069629Y-12817574D02*
X14079153Y-12779479D01*
X14079153Y-12779479D02*
X14088677Y-12760431D01*
X14088677Y-12760431D02*
X14098201Y-12750908D01*
X14098201Y-12750908D02*
X14117248Y-12741384D01*
X14355344Y-12808050D02*
X14355344Y-12941384D01*
X14307725Y-12731860D02*
X14260106Y-12874717D01*
X14260106Y-12874717D02*
X14383915Y-12874717D01*
X14545820Y-12741384D02*
X14507725Y-12741384D01*
X14507725Y-12741384D02*
X14488677Y-12750908D01*
X14488677Y-12750908D02*
X14479153Y-12760431D01*
X14479153Y-12760431D02*
X14460106Y-12789003D01*
X14460106Y-12789003D02*
X14450582Y-12827098D01*
X14450582Y-12827098D02*
X14450582Y-12903288D01*
X14450582Y-12903288D02*
X14460106Y-12922336D01*
X14460106Y-12922336D02*
X14469629Y-12931860D01*
X14469629Y-12931860D02*
X14488677Y-12941384D01*
X14488677Y-12941384D02*
X14526772Y-12941384D01*
X14526772Y-12941384D02*
X14545820Y-12931860D01*
X14545820Y-12931860D02*
X14555344Y-12922336D01*
X14555344Y-12922336D02*
X14564867Y-12903288D01*
X14564867Y-12903288D02*
X14564867Y-12855669D01*
X14564867Y-12855669D02*
X14555344Y-12836622D01*
X14555344Y-12836622D02*
X14545820Y-12827098D01*
X14545820Y-12827098D02*
X14526772Y-12817574D01*
X14526772Y-12817574D02*
X14488677Y-12817574D01*
X14488677Y-12817574D02*
X14469629Y-12827098D01*
X14469629Y-12827098D02*
X14460106Y-12836622D01*
X14460106Y-12836622D02*
X14450582Y-12855669D01*
X14660106Y-12941384D02*
X14698201Y-12941384D01*
X14698201Y-12941384D02*
X14717248Y-12931860D01*
X14717248Y-12931860D02*
X14726772Y-12922336D01*
X14726772Y-12922336D02*
X14745820Y-12893765D01*
X14745820Y-12893765D02*
X14755344Y-12855669D01*
X14755344Y-12855669D02*
X14755344Y-12779479D01*
X14755344Y-12779479D02*
X14745820Y-12760431D01*
X14745820Y-12760431D02*
X14736296Y-12750908D01*
X14736296Y-12750908D02*
X14717248Y-12741384D01*
X14717248Y-12741384D02*
X14679153Y-12741384D01*
X14679153Y-12741384D02*
X14660106Y-12750908D01*
X14660106Y-12750908D02*
X14650582Y-12760431D01*
X14650582Y-12760431D02*
X14641058Y-12779479D01*
X14641058Y-12779479D02*
X14641058Y-12827098D01*
X14641058Y-12827098D02*
X14650582Y-12846146D01*
X14650582Y-12846146D02*
X14660106Y-12855669D01*
X14660106Y-12855669D02*
X14679153Y-12865193D01*
X14679153Y-12865193D02*
X14717248Y-12865193D01*
X14717248Y-12865193D02*
X14736296Y-12855669D01*
X14736296Y-12855669D02*
X14745820Y-12846146D01*
X14745820Y-12846146D02*
X14755344Y-12827098D01*
X14831534Y-12741384D02*
X14831534Y-12779479D01*
X14907725Y-12741384D02*
X14907725Y-12779479D01*
X15202963Y-13017574D02*
X15193439Y-13008050D01*
X15193439Y-13008050D02*
X15174391Y-12979479D01*
X15174391Y-12979479D02*
X15164868Y-12960431D01*
X15164868Y-12960431D02*
X15155344Y-12931860D01*
X15155344Y-12931860D02*
X15145820Y-12884241D01*
X15145820Y-12884241D02*
X15145820Y-12846146D01*
X15145820Y-12846146D02*
X15155344Y-12798527D01*
X15155344Y-12798527D02*
X15164868Y-12769955D01*
X15164868Y-12769955D02*
X15174391Y-12750908D01*
X15174391Y-12750908D02*
X15193439Y-12722336D01*
X15193439Y-12722336D02*
X15202963Y-12712812D01*
X15364868Y-12808050D02*
X15364868Y-12941384D01*
X15317248Y-12731860D02*
X15269629Y-12874717D01*
X15269629Y-12874717D02*
X15393439Y-12874717D01*
X15622010Y-12941384D02*
X15622010Y-12741384D01*
X15707725Y-12941384D02*
X15707725Y-12836622D01*
X15707725Y-12836622D02*
X15698201Y-12817574D01*
X15698201Y-12817574D02*
X15679153Y-12808050D01*
X15679153Y-12808050D02*
X15650582Y-12808050D01*
X15650582Y-12808050D02*
X15631534Y-12817574D01*
X15631534Y-12817574D02*
X15622010Y-12827098D01*
X15831534Y-12941384D02*
X15812487Y-12931860D01*
X15812487Y-12931860D02*
X15802963Y-12922336D01*
X15802963Y-12922336D02*
X15793439Y-12903288D01*
X15793439Y-12903288D02*
X15793439Y-12846146D01*
X15793439Y-12846146D02*
X15802963Y-12827098D01*
X15802963Y-12827098D02*
X15812487Y-12817574D01*
X15812487Y-12817574D02*
X15831534Y-12808050D01*
X15831534Y-12808050D02*
X15860106Y-12808050D01*
X15860106Y-12808050D02*
X15879153Y-12817574D01*
X15879153Y-12817574D02*
X15888677Y-12827098D01*
X15888677Y-12827098D02*
X15898201Y-12846146D01*
X15898201Y-12846146D02*
X15898201Y-12903288D01*
X15898201Y-12903288D02*
X15888677Y-12922336D01*
X15888677Y-12922336D02*
X15879153Y-12931860D01*
X15879153Y-12931860D02*
X15860106Y-12941384D01*
X15860106Y-12941384D02*
X15831534Y-12941384D01*
X16012487Y-12941384D02*
X15993439Y-12931860D01*
X15993439Y-12931860D02*
X15983915Y-12912812D01*
X15983915Y-12912812D02*
X15983915Y-12741384D01*
X16164868Y-12931860D02*
X16145820Y-12941384D01*
X16145820Y-12941384D02*
X16107725Y-12941384D01*
X16107725Y-12941384D02*
X16088677Y-12931860D01*
X16088677Y-12931860D02*
X16079153Y-12912812D01*
X16079153Y-12912812D02*
X16079153Y-12836622D01*
X16079153Y-12836622D02*
X16088677Y-12817574D01*
X16088677Y-12817574D02*
X16107725Y-12808050D01*
X16107725Y-12808050D02*
X16145820Y-12808050D01*
X16145820Y-12808050D02*
X16164868Y-12817574D01*
X16164868Y-12817574D02*
X16174391Y-12836622D01*
X16174391Y-12836622D02*
X16174391Y-12855669D01*
X16174391Y-12855669D02*
X16079153Y-12874717D01*
X16250582Y-12931860D02*
X16269630Y-12941384D01*
X16269630Y-12941384D02*
X16307725Y-12941384D01*
X16307725Y-12941384D02*
X16326772Y-12931860D01*
X16326772Y-12931860D02*
X16336296Y-12912812D01*
X16336296Y-12912812D02*
X16336296Y-12903288D01*
X16336296Y-12903288D02*
X16326772Y-12884241D01*
X16326772Y-12884241D02*
X16307725Y-12874717D01*
X16307725Y-12874717D02*
X16279153Y-12874717D01*
X16279153Y-12874717D02*
X16260106Y-12865193D01*
X16260106Y-12865193D02*
X16250582Y-12846146D01*
X16250582Y-12846146D02*
X16250582Y-12836622D01*
X16250582Y-12836622D02*
X16260106Y-12817574D01*
X16260106Y-12817574D02*
X16279153Y-12808050D01*
X16279153Y-12808050D02*
X16307725Y-12808050D01*
X16307725Y-12808050D02*
X16326772Y-12817574D01*
X16402963Y-13017574D02*
X16412487Y-13008050D01*
X16412487Y-13008050D02*
X16431534Y-12979479D01*
X16431534Y-12979479D02*
X16441058Y-12960431D01*
X16441058Y-12960431D02*
X16450582Y-12931860D01*
X16450582Y-12931860D02*
X16460106Y-12884241D01*
X16460106Y-12884241D02*
X16460106Y-12846146D01*
X16460106Y-12846146D02*
X16450582Y-12798527D01*
X16450582Y-12798527D02*
X16441058Y-12769955D01*
X16441058Y-12769955D02*
X16431534Y-12750908D01*
X16431534Y-12750908D02*
X16412487Y-12722336D01*
X16412487Y-12722336D02*
X16402963Y-12712812D01*
D14*
X11497900Y-13048900D02*
X11627900Y-13178900D01*
X11627900Y-13048900D02*
X11497900Y-13178900D01*
X11608862Y-13159862D02*
X11608862Y-13067938D01*
X11516938Y-13067938D01*
X11516938Y-13159862D01*
X11608862Y-13159862D01*
D11*
X11993439Y-13205384D02*
X11879153Y-13205384D01*
X11936296Y-13205384D02*
X11936296Y-13005384D01*
X11936296Y-13005384D02*
X11917248Y-13033955D01*
X11917248Y-13033955D02*
X11898201Y-13053003D01*
X11898201Y-13053003D02*
X11879153Y-13062527D01*
X12079153Y-13186336D02*
X12088677Y-13195860D01*
X12088677Y-13195860D02*
X12079153Y-13205384D01*
X12079153Y-13205384D02*
X12069629Y-13195860D01*
X12069629Y-13195860D02*
X12079153Y-13186336D01*
X12079153Y-13186336D02*
X12079153Y-13205384D01*
X12155343Y-13005384D02*
X12279153Y-13005384D01*
X12279153Y-13005384D02*
X12212486Y-13081574D01*
X12212486Y-13081574D02*
X12241058Y-13081574D01*
X12241058Y-13081574D02*
X12260105Y-13091098D01*
X12260105Y-13091098D02*
X12269629Y-13100622D01*
X12269629Y-13100622D02*
X12279153Y-13119669D01*
X12279153Y-13119669D02*
X12279153Y-13167288D01*
X12279153Y-13167288D02*
X12269629Y-13186336D01*
X12269629Y-13186336D02*
X12260105Y-13195860D01*
X12260105Y-13195860D02*
X12241058Y-13205384D01*
X12241058Y-13205384D02*
X12183915Y-13205384D01*
X12183915Y-13205384D02*
X12164867Y-13195860D01*
X12164867Y-13195860D02*
X12155343Y-13186336D01*
X12402962Y-13005384D02*
X12422010Y-13005384D01*
X12422010Y-13005384D02*
X12441058Y-13014908D01*
X12441058Y-13014908D02*
X12450582Y-13024431D01*
X12450582Y-13024431D02*
X12460105Y-13043479D01*
X12460105Y-13043479D02*
X12469629Y-13081574D01*
X12469629Y-13081574D02*
X12469629Y-13129193D01*
X12469629Y-13129193D02*
X12460105Y-13167288D01*
X12460105Y-13167288D02*
X12450582Y-13186336D01*
X12450582Y-13186336D02*
X12441058Y-13195860D01*
X12441058Y-13195860D02*
X12422010Y-13205384D01*
X12422010Y-13205384D02*
X12402962Y-13205384D01*
X12402962Y-13205384D02*
X12383915Y-13195860D01*
X12383915Y-13195860D02*
X12374391Y-13186336D01*
X12374391Y-13186336D02*
X12364867Y-13167288D01*
X12364867Y-13167288D02*
X12355343Y-13129193D01*
X12355343Y-13129193D02*
X12355343Y-13081574D01*
X12355343Y-13081574D02*
X12364867Y-13043479D01*
X12364867Y-13043479D02*
X12374391Y-13024431D01*
X12374391Y-13024431D02*
X12383915Y-13014908D01*
X12383915Y-13014908D02*
X12402962Y-13005384D01*
X12593439Y-13005384D02*
X12612486Y-13005384D01*
X12612486Y-13005384D02*
X12631534Y-13014908D01*
X12631534Y-13014908D02*
X12641058Y-13024431D01*
X12641058Y-13024431D02*
X12650582Y-13043479D01*
X12650582Y-13043479D02*
X12660105Y-13081574D01*
X12660105Y-13081574D02*
X12660105Y-13129193D01*
X12660105Y-13129193D02*
X12650582Y-13167288D01*
X12650582Y-13167288D02*
X12641058Y-13186336D01*
X12641058Y-13186336D02*
X12631534Y-13195860D01*
X12631534Y-13195860D02*
X12612486Y-13205384D01*
X12612486Y-13205384D02*
X12593439Y-13205384D01*
X12593439Y-13205384D02*
X12574391Y-13195860D01*
X12574391Y-13195860D02*
X12564867Y-13186336D01*
X12564867Y-13186336D02*
X12555343Y-13167288D01*
X12555343Y-13167288D02*
X12545820Y-13129193D01*
X12545820Y-13129193D02*
X12545820Y-13081574D01*
X12545820Y-13081574D02*
X12555343Y-13043479D01*
X12555343Y-13043479D02*
X12564867Y-13024431D01*
X12564867Y-13024431D02*
X12574391Y-13014908D01*
X12574391Y-13014908D02*
X12593439Y-13005384D01*
X12745820Y-13205384D02*
X12745820Y-13072050D01*
X12745820Y-13091098D02*
X12755343Y-13081574D01*
X12755343Y-13081574D02*
X12774391Y-13072050D01*
X12774391Y-13072050D02*
X12802963Y-13072050D01*
X12802963Y-13072050D02*
X12822010Y-13081574D01*
X12822010Y-13081574D02*
X12831534Y-13100622D01*
X12831534Y-13100622D02*
X12831534Y-13205384D01*
X12831534Y-13100622D02*
X12841058Y-13081574D01*
X12841058Y-13081574D02*
X12860105Y-13072050D01*
X12860105Y-13072050D02*
X12888677Y-13072050D01*
X12888677Y-13072050D02*
X12907724Y-13081574D01*
X12907724Y-13081574D02*
X12917248Y-13100622D01*
X12917248Y-13100622D02*
X12917248Y-13205384D01*
X13012486Y-13205384D02*
X13012486Y-13072050D01*
X13012486Y-13091098D02*
X13022010Y-13081574D01*
X13022010Y-13081574D02*
X13041058Y-13072050D01*
X13041058Y-13072050D02*
X13069629Y-13072050D01*
X13069629Y-13072050D02*
X13088677Y-13081574D01*
X13088677Y-13081574D02*
X13098201Y-13100622D01*
X13098201Y-13100622D02*
X13098201Y-13205384D01*
X13098201Y-13100622D02*
X13107724Y-13081574D01*
X13107724Y-13081574D02*
X13126772Y-13072050D01*
X13126772Y-13072050D02*
X13155343Y-13072050D01*
X13155343Y-13072050D02*
X13174391Y-13081574D01*
X13174391Y-13081574D02*
X13183915Y-13100622D01*
X13183915Y-13100622D02*
X13183915Y-13205384D01*
X13574391Y-12995860D02*
X13402963Y-13253003D01*
X13831534Y-13005384D02*
X13850582Y-13005384D01*
X13850582Y-13005384D02*
X13869629Y-13014908D01*
X13869629Y-13014908D02*
X13879153Y-13024431D01*
X13879153Y-13024431D02*
X13888677Y-13043479D01*
X13888677Y-13043479D02*
X13898201Y-13081574D01*
X13898201Y-13081574D02*
X13898201Y-13129193D01*
X13898201Y-13129193D02*
X13888677Y-13167288D01*
X13888677Y-13167288D02*
X13879153Y-13186336D01*
X13879153Y-13186336D02*
X13869629Y-13195860D01*
X13869629Y-13195860D02*
X13850582Y-13205384D01*
X13850582Y-13205384D02*
X13831534Y-13205384D01*
X13831534Y-13205384D02*
X13812486Y-13195860D01*
X13812486Y-13195860D02*
X13802963Y-13186336D01*
X13802963Y-13186336D02*
X13793439Y-13167288D01*
X13793439Y-13167288D02*
X13783915Y-13129193D01*
X13783915Y-13129193D02*
X13783915Y-13081574D01*
X13783915Y-13081574D02*
X13793439Y-13043479D01*
X13793439Y-13043479D02*
X13802963Y-13024431D01*
X13802963Y-13024431D02*
X13812486Y-13014908D01*
X13812486Y-13014908D02*
X13831534Y-13005384D01*
X13983915Y-13186336D02*
X13993439Y-13195860D01*
X13993439Y-13195860D02*
X13983915Y-13205384D01*
X13983915Y-13205384D02*
X13974391Y-13195860D01*
X13974391Y-13195860D02*
X13983915Y-13186336D01*
X13983915Y-13186336D02*
X13983915Y-13205384D01*
X14117248Y-13005384D02*
X14136296Y-13005384D01*
X14136296Y-13005384D02*
X14155344Y-13014908D01*
X14155344Y-13014908D02*
X14164867Y-13024431D01*
X14164867Y-13024431D02*
X14174391Y-13043479D01*
X14174391Y-13043479D02*
X14183915Y-13081574D01*
X14183915Y-13081574D02*
X14183915Y-13129193D01*
X14183915Y-13129193D02*
X14174391Y-13167288D01*
X14174391Y-13167288D02*
X14164867Y-13186336D01*
X14164867Y-13186336D02*
X14155344Y-13195860D01*
X14155344Y-13195860D02*
X14136296Y-13205384D01*
X14136296Y-13205384D02*
X14117248Y-13205384D01*
X14117248Y-13205384D02*
X14098201Y-13195860D01*
X14098201Y-13195860D02*
X14088677Y-13186336D01*
X14088677Y-13186336D02*
X14079153Y-13167288D01*
X14079153Y-13167288D02*
X14069629Y-13129193D01*
X14069629Y-13129193D02*
X14069629Y-13081574D01*
X14069629Y-13081574D02*
X14079153Y-13043479D01*
X14079153Y-13043479D02*
X14088677Y-13024431D01*
X14088677Y-13024431D02*
X14098201Y-13014908D01*
X14098201Y-13014908D02*
X14117248Y-13005384D01*
X14364867Y-13005384D02*
X14269629Y-13005384D01*
X14269629Y-13005384D02*
X14260106Y-13100622D01*
X14260106Y-13100622D02*
X14269629Y-13091098D01*
X14269629Y-13091098D02*
X14288677Y-13081574D01*
X14288677Y-13081574D02*
X14336296Y-13081574D01*
X14336296Y-13081574D02*
X14355344Y-13091098D01*
X14355344Y-13091098D02*
X14364867Y-13100622D01*
X14364867Y-13100622D02*
X14374391Y-13119669D01*
X14374391Y-13119669D02*
X14374391Y-13167288D01*
X14374391Y-13167288D02*
X14364867Y-13186336D01*
X14364867Y-13186336D02*
X14355344Y-13195860D01*
X14355344Y-13195860D02*
X14336296Y-13205384D01*
X14336296Y-13205384D02*
X14288677Y-13205384D01*
X14288677Y-13205384D02*
X14269629Y-13195860D01*
X14269629Y-13195860D02*
X14260106Y-13186336D01*
X14564867Y-13205384D02*
X14450582Y-13205384D01*
X14507725Y-13205384D02*
X14507725Y-13005384D01*
X14507725Y-13005384D02*
X14488677Y-13033955D01*
X14488677Y-13033955D02*
X14469629Y-13053003D01*
X14469629Y-13053003D02*
X14450582Y-13062527D01*
X14641058Y-13024431D02*
X14650582Y-13014908D01*
X14650582Y-13014908D02*
X14669629Y-13005384D01*
X14669629Y-13005384D02*
X14717248Y-13005384D01*
X14717248Y-13005384D02*
X14736296Y-13014908D01*
X14736296Y-13014908D02*
X14745820Y-13024431D01*
X14745820Y-13024431D02*
X14755344Y-13043479D01*
X14755344Y-13043479D02*
X14755344Y-13062527D01*
X14755344Y-13062527D02*
X14745820Y-13091098D01*
X14745820Y-13091098D02*
X14631534Y-13205384D01*
X14631534Y-13205384D02*
X14755344Y-13205384D01*
X14831534Y-13005384D02*
X14831534Y-13043479D01*
X14907725Y-13005384D02*
X14907725Y-13043479D01*
X15202963Y-13281574D02*
X15193439Y-13272050D01*
X15193439Y-13272050D02*
X15174391Y-13243479D01*
X15174391Y-13243479D02*
X15164868Y-13224431D01*
X15164868Y-13224431D02*
X15155344Y-13195860D01*
X15155344Y-13195860D02*
X15145820Y-13148241D01*
X15145820Y-13148241D02*
X15145820Y-13110146D01*
X15145820Y-13110146D02*
X15155344Y-13062527D01*
X15155344Y-13062527D02*
X15164868Y-13033955D01*
X15164868Y-13033955D02*
X15174391Y-13014908D01*
X15174391Y-13014908D02*
X15193439Y-12986336D01*
X15193439Y-12986336D02*
X15202963Y-12976812D01*
X15260106Y-13005384D02*
X15383915Y-13005384D01*
X15383915Y-13005384D02*
X15317248Y-13081574D01*
X15317248Y-13081574D02*
X15345820Y-13081574D01*
X15345820Y-13081574D02*
X15364868Y-13091098D01*
X15364868Y-13091098D02*
X15374391Y-13100622D01*
X15374391Y-13100622D02*
X15383915Y-13119669D01*
X15383915Y-13119669D02*
X15383915Y-13167288D01*
X15383915Y-13167288D02*
X15374391Y-13186336D01*
X15374391Y-13186336D02*
X15364868Y-13195860D01*
X15364868Y-13195860D02*
X15345820Y-13205384D01*
X15345820Y-13205384D02*
X15288677Y-13205384D01*
X15288677Y-13205384D02*
X15269629Y-13195860D01*
X15269629Y-13195860D02*
X15260106Y-13186336D01*
X15622010Y-13205384D02*
X15622010Y-13005384D01*
X15707725Y-13205384D02*
X15707725Y-13100622D01*
X15707725Y-13100622D02*
X15698201Y-13081574D01*
X15698201Y-13081574D02*
X15679153Y-13072050D01*
X15679153Y-13072050D02*
X15650582Y-13072050D01*
X15650582Y-13072050D02*
X15631534Y-13081574D01*
X15631534Y-13081574D02*
X15622010Y-13091098D01*
X15831534Y-13205384D02*
X15812487Y-13195860D01*
X15812487Y-13195860D02*
X15802963Y-13186336D01*
X15802963Y-13186336D02*
X15793439Y-13167288D01*
X15793439Y-13167288D02*
X15793439Y-13110146D01*
X15793439Y-13110146D02*
X15802963Y-13091098D01*
X15802963Y-13091098D02*
X15812487Y-13081574D01*
X15812487Y-13081574D02*
X15831534Y-13072050D01*
X15831534Y-13072050D02*
X15860106Y-13072050D01*
X15860106Y-13072050D02*
X15879153Y-13081574D01*
X15879153Y-13081574D02*
X15888677Y-13091098D01*
X15888677Y-13091098D02*
X15898201Y-13110146D01*
X15898201Y-13110146D02*
X15898201Y-13167288D01*
X15898201Y-13167288D02*
X15888677Y-13186336D01*
X15888677Y-13186336D02*
X15879153Y-13195860D01*
X15879153Y-13195860D02*
X15860106Y-13205384D01*
X15860106Y-13205384D02*
X15831534Y-13205384D01*
X16012487Y-13205384D02*
X15993439Y-13195860D01*
X15993439Y-13195860D02*
X15983915Y-13176812D01*
X15983915Y-13176812D02*
X15983915Y-13005384D01*
X16164868Y-13195860D02*
X16145820Y-13205384D01*
X16145820Y-13205384D02*
X16107725Y-13205384D01*
X16107725Y-13205384D02*
X16088677Y-13195860D01*
X16088677Y-13195860D02*
X16079153Y-13176812D01*
X16079153Y-13176812D02*
X16079153Y-13100622D01*
X16079153Y-13100622D02*
X16088677Y-13081574D01*
X16088677Y-13081574D02*
X16107725Y-13072050D01*
X16107725Y-13072050D02*
X16145820Y-13072050D01*
X16145820Y-13072050D02*
X16164868Y-13081574D01*
X16164868Y-13081574D02*
X16174391Y-13100622D01*
X16174391Y-13100622D02*
X16174391Y-13119669D01*
X16174391Y-13119669D02*
X16079153Y-13138717D01*
X16250582Y-13195860D02*
X16269630Y-13205384D01*
X16269630Y-13205384D02*
X16307725Y-13205384D01*
X16307725Y-13205384D02*
X16326772Y-13195860D01*
X16326772Y-13195860D02*
X16336296Y-13176812D01*
X16336296Y-13176812D02*
X16336296Y-13167288D01*
X16336296Y-13167288D02*
X16326772Y-13148241D01*
X16326772Y-13148241D02*
X16307725Y-13138717D01*
X16307725Y-13138717D02*
X16279153Y-13138717D01*
X16279153Y-13138717D02*
X16260106Y-13129193D01*
X16260106Y-13129193D02*
X16250582Y-13110146D01*
X16250582Y-13110146D02*
X16250582Y-13100622D01*
X16250582Y-13100622D02*
X16260106Y-13081574D01*
X16260106Y-13081574D02*
X16279153Y-13072050D01*
X16279153Y-13072050D02*
X16307725Y-13072050D01*
X16307725Y-13072050D02*
X16326772Y-13081574D01*
X16402963Y-13281574D02*
X16412487Y-13272050D01*
X16412487Y-13272050D02*
X16431534Y-13243479D01*
X16431534Y-13243479D02*
X16441058Y-13224431D01*
X16441058Y-13224431D02*
X16450582Y-13195860D01*
X16450582Y-13195860D02*
X16460106Y-13148241D01*
X16460106Y-13148241D02*
X16460106Y-13110146D01*
X16460106Y-13110146D02*
X16450582Y-13062527D01*
X16450582Y-13062527D02*
X16441058Y-13033955D01*
X16441058Y-13033955D02*
X16431534Y-13014908D01*
X16431534Y-13014908D02*
X16412487Y-12986336D01*
X16412487Y-12986336D02*
X16402963Y-12976812D01*
M02*
