G04 #@! TF.GenerationSoftware,KiCad,Pcbnew,9.0.7*
G04 #@! TF.CreationDate,2026-02-28T12:09:14-03:00*
G04 #@! TF.ProjectId,power_supply,706f7765-725f-4737-9570-706c792e6b69,rev?*
G04 #@! TF.SameCoordinates,Original*
G04 #@! TF.FileFunction,Copper,L2,Bot*
G04 #@! TF.FilePolarity,Positive*
%FSLAX46Y46*%
G04 Gerber Fmt 4.6, Leading zero omitted, Abs format (unit mm)*
G04 Created by KiCad (PCBNEW 9.0.7) date 2026-02-28 12:09:14*
%MOMM*%
%LPD*%
G01*
G04 APERTURE LIST*
G04 Aperture macros list*
%AMRoundRect*
0 Rectangle with rounded corners*
0 $1 Rounding radius*
0 $2 $3 $4 $5 $6 $7 $8 $9 X,Y pos of 4 corners*
0 Add a 4 corners polygon primitive as box body*
4,1,4,$2,$3,$4,$5,$6,$7,$8,$9,$2,$3,0*
0 Add four circle primitives for the rounded corners*
1,1,$1+$1,$2,$3*
1,1,$1+$1,$4,$5*
1,1,$1+$1,$6,$7*
1,1,$1+$1,$8,$9*
0 Add four rect primitives between the rounded corners*
20,1,$1+$1,$2,$3,$4,$5,0*
20,1,$1+$1,$4,$5,$6,$7,0*
20,1,$1+$1,$6,$7,$8,$9,0*
20,1,$1+$1,$8,$9,$2,$3,0*%
G04 Aperture macros list end*
G04 #@! TA.AperFunction,HeatsinkPad*
%ADD10C,0.500000*%
G04 #@! TD*
G04 #@! TA.AperFunction,HeatsinkPad*
%ADD11R,1.900000X2.900000*%
G04 #@! TD*
G04 #@! TA.AperFunction,ComponentPad*
%ADD12C,2.600000*%
G04 #@! TD*
G04 #@! TA.AperFunction,ComponentPad*
%ADD13O,2.190000X1.740000*%
G04 #@! TD*
G04 #@! TA.AperFunction,ComponentPad*
%ADD14RoundRect,0.250000X-0.845000X0.620000X-0.845000X-0.620000X0.845000X-0.620000X0.845000X0.620000X0*%
G04 #@! TD*
G04 #@! TA.AperFunction,ComponentPad*
%ADD15R,1.700000X1.700000*%
G04 #@! TD*
G04 #@! TA.AperFunction,ComponentPad*
%ADD16C,1.700000*%
G04 #@! TD*
G04 #@! TA.AperFunction,ComponentPad*
%ADD17O,1.900000X1.100000*%
G04 #@! TD*
G04 #@! TA.AperFunction,ComponentPad*
%ADD18RoundRect,0.250000X-0.600000X-0.750000X0.600000X-0.750000X0.600000X0.750000X-0.600000X0.750000X0*%
G04 #@! TD*
G04 #@! TA.AperFunction,ComponentPad*
%ADD19O,1.700000X2.000000*%
G04 #@! TD*
G04 #@! TA.AperFunction,ComponentPad*
%ADD20C,1.270000*%
G04 #@! TD*
G04 #@! TA.AperFunction,ViaPad*
%ADD21C,0.800000*%
G04 #@! TD*
G04 #@! TA.AperFunction,ViaPad*
%ADD22C,0.600000*%
G04 #@! TD*
G04 #@! TA.AperFunction,Conductor*
%ADD23C,0.500000*%
G04 #@! TD*
G04 #@! TA.AperFunction,Conductor*
%ADD24C,0.800000*%
G04 #@! TD*
G04 #@! TA.AperFunction,Conductor*
%ADD25C,0.250000*%
G04 #@! TD*
G04 APERTURE END LIST*
D10*
G04 #@! TO.P,U1,9,EPAD*
G04 #@! TO.N,GND*
X149454000Y-88034000D03*
X149454000Y-89234000D03*
X149454000Y-90434000D03*
D11*
X150004000Y-89234000D03*
D10*
X150554000Y-88034000D03*
X150554000Y-89234000D03*
X150554000Y-90434000D03*
G04 #@! TD*
D12*
G04 #@! TO.P,TP1,1,1*
G04 #@! TO.N,Net-(D1-K)*
X132104000Y-102734000D03*
G04 #@! TD*
D13*
G04 #@! TO.P,J2,4,VBat*
G04 #@! TO.N,V_{bat}*
X169504000Y-96184000D03*
G04 #@! TO.P,J2,3,Vusb*
G04 #@! TO.N,V_{in}*
X169504000Y-93644000D03*
G04 #@! TO.P,J2,2,GND*
G04 #@! TO.N,GND*
X169504000Y-91104000D03*
D14*
G04 #@! TO.P,J2,1,Vout*
G04 #@! TO.N,Net-(J2-Vout)*
X169504000Y-88564000D03*
G04 #@! TD*
D15*
G04 #@! TO.P,JP1,1,A*
G04 #@! TO.N,Net-(BT1-+)*
X135304000Y-97259000D03*
D16*
G04 #@! TO.P,JP1,2,B*
G04 #@! TO.N,V_{bat}*
X135304000Y-94719000D03*
G04 #@! TD*
D12*
G04 #@! TO.P,TP2,1,1*
G04 #@! TO.N,GND*
X136754000Y-102734000D03*
G04 #@! TD*
D15*
G04 #@! TO.P,JP2,1,A*
G04 #@! TO.N,Net-(JP2-A)*
X125389000Y-85234000D03*
D16*
G04 #@! TO.P,JP2,2,B*
G04 #@! TO.N,V_{in}*
X127929000Y-85234000D03*
G04 #@! TD*
D17*
G04 #@! TO.P,J1,7,SHIELD*
G04 #@! TO.N,GND*
X121964000Y-89914000D03*
X118154000Y-89914000D03*
X121964000Y-98554000D03*
X118154000Y-98554000D03*
G04 #@! TD*
D12*
G04 #@! TO.P,TP3,1,1*
G04 #@! TO.N,Net-(J2-Vout)*
X169704000Y-84884000D03*
G04 #@! TD*
D15*
G04 #@! TO.P,JP3,1,A*
G04 #@! TO.N,Net-(D1-K)*
X127029000Y-96734000D03*
D16*
G04 #@! TO.P,JP3,2,B*
G04 #@! TO.N,Net-(JP3-B)*
X129569000Y-96734000D03*
G04 #@! TD*
D18*
G04 #@! TO.P,BT1,1,+*
G04 #@! TO.N,Net-(BT1-+)*
X140804000Y-95684000D03*
D19*
G04 #@! TO.P,BT1,2,-*
G04 #@! TO.N,GND*
X143304000Y-95684000D03*
G04 #@! TD*
D20*
G04 #@! TO.P,F1,1*
G04 #@! TO.N,Net-(D4-K)*
X161704000Y-89784000D03*
G04 #@! TO.P,F1,2*
G04 #@! TO.N,Net-(J2-Vout)*
X163304000Y-84684000D03*
G04 #@! TD*
D21*
G04 #@! TO.N,GND*
X162304000Y-97234000D03*
X160804000Y-92234000D03*
X148554000Y-96484000D03*
X153554000Y-94234000D03*
X155304000Y-94234000D03*
X159304000Y-97984000D03*
X150554000Y-95234000D03*
X136204000Y-90034000D03*
X157054000Y-94234000D03*
G04 #@! TO.N,V_{bat}*
X157904000Y-89734000D03*
G04 #@! TO.N,V_{in}*
X161361050Y-88234000D03*
X153604000Y-84834000D03*
D22*
G04 #@! TO.N,Net-(U1-~{CHRG})*
X145804000Y-84984000D03*
X154504000Y-88634000D03*
G04 #@! TO.N,Net-(U1-~{STDBY})*
X145804000Y-87234000D03*
X154504000Y-89934000D03*
G04 #@! TD*
D23*
G04 #@! TO.N,V_{bat}*
X159404000Y-91234000D02*
X164554000Y-91234000D01*
X164554000Y-91234000D02*
X169504000Y-96184000D01*
X157904000Y-89734000D02*
X159404000Y-91234000D01*
X155004000Y-92634000D02*
X137389000Y-92634000D01*
X137389000Y-92634000D02*
X135304000Y-94719000D01*
X157904000Y-89734000D02*
X155004000Y-92634000D01*
D24*
G04 #@! TO.N,V_{in}*
X169364000Y-93644000D02*
X169504000Y-93644000D01*
X153604000Y-84834000D02*
X157004000Y-88234000D01*
X157004000Y-88234000D02*
X161361050Y-88234000D01*
D25*
G04 #@! TO.N,Net-(U1-~{CHRG})*
X154504000Y-88634000D02*
X150854000Y-84984000D01*
X150854000Y-84984000D02*
X145804000Y-84984000D01*
G04 #@! TO.N,Net-(U1-~{STDBY})*
X154504000Y-89934000D02*
X150204000Y-85634000D01*
X150204000Y-85634000D02*
X147404000Y-85634000D01*
X147404000Y-85634000D02*
X145804000Y-87234000D01*
G04 #@! TD*
G04 #@! TA.AperFunction,Conductor*
G04 #@! TO.N,GND*
G36*
X172746539Y-82754185D02*
G01*
X172792294Y-82806989D01*
X172803500Y-82858500D01*
X172803500Y-105609500D01*
X172783815Y-105676539D01*
X172731011Y-105722294D01*
X172679500Y-105733500D01*
X116928500Y-105733500D01*
X116861461Y-105713815D01*
X116815706Y-105661011D01*
X116804500Y-105609500D01*
X116804500Y-103652592D01*
X117977500Y-103652592D01*
X117977500Y-103815407D01*
X118009259Y-103975073D01*
X118009262Y-103975082D01*
X118071562Y-104125490D01*
X118071563Y-104125492D01*
X118162015Y-104260862D01*
X118162018Y-104260866D01*
X118277133Y-104375981D01*
X118277137Y-104375984D01*
X118412505Y-104466435D01*
X118412506Y-104466435D01*
X118412507Y-104466436D01*
X118412509Y-104466437D01*
X118512781Y-104507970D01*
X118562919Y-104528738D01*
X118562921Y-104528738D01*
X118562926Y-104528740D01*
X118722592Y-104560499D01*
X118722595Y-104560500D01*
X118722597Y-104560500D01*
X118885405Y-104560500D01*
X118885406Y-104560499D01*
X118938629Y-104549912D01*
X119045073Y-104528740D01*
X119045076Y-104528738D01*
X119045081Y-104528738D01*
X119195495Y-104466435D01*
X119330863Y-104375984D01*
X119445984Y-104260863D01*
X119536435Y-104125495D01*
X119598738Y-103975081D01*
X119630500Y-103815403D01*
X119630500Y-103652597D01*
X119630500Y-103652594D01*
X119630499Y-103652592D01*
X119598740Y-103492926D01*
X119598737Y-103492917D01*
X119536437Y-103342509D01*
X119536436Y-103342507D01*
X119517383Y-103313993D01*
X119445984Y-103207137D01*
X119445981Y-103207133D01*
X119330866Y-103092018D01*
X119330862Y-103092015D01*
X119195492Y-103001563D01*
X119195490Y-103001562D01*
X119045082Y-102939262D01*
X119045073Y-102939259D01*
X118885406Y-102907500D01*
X118885403Y-102907500D01*
X118722597Y-102907500D01*
X118722594Y-102907500D01*
X118562926Y-102939259D01*
X118562917Y-102939262D01*
X118412509Y-103001562D01*
X118412507Y-103001563D01*
X118277137Y-103092015D01*
X118277133Y-103092018D01*
X118162018Y-103207133D01*
X118162015Y-103207137D01*
X118071563Y-103342507D01*
X118071562Y-103342509D01*
X118009262Y-103492917D01*
X118009259Y-103492926D01*
X117977500Y-103652592D01*
X116804500Y-103652592D01*
X116804500Y-102615995D01*
X130303500Y-102615995D01*
X130303500Y-102852004D01*
X130303501Y-102852020D01*
X130334306Y-103086010D01*
X130395394Y-103313993D01*
X130485714Y-103532045D01*
X130485719Y-103532056D01*
X130555312Y-103652592D01*
X130603727Y-103736450D01*
X130603729Y-103736453D01*
X130603730Y-103736454D01*
X130747406Y-103923697D01*
X130747412Y-103923704D01*
X130914295Y-104090587D01*
X130914302Y-104090593D01*
X131024306Y-104175001D01*
X131101550Y-104234273D01*
X131232918Y-104310118D01*
X131305943Y-104352280D01*
X131305948Y-104352282D01*
X131305951Y-104352284D01*
X131524007Y-104442606D01*
X131751986Y-104503693D01*
X131985989Y-104534500D01*
X131985996Y-104534500D01*
X132222004Y-104534500D01*
X132222011Y-104534500D01*
X132456014Y-104503693D01*
X132683993Y-104442606D01*
X132902049Y-104352284D01*
X133106450Y-104234273D01*
X133293699Y-104090592D01*
X133311446Y-104072845D01*
X133348648Y-104035644D01*
X133460587Y-103923704D01*
X133460592Y-103923699D01*
X133604273Y-103736450D01*
X133722284Y-103532049D01*
X133812606Y-103313993D01*
X133873693Y-103086014D01*
X133904500Y-102852011D01*
X133904500Y-102616014D01*
X134954000Y-102616014D01*
X134954000Y-102851985D01*
X134984799Y-103085914D01*
X135045870Y-103313837D01*
X135136160Y-103531819D01*
X135136165Y-103531828D01*
X135254144Y-103736171D01*
X135254145Y-103736172D01*
X135316721Y-103817723D01*
X136152958Y-102981487D01*
X136177978Y-103041890D01*
X136249112Y-103148351D01*
X136339649Y-103238888D01*
X136446110Y-103310022D01*
X136506511Y-103335041D01*
X135670275Y-104171277D01*
X135751827Y-104233854D01*
X135751828Y-104233855D01*
X135956171Y-104351834D01*
X135956180Y-104351839D01*
X136174163Y-104442129D01*
X136174161Y-104442129D01*
X136402085Y-104503200D01*
X136636014Y-104533999D01*
X136636029Y-104534000D01*
X136871971Y-104534000D01*
X136871985Y-104533999D01*
X137105914Y-104503200D01*
X137333837Y-104442129D01*
X137551819Y-104351839D01*
X137551828Y-104351834D01*
X137756181Y-104233850D01*
X137837723Y-104171279D01*
X137837723Y-104171276D01*
X137001487Y-103335041D01*
X137061890Y-103310022D01*
X137168351Y-103238888D01*
X137258888Y-103148351D01*
X137330022Y-103041890D01*
X137355041Y-102981488D01*
X138191276Y-103817723D01*
X138191279Y-103817723D01*
X138253850Y-103736181D01*
X138302111Y-103652592D01*
X141477500Y-103652592D01*
X141477500Y-103815407D01*
X141509259Y-103975073D01*
X141509262Y-103975082D01*
X141571562Y-104125490D01*
X141571563Y-104125492D01*
X141662015Y-104260862D01*
X141662018Y-104260866D01*
X141777133Y-104375981D01*
X141777137Y-104375984D01*
X141912505Y-104466435D01*
X141912506Y-104466435D01*
X141912507Y-104466436D01*
X141912509Y-104466437D01*
X142012781Y-104507970D01*
X142062919Y-104528738D01*
X142062921Y-104528738D01*
X142062926Y-104528740D01*
X142222592Y-104560499D01*
X142222595Y-104560500D01*
X142222597Y-104560500D01*
X142385405Y-104560500D01*
X142385406Y-104560499D01*
X142438629Y-104549912D01*
X142545073Y-104528740D01*
X142545076Y-104528738D01*
X142545081Y-104528738D01*
X142695495Y-104466435D01*
X142830863Y-104375984D01*
X142945984Y-104260863D01*
X143036435Y-104125495D01*
X143098738Y-103975081D01*
X143130500Y-103815403D01*
X143130500Y-103652597D01*
X143130500Y-103652594D01*
X143130499Y-103652592D01*
X143098740Y-103492926D01*
X143098737Y-103492917D01*
X143036437Y-103342509D01*
X143036436Y-103342507D01*
X143017383Y-103313993D01*
X142945984Y-103207137D01*
X142945981Y-103207133D01*
X142846886Y-103108038D01*
X146453500Y-103108038D01*
X146453500Y-103359962D01*
X146480756Y-103532049D01*
X146492910Y-103608785D01*
X146570760Y-103848383D01*
X146685132Y-104072848D01*
X146833201Y-104276649D01*
X146833205Y-104276654D01*
X147011345Y-104454794D01*
X147011350Y-104454798D01*
X147189117Y-104583952D01*
X147215155Y-104602870D01*
X147358184Y-104675747D01*
X147439616Y-104717239D01*
X147439618Y-104717239D01*
X147439621Y-104717241D01*
X147679215Y-104795090D01*
X147928038Y-104834500D01*
X147928039Y-104834500D01*
X148179961Y-104834500D01*
X148179962Y-104834500D01*
X148428785Y-104795090D01*
X148668379Y-104717241D01*
X148892845Y-104602870D01*
X149096656Y-104454793D01*
X149274793Y-104276656D01*
X149422870Y-104072845D01*
X149537241Y-103848379D01*
X149615090Y-103608785D01*
X149654500Y-103359962D01*
X149654500Y-103108038D01*
X168703500Y-103108038D01*
X168703500Y-103359962D01*
X168730756Y-103532049D01*
X168742910Y-103608785D01*
X168820760Y-103848383D01*
X168935132Y-104072848D01*
X169083201Y-104276649D01*
X169083205Y-104276654D01*
X169261345Y-104454794D01*
X169261350Y-104454798D01*
X169439117Y-104583952D01*
X169465155Y-104602870D01*
X169608184Y-104675747D01*
X169689616Y-104717239D01*
X169689618Y-104717239D01*
X169689621Y-104717241D01*
X169929215Y-104795090D01*
X170178038Y-104834500D01*
X170178039Y-104834500D01*
X170429961Y-104834500D01*
X170429962Y-104834500D01*
X170678785Y-104795090D01*
X170918379Y-104717241D01*
X171142845Y-104602870D01*
X171346656Y-104454793D01*
X171524793Y-104276656D01*
X171672870Y-104072845D01*
X171787241Y-103848379D01*
X171865090Y-103608785D01*
X171904500Y-103359962D01*
X171904500Y-103108038D01*
X171865090Y-102859215D01*
X171787241Y-102619621D01*
X171787239Y-102619618D01*
X171787239Y-102619616D01*
X171688642Y-102426110D01*
X171672870Y-102395155D01*
X171552233Y-102229112D01*
X171524798Y-102191350D01*
X171524794Y-102191345D01*
X171346654Y-102013205D01*
X171346649Y-102013201D01*
X171142848Y-101865132D01*
X171142847Y-101865131D01*
X171142845Y-101865130D01*
X171072747Y-101829413D01*
X170918383Y-101750760D01*
X170678785Y-101672910D01*
X170535874Y-101650275D01*
X170429962Y-101633500D01*
X170178038Y-101633500D01*
X170072126Y-101650275D01*
X169929214Y-101672910D01*
X169689616Y-101750760D01*
X169465151Y-101865132D01*
X169261350Y-102013201D01*
X169261345Y-102013205D01*
X169083205Y-102191345D01*
X169083201Y-102191350D01*
X168935132Y-102395151D01*
X168820760Y-102619616D01*
X168742910Y-102859214D01*
X168742910Y-102859215D01*
X168703500Y-103108038D01*
X149654500Y-103108038D01*
X149615090Y-102859215D01*
X149537241Y-102619621D01*
X149537239Y-102619618D01*
X149537239Y-102619616D01*
X149438642Y-102426110D01*
X149422870Y-102395155D01*
X149302233Y-102229112D01*
X149274798Y-102191350D01*
X149274794Y-102191345D01*
X149096654Y-102013205D01*
X149096649Y-102013201D01*
X148892848Y-101865132D01*
X148892847Y-101865131D01*
X148892845Y-101865130D01*
X148822747Y-101829413D01*
X148668383Y-101750760D01*
X148428785Y-101672910D01*
X148285874Y-101650275D01*
X148179962Y-101633500D01*
X147928038Y-101633500D01*
X147822126Y-101650275D01*
X147679214Y-101672910D01*
X147439616Y-101750760D01*
X147215151Y-101865132D01*
X147011350Y-102013201D01*
X147011345Y-102013205D01*
X146833205Y-102191345D01*
X146833201Y-102191350D01*
X146685132Y-102395151D01*
X146570760Y-102619616D01*
X146492910Y-102859214D01*
X146492910Y-102859215D01*
X146453500Y-103108038D01*
X142846886Y-103108038D01*
X142830866Y-103092018D01*
X142830862Y-103092015D01*
X142695492Y-103001563D01*
X142695490Y-103001562D01*
X142545082Y-102939262D01*
X142545073Y-102939259D01*
X142385406Y-102907500D01*
X142385403Y-102907500D01*
X142222597Y-102907500D01*
X142222594Y-102907500D01*
X142062926Y-102939259D01*
X142062917Y-102939262D01*
X141912509Y-103001562D01*
X141912507Y-103001563D01*
X141777137Y-103092015D01*
X141777133Y-103092018D01*
X141662018Y-103207133D01*
X141662015Y-103207137D01*
X141571563Y-103342507D01*
X141571562Y-103342509D01*
X141509262Y-103492917D01*
X141509259Y-103492926D01*
X141477500Y-103652592D01*
X138302111Y-103652592D01*
X138341422Y-103584504D01*
X138371834Y-103531828D01*
X138371839Y-103531819D01*
X138462129Y-103313837D01*
X138523200Y-103085914D01*
X138553999Y-102851985D01*
X138554000Y-102851971D01*
X138554000Y-102616028D01*
X138553999Y-102616014D01*
X138523200Y-102382085D01*
X138462129Y-102154162D01*
X138371839Y-101936180D01*
X138371834Y-101936171D01*
X138253855Y-101731828D01*
X138253854Y-101731827D01*
X138191277Y-101650275D01*
X137355041Y-102486511D01*
X137330022Y-102426110D01*
X137258888Y-102319649D01*
X137168351Y-102229112D01*
X137061890Y-102157978D01*
X137001488Y-102132958D01*
X137837723Y-101296721D01*
X137756172Y-101234145D01*
X137756171Y-101234144D01*
X137551828Y-101116165D01*
X137551819Y-101116160D01*
X137333836Y-101025870D01*
X137333838Y-101025870D01*
X137105914Y-100964799D01*
X136871985Y-100934000D01*
X136636014Y-100934000D01*
X136402085Y-100964799D01*
X136174162Y-101025870D01*
X135956180Y-101116160D01*
X135956171Y-101116165D01*
X135751828Y-101234144D01*
X135751818Y-101234150D01*
X135670275Y-101296720D01*
X135670275Y-101296721D01*
X136506512Y-102132958D01*
X136446110Y-102157978D01*
X136339649Y-102229112D01*
X136249112Y-102319649D01*
X136177978Y-102426110D01*
X136152958Y-102486512D01*
X135316721Y-101650275D01*
X135316720Y-101650275D01*
X135254150Y-101731818D01*
X135254144Y-101731828D01*
X135136165Y-101936171D01*
X135136160Y-101936180D01*
X135045870Y-102154162D01*
X134984799Y-102382085D01*
X134954000Y-102616014D01*
X133904500Y-102616014D01*
X133904500Y-102615989D01*
X133873693Y-102381986D01*
X133812606Y-102154007D01*
X133722284Y-101935951D01*
X133722282Y-101935948D01*
X133722280Y-101935943D01*
X133680118Y-101862918D01*
X133604273Y-101731550D01*
X133460592Y-101544301D01*
X133460587Y-101544295D01*
X133293704Y-101377412D01*
X133293697Y-101377406D01*
X133106454Y-101233730D01*
X133106453Y-101233729D01*
X133106450Y-101233727D01*
X133024957Y-101186677D01*
X132902056Y-101115719D01*
X132902045Y-101115714D01*
X132683993Y-101025394D01*
X132456010Y-100964306D01*
X132222020Y-100933501D01*
X132222017Y-100933500D01*
X132222011Y-100933500D01*
X131985989Y-100933500D01*
X131985983Y-100933500D01*
X131985979Y-100933501D01*
X131751989Y-100964306D01*
X131524006Y-101025394D01*
X131305954Y-101115714D01*
X131305943Y-101115719D01*
X131101545Y-101233730D01*
X130914302Y-101377406D01*
X130914295Y-101377412D01*
X130747412Y-101544295D01*
X130747406Y-101544302D01*
X130603730Y-101731545D01*
X130603727Y-101731549D01*
X130603727Y-101731550D01*
X130596014Y-101744909D01*
X130485719Y-101935943D01*
X130485714Y-101935954D01*
X130395394Y-102154006D01*
X130334306Y-102381989D01*
X130303501Y-102615979D01*
X130303500Y-102615995D01*
X116804500Y-102615995D01*
X116804500Y-99388788D01*
X116824185Y-99321749D01*
X116876989Y-99275994D01*
X116946147Y-99266050D01*
X117009703Y-99295075D01*
X117016181Y-99301107D01*
X117084660Y-99369586D01*
X117084664Y-99369589D01*
X117256631Y-99484494D01*
X117256641Y-99484499D01*
X117447725Y-99563649D01*
X117447733Y-99563651D01*
X117650579Y-99603999D01*
X117650583Y-99604000D01*
X117904000Y-99604000D01*
X117904000Y-98904012D01*
X118404000Y-98904012D01*
X118404000Y-99604000D01*
X118657417Y-99604000D01*
X118657420Y-99603999D01*
X118860266Y-99563651D01*
X118860274Y-99563649D01*
X119051358Y-99484499D01*
X119051368Y-99484494D01*
X119223335Y-99369589D01*
X119223339Y-99369586D01*
X119369586Y-99223339D01*
X119369589Y-99223335D01*
X119484494Y-99051368D01*
X119484499Y-99051358D01*
X119563648Y-98860276D01*
X119563649Y-98860274D01*
X119574843Y-98804000D01*
X118798990Y-98804000D01*
X118834078Y-98768912D01*
X118880158Y-98689099D01*
X118904011Y-98600080D01*
X118904011Y-98507920D01*
X118880158Y-98418901D01*
X118834078Y-98339088D01*
X118798990Y-98304000D01*
X119574843Y-98304000D01*
X120543157Y-98304000D01*
X121319010Y-98304000D01*
X121283922Y-98339088D01*
X121237842Y-98418901D01*
X121213989Y-98507920D01*
X121213989Y-98600080D01*
X121237842Y-98689099D01*
X121283922Y-98768912D01*
X121319010Y-98804000D01*
X120543157Y-98804000D01*
X120554350Y-98860274D01*
X120554351Y-98860276D01*
X120633500Y-99051358D01*
X120633505Y-99051368D01*
X120748410Y-99223335D01*
X120748413Y-99223339D01*
X120894660Y-99369586D01*
X120894664Y-99369589D01*
X121066631Y-99484494D01*
X121066641Y-99484499D01*
X121257725Y-99563649D01*
X121257733Y-99563651D01*
X121460579Y-99603999D01*
X121460583Y-99604000D01*
X121714000Y-99604000D01*
X121714000Y-98904012D01*
X122214000Y-98904012D01*
X122214000Y-99604000D01*
X122467417Y-99604000D01*
X122467420Y-99603999D01*
X122670266Y-99563651D01*
X122670274Y-99563649D01*
X122861358Y-99484499D01*
X122861368Y-99484494D01*
X123033335Y-99369589D01*
X123033339Y-99369586D01*
X123179586Y-99223339D01*
X123179589Y-99223335D01*
X123294494Y-99051368D01*
X123294499Y-99051358D01*
X123373648Y-98860276D01*
X123373649Y-98860274D01*
X123384843Y-98804000D01*
X122608990Y-98804000D01*
X122644078Y-98768912D01*
X122690158Y-98689099D01*
X122714011Y-98600080D01*
X122714011Y-98507920D01*
X122690158Y-98418901D01*
X122644078Y-98339088D01*
X122608990Y-98304000D01*
X123384843Y-98304000D01*
X123373649Y-98247725D01*
X123373648Y-98247723D01*
X123294499Y-98056641D01*
X123294494Y-98056631D01*
X123179589Y-97884664D01*
X123179586Y-97884660D01*
X123033339Y-97738413D01*
X123033335Y-97738410D01*
X122861368Y-97623505D01*
X122861358Y-97623500D01*
X122670274Y-97544350D01*
X122670266Y-97544348D01*
X122467420Y-97504000D01*
X122214000Y-97504000D01*
X122214000Y-98203988D01*
X121714000Y-98203988D01*
X121714000Y-97504000D01*
X121460579Y-97504000D01*
X121257733Y-97544348D01*
X121257725Y-97544350D01*
X121066641Y-97623500D01*
X121066631Y-97623505D01*
X120894664Y-97738410D01*
X120894660Y-97738413D01*
X120748413Y-97884660D01*
X120748410Y-97884664D01*
X120633505Y-98056631D01*
X120633500Y-98056641D01*
X120554351Y-98247723D01*
X120554350Y-98247725D01*
X120543157Y-98304000D01*
X119574843Y-98304000D01*
X119563649Y-98247725D01*
X119563648Y-98247723D01*
X119484499Y-98056641D01*
X119484494Y-98056631D01*
X119369589Y-97884664D01*
X119369586Y-97884660D01*
X119223339Y-97738413D01*
X119223335Y-97738410D01*
X119051368Y-97623505D01*
X119051358Y-97623500D01*
X118860274Y-97544350D01*
X118860266Y-97544348D01*
X118657420Y-97504000D01*
X118404000Y-97504000D01*
X118404000Y-98203988D01*
X117904000Y-98203988D01*
X117904000Y-97504000D01*
X117650579Y-97504000D01*
X117447733Y-97544348D01*
X117447725Y-97544350D01*
X117256641Y-97623500D01*
X117256631Y-97623505D01*
X117084664Y-97738410D01*
X117084660Y-97738413D01*
X117016181Y-97806893D01*
X116954858Y-97840378D01*
X116885166Y-97835394D01*
X116829233Y-97793522D01*
X116804816Y-97728058D01*
X116804500Y-97719212D01*
X116804500Y-95836135D01*
X125678500Y-95836135D01*
X125678500Y-97631870D01*
X125678501Y-97631876D01*
X125684908Y-97691483D01*
X125735202Y-97826328D01*
X125735206Y-97826335D01*
X125821452Y-97941544D01*
X125821455Y-97941547D01*
X125936664Y-98027793D01*
X125936671Y-98027797D01*
X126071517Y-98078091D01*
X126071516Y-98078091D01*
X126078444Y-98078835D01*
X126131127Y-98084500D01*
X127926872Y-98084499D01*
X127986483Y-98078091D01*
X128121331Y-98027796D01*
X128236546Y-97941546D01*
X128322796Y-97826331D01*
X128371810Y-97694916D01*
X128413681Y-97638984D01*
X128479145Y-97614566D01*
X128547418Y-97629417D01*
X128575673Y-97650569D01*
X128689213Y-97764109D01*
X128861179Y-97889048D01*
X128861181Y-97889049D01*
X128861184Y-97889051D01*
X129050588Y-97985557D01*
X129252757Y-98051246D01*
X129462713Y-98084500D01*
X129462714Y-98084500D01*
X129675286Y-98084500D01*
X129675287Y-98084500D01*
X129885243Y-98051246D01*
X130087412Y-97985557D01*
X130276816Y-97889051D01*
X130363138Y-97826335D01*
X130448786Y-97764109D01*
X130448788Y-97764106D01*
X130448792Y-97764104D01*
X130599104Y-97613792D01*
X130599106Y-97613788D01*
X130599109Y-97613786D01*
X130724048Y-97441820D01*
X130724047Y-97441820D01*
X130724051Y-97441816D01*
X130820557Y-97252412D01*
X130886246Y-97050243D01*
X130919500Y-96840287D01*
X130919500Y-96627713D01*
X130886246Y-96417757D01*
X130820557Y-96215588D01*
X130724051Y-96026184D01*
X130724049Y-96026181D01*
X130724048Y-96026179D01*
X130599109Y-95854213D01*
X130448786Y-95703890D01*
X130276820Y-95578951D01*
X130087414Y-95482444D01*
X130087413Y-95482443D01*
X130087412Y-95482443D01*
X129885243Y-95416754D01*
X129885241Y-95416753D01*
X129885240Y-95416753D01*
X129723957Y-95391208D01*
X129675287Y-95383500D01*
X129462713Y-95383500D01*
X129414042Y-95391208D01*
X129252760Y-95416753D01*
X129050585Y-95482444D01*
X128861179Y-95578951D01*
X128689215Y-95703889D01*
X128575673Y-95817431D01*
X128514350Y-95850915D01*
X128444658Y-95845931D01*
X128388725Y-95804059D01*
X128371810Y-95773082D01*
X128322797Y-95641671D01*
X128322793Y-95641664D01*
X128236547Y-95526455D01*
X128236544Y-95526452D01*
X128121335Y-95440206D01*
X128121328Y-95440202D01*
X127986482Y-95389908D01*
X127986483Y-95389908D01*
X127926883Y-95383501D01*
X127926881Y-95383500D01*
X127926873Y-95383500D01*
X127926864Y-95383500D01*
X126131129Y-95383500D01*
X126131123Y-95383501D01*
X126071516Y-95389908D01*
X125936671Y-95440202D01*
X125936664Y-95440206D01*
X125821455Y-95526452D01*
X125821452Y-95526455D01*
X125735206Y-95641664D01*
X125735202Y-95641671D01*
X125684908Y-95776517D01*
X125678501Y-95836116D01*
X125678500Y-95836135D01*
X116804500Y-95836135D01*
X116804500Y-94612713D01*
X133953500Y-94612713D01*
X133953500Y-94825286D01*
X133983671Y-95015782D01*
X133986754Y-95035243D01*
X134035088Y-95184000D01*
X134052444Y-95237414D01*
X134148951Y-95426820D01*
X134273890Y-95598786D01*
X134387430Y-95712326D01*
X134420915Y-95773649D01*
X134415931Y-95843341D01*
X134374059Y-95899274D01*
X134343083Y-95916189D01*
X134211669Y-95965203D01*
X134211664Y-95965206D01*
X134096455Y-96051452D01*
X134096452Y-96051455D01*
X134010206Y-96166664D01*
X134010202Y-96166671D01*
X133959908Y-96301517D01*
X133954458Y-96352217D01*
X133953501Y-96361123D01*
X133953500Y-96361135D01*
X133953500Y-98156870D01*
X133953501Y-98156876D01*
X133959908Y-98216483D01*
X134010202Y-98351328D01*
X134010206Y-98351335D01*
X134096452Y-98466544D01*
X134096455Y-98466547D01*
X134211664Y-98552793D01*
X134211671Y-98552797D01*
X134346517Y-98603091D01*
X134346516Y-98603091D01*
X134353444Y-98603835D01*
X134406127Y-98609500D01*
X136201872Y-98609499D01*
X136261483Y-98603091D01*
X136396331Y-98552796D01*
X136511546Y-98466546D01*
X136597796Y-98351331D01*
X136648091Y-98216483D01*
X136654500Y-98156873D01*
X136654499Y-96361128D01*
X136648091Y-96301517D01*
X136644491Y-96291866D01*
X136597797Y-96166671D01*
X136597793Y-96166664D01*
X136511547Y-96051455D01*
X136511544Y-96051452D01*
X136396335Y-95965206D01*
X136396328Y-95965202D01*
X136264917Y-95916189D01*
X136208983Y-95874318D01*
X136184566Y-95808853D01*
X136199418Y-95740580D01*
X136220567Y-95712328D01*
X136334104Y-95598792D01*
X136401693Y-95505761D01*
X136401742Y-95505711D01*
X136401813Y-95505597D01*
X136459051Y-95426816D01*
X136555557Y-95237412D01*
X136586546Y-95142035D01*
X136591160Y-95130003D01*
X136700522Y-94883983D01*
X139453500Y-94883983D01*
X139453500Y-96484001D01*
X139453501Y-96484018D01*
X139464000Y-96586796D01*
X139464001Y-96586799D01*
X139505973Y-96713459D01*
X139519186Y-96753334D01*
X139611288Y-96902656D01*
X139735344Y-97026712D01*
X139884666Y-97118814D01*
X140051203Y-97173999D01*
X140153991Y-97184500D01*
X141454008Y-97184499D01*
X141556797Y-97173999D01*
X141723334Y-97118814D01*
X141872656Y-97026712D01*
X141996712Y-96902656D01*
X142088814Y-96753334D01*
X142088814Y-96753331D01*
X142092448Y-96747441D01*
X142144395Y-96700716D01*
X142213358Y-96689493D01*
X142277440Y-96717336D01*
X142285668Y-96724856D01*
X142424535Y-96863723D01*
X142424540Y-96863727D01*
X142596442Y-96988620D01*
X142785782Y-97085095D01*
X142987871Y-97150757D01*
X143054000Y-97161231D01*
X143054000Y-96117012D01*
X143111007Y-96149925D01*
X143238174Y-96184000D01*
X143369826Y-96184000D01*
X143496993Y-96149925D01*
X143554000Y-96117012D01*
X143554000Y-97161230D01*
X143620126Y-97150757D01*
X143620129Y-97150757D01*
X143822217Y-97085095D01*
X144011557Y-96988620D01*
X144183459Y-96863727D01*
X144183464Y-96863723D01*
X144333723Y-96713464D01*
X144333727Y-96713459D01*
X144458620Y-96541557D01*
X144555095Y-96352217D01*
X144620757Y-96150130D01*
X144620757Y-96150127D01*
X144654000Y-95940246D01*
X144654000Y-95934000D01*
X143737012Y-95934000D01*
X143769925Y-95876993D01*
X143804000Y-95749826D01*
X143804000Y-95618174D01*
X143769925Y-95491007D01*
X143737012Y-95434000D01*
X144654000Y-95434000D01*
X144654000Y-95427753D01*
X144620757Y-95217872D01*
X144620757Y-95217869D01*
X144555095Y-95015782D01*
X144458620Y-94826442D01*
X144333727Y-94654540D01*
X144333723Y-94654535D01*
X144183464Y-94504276D01*
X144183459Y-94504272D01*
X144011557Y-94379379D01*
X143822215Y-94282903D01*
X143620124Y-94217241D01*
X143554000Y-94206768D01*
X143554000Y-95250988D01*
X143496993Y-95218075D01*
X143369826Y-95184000D01*
X143238174Y-95184000D01*
X143111007Y-95218075D01*
X143054000Y-95250988D01*
X143054000Y-94206768D01*
X143053999Y-94206768D01*
X142987875Y-94217241D01*
X142785784Y-94282903D01*
X142596442Y-94379379D01*
X142424541Y-94504271D01*
X142285668Y-94643144D01*
X142224345Y-94676628D01*
X142154653Y-94671644D01*
X142098720Y-94629772D01*
X142092448Y-94620558D01*
X141996712Y-94465344D01*
X141872657Y-94341289D01*
X141872656Y-94341288D01*
X141723334Y-94249186D01*
X141556797Y-94194001D01*
X141556795Y-94194000D01*
X141454010Y-94183500D01*
X140153998Y-94183500D01*
X140153981Y-94183501D01*
X140051203Y-94194000D01*
X140051200Y-94194001D01*
X139884668Y-94249185D01*
X139884663Y-94249187D01*
X139735342Y-94341289D01*
X139611289Y-94465342D01*
X139519187Y-94614663D01*
X139519185Y-94614668D01*
X139514180Y-94629772D01*
X139464001Y-94781203D01*
X139464001Y-94781204D01*
X139464000Y-94781204D01*
X139453500Y-94883983D01*
X136700522Y-94883983D01*
X137091415Y-94004632D01*
X137117038Y-93967327D01*
X137663548Y-93420819D01*
X137724871Y-93387334D01*
X137751229Y-93384500D01*
X155077920Y-93384500D01*
X155175462Y-93365096D01*
X155222913Y-93355658D01*
X155359495Y-93299084D01*
X155408729Y-93266186D01*
X155482416Y-93216952D01*
X157812783Y-90886583D01*
X157831596Y-90871149D01*
X157835136Y-90868785D01*
X157901818Y-90847924D01*
X157969194Y-90866427D01*
X157972836Y-90868767D01*
X157976398Y-90871146D01*
X157995219Y-90886587D01*
X158925580Y-91816948D01*
X158925584Y-91816951D01*
X159048498Y-91899080D01*
X159048511Y-91899087D01*
X159185082Y-91955656D01*
X159185087Y-91955658D01*
X159185091Y-91955658D01*
X159185092Y-91955659D01*
X159330079Y-91984500D01*
X159330082Y-91984500D01*
X159477917Y-91984500D01*
X164191770Y-91984500D01*
X164258809Y-92004185D01*
X164279451Y-92020819D01*
X167529232Y-95270599D01*
X167559347Y-95319548D01*
X167932751Y-96455177D01*
X167937428Y-96474510D01*
X167938932Y-96484008D01*
X167942246Y-96504926D01*
X168008908Y-96710089D01*
X168106843Y-96902299D01*
X168233641Y-97076821D01*
X168386179Y-97229359D01*
X168560701Y-97356157D01*
X168752911Y-97454092D01*
X168958074Y-97520754D01*
X169037973Y-97533408D01*
X169171134Y-97554500D01*
X169171139Y-97554500D01*
X169836866Y-97554500D01*
X169955230Y-97535752D01*
X170049926Y-97520754D01*
X170255089Y-97454092D01*
X170447299Y-97356157D01*
X170621821Y-97229359D01*
X170774359Y-97076821D01*
X170901157Y-96902299D01*
X170999092Y-96710089D01*
X171065754Y-96504926D01*
X171088529Y-96361129D01*
X171099500Y-96291866D01*
X171099500Y-96076133D01*
X171076988Y-95934000D01*
X171065754Y-95863074D01*
X170999092Y-95657911D01*
X170901157Y-95465701D01*
X170774359Y-95291179D01*
X170621821Y-95138641D01*
X170450704Y-95014317D01*
X170408040Y-94958988D01*
X170402061Y-94889374D01*
X170434667Y-94827580D01*
X170450702Y-94813684D01*
X170621821Y-94689359D01*
X170774359Y-94536821D01*
X170901157Y-94362299D01*
X170999092Y-94170089D01*
X171065754Y-93964926D01*
X171085666Y-93839208D01*
X171099500Y-93751866D01*
X171099500Y-93536133D01*
X171072836Y-93367790D01*
X171065754Y-93323074D01*
X170999092Y-93117911D01*
X170901157Y-92925701D01*
X170774359Y-92751179D01*
X170621821Y-92598641D01*
X170450279Y-92474008D01*
X170407614Y-92418678D01*
X170401635Y-92349064D01*
X170434241Y-92287269D01*
X170450280Y-92273372D01*
X170621491Y-92148979D01*
X170621497Y-92148974D01*
X170773974Y-91996497D01*
X170773974Y-91996496D01*
X170900728Y-91822036D01*
X170998627Y-91629901D01*
X171065266Y-91424809D01*
X171076481Y-91354000D01*
X170046709Y-91354000D01*
X170058452Y-91333661D01*
X170099000Y-91182333D01*
X170099000Y-91025667D01*
X170058452Y-90874339D01*
X170046709Y-90854000D01*
X171076481Y-90854000D01*
X171065266Y-90783190D01*
X170998627Y-90578098D01*
X170900728Y-90385963D01*
X170773974Y-90211503D01*
X170773974Y-90211502D01*
X170631892Y-90069420D01*
X170598407Y-90008097D01*
X170603391Y-89938405D01*
X170645263Y-89882472D01*
X170667177Y-89869353D01*
X170668323Y-89868817D01*
X170668334Y-89868814D01*
X170817656Y-89776712D01*
X170941712Y-89652656D01*
X171033814Y-89503334D01*
X171088999Y-89336797D01*
X171099500Y-89234009D01*
X171099499Y-87893992D01*
X171088999Y-87791203D01*
X171033814Y-87624666D01*
X170941712Y-87475344D01*
X170817656Y-87351288D01*
X170668334Y-87259186D01*
X170501797Y-87204001D01*
X170501795Y-87204000D01*
X170399010Y-87193500D01*
X168608998Y-87193500D01*
X168608981Y-87193501D01*
X168506203Y-87204000D01*
X168506200Y-87204001D01*
X168339668Y-87259185D01*
X168339663Y-87259187D01*
X168190342Y-87351289D01*
X168066289Y-87475342D01*
X167974187Y-87624663D01*
X167974185Y-87624668D01*
X167962490Y-87659961D01*
X167919001Y-87791203D01*
X167919001Y-87791204D01*
X167919000Y-87791204D01*
X167908500Y-87893983D01*
X167908500Y-89234001D01*
X167908501Y-89234018D01*
X167919000Y-89336796D01*
X167919001Y-89336799D01*
X167974185Y-89503331D01*
X167974187Y-89503336D01*
X168005939Y-89554814D01*
X168066288Y-89652656D01*
X168190344Y-89776712D01*
X168339666Y-89868814D01*
X168339667Y-89868814D01*
X168339670Y-89868816D01*
X168340828Y-89869356D01*
X168341488Y-89869937D01*
X168345813Y-89872605D01*
X168345357Y-89873343D01*
X168393268Y-89915527D01*
X168412422Y-89982720D01*
X168392208Y-90049601D01*
X168376108Y-90069420D01*
X168234022Y-90211506D01*
X168107271Y-90385963D01*
X168009372Y-90578098D01*
X167942733Y-90783190D01*
X167931519Y-90854000D01*
X168961291Y-90854000D01*
X168949548Y-90874339D01*
X168909000Y-91025667D01*
X168909000Y-91182333D01*
X168949548Y-91333661D01*
X168961291Y-91354000D01*
X167931519Y-91354000D01*
X167942733Y-91424809D01*
X168009372Y-91629901D01*
X168107271Y-91822036D01*
X168234025Y-91996496D01*
X168234025Y-91996497D01*
X168386502Y-92148974D01*
X168557720Y-92273372D01*
X168600385Y-92328702D01*
X168606364Y-92398316D01*
X168573758Y-92460110D01*
X168557720Y-92474008D01*
X168386177Y-92598642D01*
X168233643Y-92751176D01*
X168233643Y-92751177D01*
X168233641Y-92751179D01*
X168179186Y-92826129D01*
X168106843Y-92925700D01*
X168008910Y-93117906D01*
X168008909Y-93117908D01*
X168008908Y-93117911D01*
X167946457Y-93310115D01*
X167907019Y-93367790D01*
X167842660Y-93394988D01*
X167773814Y-93383073D01*
X167740845Y-93359477D01*
X165032421Y-90651052D01*
X165032414Y-90651046D01*
X164955857Y-90599893D01*
X164955857Y-90599894D01*
X164909491Y-90568913D01*
X164772917Y-90512343D01*
X164772907Y-90512340D01*
X164627920Y-90483500D01*
X164627918Y-90483500D01*
X162824339Y-90483500D01*
X162757300Y-90463815D01*
X162711545Y-90411011D01*
X162701601Y-90341853D01*
X162713854Y-90303206D01*
X162745977Y-90240159D01*
X162756309Y-90219881D01*
X162759031Y-90211503D01*
X162811539Y-90049901D01*
X162811539Y-90049900D01*
X162811540Y-90049897D01*
X162839500Y-89873366D01*
X162839500Y-89694634D01*
X162811540Y-89518103D01*
X162811539Y-89518099D01*
X162811539Y-89518098D01*
X162756310Y-89348121D01*
X162756308Y-89348118D01*
X162756306Y-89348113D01*
X162675167Y-89188868D01*
X162570111Y-89044272D01*
X162443728Y-88917889D01*
X162395529Y-88882870D01*
X162299130Y-88812831D01*
X162233518Y-88779401D01*
X162182721Y-88731427D01*
X162165926Y-88663606D01*
X162175249Y-88621467D01*
X162226944Y-88496666D01*
X162261550Y-88322691D01*
X162261550Y-88145309D01*
X162261550Y-88145306D01*
X162261549Y-88145304D01*
X162226946Y-87971341D01*
X162226943Y-87971332D01*
X162214251Y-87940690D01*
X162194904Y-87893981D01*
X162159066Y-87807458D01*
X162159059Y-87807446D01*
X162060514Y-87659965D01*
X162060511Y-87659961D01*
X161935088Y-87534538D01*
X161935084Y-87534535D01*
X161787603Y-87435990D01*
X161787590Y-87435983D01*
X161623717Y-87368106D01*
X161623708Y-87368103D01*
X161449744Y-87333500D01*
X161449741Y-87333500D01*
X157428362Y-87333500D01*
X157361323Y-87313815D01*
X157340681Y-87297181D01*
X155027687Y-84984186D01*
X154946093Y-84902592D01*
X156377500Y-84902592D01*
X156377500Y-85065407D01*
X156409259Y-85225073D01*
X156409262Y-85225082D01*
X156471562Y-85375490D01*
X156471563Y-85375492D01*
X156562015Y-85510862D01*
X156562018Y-85510866D01*
X156677133Y-85625981D01*
X156677137Y-85625984D01*
X156812505Y-85716435D01*
X156812506Y-85716435D01*
X156812507Y-85716436D01*
X156812509Y-85716437D01*
X156912781Y-85757970D01*
X156962919Y-85778738D01*
X156962921Y-85778738D01*
X156962926Y-85778740D01*
X157122592Y-85810499D01*
X157122595Y-85810500D01*
X157122597Y-85810500D01*
X157285405Y-85810500D01*
X157285406Y-85810499D01*
X157346339Y-85798379D01*
X157445073Y-85778740D01*
X157445076Y-85778738D01*
X157445081Y-85778738D01*
X157595495Y-85716435D01*
X157730863Y-85625984D01*
X157845984Y-85510863D01*
X157936435Y-85375495D01*
X157998738Y-85225081D01*
X158000249Y-85217489D01*
X158030499Y-85065407D01*
X158030500Y-85065405D01*
X158030500Y-84902594D01*
X158030499Y-84902592D01*
X157998740Y-84742926D01*
X157998737Y-84742917D01*
X157987416Y-84715585D01*
X157937317Y-84594634D01*
X162168500Y-84594634D01*
X162168500Y-84773365D01*
X162196460Y-84949898D01*
X162196460Y-84949901D01*
X162251689Y-85119878D01*
X162251691Y-85119881D01*
X162332833Y-85279132D01*
X162437889Y-85423728D01*
X162564272Y-85550111D01*
X162708868Y-85655167D01*
X162868119Y-85736309D01*
X162868121Y-85736310D01*
X163016433Y-85784499D01*
X163038103Y-85791540D01*
X163214634Y-85819500D01*
X163214635Y-85819500D01*
X163393365Y-85819500D01*
X163393366Y-85819500D01*
X163569897Y-85791540D01*
X163569900Y-85791539D01*
X163569901Y-85791539D01*
X163739878Y-85736310D01*
X163739878Y-85736309D01*
X163739881Y-85736309D01*
X163899132Y-85655167D01*
X164043728Y-85550111D01*
X164170111Y-85423728D01*
X164275167Y-85279132D01*
X164356309Y-85119881D01*
X164394607Y-85002011D01*
X164411539Y-84949901D01*
X164411539Y-84949900D01*
X164411540Y-84949897D01*
X164439500Y-84773366D01*
X164439500Y-84765995D01*
X167903500Y-84765995D01*
X167903500Y-85002004D01*
X167903501Y-85002020D01*
X167932867Y-85225082D01*
X167934307Y-85236014D01*
X167971680Y-85375490D01*
X167995394Y-85463993D01*
X168085714Y-85682045D01*
X168085719Y-85682056D01*
X168144866Y-85784500D01*
X168203727Y-85886450D01*
X168203729Y-85886453D01*
X168203730Y-85886454D01*
X168347406Y-86073697D01*
X168347412Y-86073704D01*
X168514295Y-86240587D01*
X168514301Y-86240592D01*
X168701550Y-86384273D01*
X168832918Y-86460118D01*
X168905943Y-86502280D01*
X168905948Y-86502282D01*
X168905951Y-86502284D01*
X169124007Y-86592606D01*
X169351986Y-86653693D01*
X169585989Y-86684500D01*
X169585996Y-86684500D01*
X169822004Y-86684500D01*
X169822011Y-86684500D01*
X170056014Y-86653693D01*
X170283993Y-86592606D01*
X170502049Y-86502284D01*
X170706450Y-86384273D01*
X170893699Y-86240592D01*
X171060592Y-86073699D01*
X171204273Y-85886450D01*
X171322284Y-85682049D01*
X171412606Y-85463993D01*
X171473693Y-85236014D01*
X171504500Y-85002011D01*
X171504500Y-84765989D01*
X171473693Y-84531986D01*
X171412606Y-84304007D01*
X171322284Y-84085951D01*
X171322282Y-84085948D01*
X171322280Y-84085943D01*
X171262524Y-83982444D01*
X171204273Y-83881550D01*
X171065548Y-83700760D01*
X171060593Y-83694302D01*
X171060587Y-83694295D01*
X170893704Y-83527412D01*
X170893697Y-83527406D01*
X170706454Y-83383730D01*
X170706453Y-83383729D01*
X170706450Y-83383727D01*
X170624957Y-83336677D01*
X170502056Y-83265719D01*
X170502045Y-83265714D01*
X170283993Y-83175394D01*
X170056010Y-83114306D01*
X169822020Y-83083501D01*
X169822017Y-83083500D01*
X169822011Y-83083500D01*
X169585989Y-83083500D01*
X169585983Y-83083500D01*
X169585979Y-83083501D01*
X169351989Y-83114306D01*
X169124006Y-83175394D01*
X168905954Y-83265714D01*
X168905943Y-83265719D01*
X168701545Y-83383730D01*
X168514302Y-83527406D01*
X168514295Y-83527412D01*
X168347412Y-83694295D01*
X168347406Y-83694302D01*
X168203730Y-83881545D01*
X168085719Y-84085943D01*
X168085714Y-84085954D01*
X167995394Y-84304006D01*
X167934306Y-84531989D01*
X167903501Y-84765979D01*
X167903500Y-84765995D01*
X164439500Y-84765995D01*
X164439500Y-84594634D01*
X164411540Y-84418103D01*
X164411539Y-84418099D01*
X164411539Y-84418098D01*
X164356310Y-84248121D01*
X164356308Y-84248118D01*
X164341284Y-84218630D01*
X164275167Y-84088868D01*
X164170111Y-83944272D01*
X164043728Y-83817889D01*
X163899132Y-83712833D01*
X163739881Y-83631691D01*
X163739878Y-83631689D01*
X163569899Y-83576460D01*
X163452209Y-83557820D01*
X163393366Y-83548500D01*
X163214634Y-83548500D01*
X163155790Y-83557820D01*
X163038101Y-83576460D01*
X163038098Y-83576460D01*
X162868121Y-83631689D01*
X162868118Y-83631691D01*
X162708867Y-83712833D01*
X162564270Y-83817890D01*
X162437890Y-83944270D01*
X162332833Y-84088867D01*
X162251691Y-84248118D01*
X162251689Y-84248121D01*
X162196460Y-84418098D01*
X162196460Y-84418101D01*
X162168500Y-84594634D01*
X157937317Y-84594634D01*
X157936435Y-84592505D01*
X157845984Y-84457137D01*
X157845981Y-84457133D01*
X157730866Y-84342018D01*
X157730862Y-84342015D01*
X157595492Y-84251563D01*
X157595490Y-84251562D01*
X157445082Y-84189262D01*
X157445073Y-84189259D01*
X157285406Y-84157500D01*
X157285403Y-84157500D01*
X157122597Y-84157500D01*
X157122594Y-84157500D01*
X156962926Y-84189259D01*
X156962917Y-84189262D01*
X156812509Y-84251562D01*
X156812507Y-84251563D01*
X156677137Y-84342015D01*
X156677133Y-84342018D01*
X156562018Y-84457133D01*
X156562015Y-84457137D01*
X156471563Y-84592507D01*
X156471562Y-84592509D01*
X156409262Y-84742917D01*
X156409259Y-84742926D01*
X156377500Y-84902592D01*
X154946093Y-84902592D01*
X154178038Y-84134537D01*
X154147624Y-84114215D01*
X154105323Y-84085951D01*
X154030547Y-84035987D01*
X153948606Y-84002046D01*
X153942949Y-83999703D01*
X153942944Y-83999700D01*
X153866666Y-83968105D01*
X153866658Y-83968103D01*
X153692696Y-83933500D01*
X153692692Y-83933500D01*
X153515308Y-83933500D01*
X153515303Y-83933500D01*
X153341341Y-83968103D01*
X153341329Y-83968106D01*
X153259392Y-84002045D01*
X153259393Y-84002046D01*
X153177455Y-84035985D01*
X153113156Y-84078949D01*
X153102677Y-84085951D01*
X153084620Y-84098016D01*
X153029961Y-84134537D01*
X152904537Y-84259961D01*
X152886957Y-84286272D01*
X152886952Y-84286279D01*
X152884543Y-84289886D01*
X152805987Y-84407453D01*
X152777960Y-84475117D01*
X152774962Y-84482353D01*
X152774961Y-84482356D01*
X152738105Y-84571333D01*
X152738103Y-84571341D01*
X152703500Y-84745303D01*
X152703500Y-84922696D01*
X152731887Y-85065407D01*
X152738105Y-85096666D01*
X152767012Y-85166452D01*
X152805987Y-85260547D01*
X152854092Y-85332541D01*
X152857715Y-85337963D01*
X152857716Y-85337965D01*
X152904537Y-85408038D01*
X156429961Y-88933462D01*
X156466979Y-88958197D01*
X156466985Y-88958200D01*
X156471220Y-88961030D01*
X156577453Y-89032013D01*
X156659393Y-89065953D01*
X156665941Y-89068665D01*
X156665944Y-89068667D01*
X156691402Y-89079212D01*
X156741334Y-89099895D01*
X156915303Y-89134499D01*
X156915307Y-89134500D01*
X156915308Y-89134500D01*
X156915309Y-89134500D01*
X156983594Y-89134500D01*
X157050633Y-89154185D01*
X157096388Y-89206989D01*
X157106332Y-89276147D01*
X157086718Y-89327357D01*
X157027108Y-89416631D01*
X156766851Y-89806400D01*
X156751408Y-89825223D01*
X154729451Y-91847181D01*
X154668128Y-91880666D01*
X154641770Y-91883500D01*
X137315080Y-91883500D01*
X137170092Y-91912340D01*
X137170082Y-91912343D01*
X137033511Y-91968912D01*
X137033498Y-91968919D01*
X136910584Y-92051048D01*
X136910580Y-92051051D01*
X136055678Y-92905953D01*
X136018366Y-92931581D01*
X134892993Y-93431837D01*
X134880944Y-93436458D01*
X134785587Y-93467442D01*
X134650776Y-93536133D01*
X134596184Y-93563949D01*
X134596182Y-93563950D01*
X134596177Y-93563953D01*
X134536914Y-93607009D01*
X134536913Y-93607008D01*
X134535402Y-93608105D01*
X134519005Y-93619307D01*
X134517145Y-93621370D01*
X134509649Y-93626818D01*
X134424214Y-93688891D01*
X134424205Y-93688898D01*
X134273890Y-93839213D01*
X134148951Y-94011179D01*
X134052444Y-94200585D01*
X133986753Y-94402760D01*
X133953500Y-94612713D01*
X116804500Y-94612713D01*
X116804500Y-90748788D01*
X116824185Y-90681749D01*
X116876989Y-90635994D01*
X116946147Y-90626050D01*
X117009703Y-90655075D01*
X117016181Y-90661107D01*
X117084660Y-90729586D01*
X117084664Y-90729589D01*
X117256631Y-90844494D01*
X117256641Y-90844499D01*
X117447725Y-90923649D01*
X117447733Y-90923651D01*
X117650579Y-90963999D01*
X117650583Y-90964000D01*
X117904000Y-90964000D01*
X117904000Y-90264012D01*
X118404000Y-90264012D01*
X118404000Y-90964000D01*
X118657417Y-90964000D01*
X118657420Y-90963999D01*
X118860266Y-90923651D01*
X118860274Y-90923649D01*
X119051358Y-90844499D01*
X119051368Y-90844494D01*
X119223335Y-90729589D01*
X119223339Y-90729586D01*
X119369586Y-90583339D01*
X119369589Y-90583335D01*
X119484494Y-90411368D01*
X119484499Y-90411358D01*
X119563648Y-90220276D01*
X119563649Y-90220274D01*
X119574843Y-90164000D01*
X118798990Y-90164000D01*
X118834078Y-90128912D01*
X118880158Y-90049099D01*
X118904011Y-89960080D01*
X118904011Y-89867920D01*
X118880158Y-89778901D01*
X118834078Y-89699088D01*
X118798990Y-89664000D01*
X119574843Y-89664000D01*
X120543157Y-89664000D01*
X121319010Y-89664000D01*
X121283922Y-89699088D01*
X121237842Y-89778901D01*
X121213989Y-89867920D01*
X121213989Y-89960080D01*
X121237842Y-90049099D01*
X121283922Y-90128912D01*
X121319010Y-90164000D01*
X120543157Y-90164000D01*
X120554350Y-90220274D01*
X120554351Y-90220276D01*
X120633500Y-90411358D01*
X120633505Y-90411368D01*
X120748410Y-90583335D01*
X120748413Y-90583339D01*
X120894660Y-90729586D01*
X120894664Y-90729589D01*
X121066631Y-90844494D01*
X121066641Y-90844499D01*
X121257725Y-90923649D01*
X121257733Y-90923651D01*
X121460579Y-90963999D01*
X121460583Y-90964000D01*
X121714000Y-90964000D01*
X121714000Y-90264012D01*
X122214000Y-90264012D01*
X122214000Y-90964000D01*
X122467417Y-90964000D01*
X122467420Y-90963999D01*
X122670266Y-90923651D01*
X122670274Y-90923649D01*
X122861358Y-90844499D01*
X122861368Y-90844494D01*
X123033335Y-90729589D01*
X123033339Y-90729586D01*
X123179586Y-90583339D01*
X123179589Y-90583335D01*
X123294494Y-90411368D01*
X123294499Y-90411358D01*
X123373648Y-90220276D01*
X123373649Y-90220274D01*
X123384843Y-90164000D01*
X122608990Y-90164000D01*
X122644078Y-90128912D01*
X122690158Y-90049099D01*
X122714011Y-89960080D01*
X122714011Y-89867920D01*
X122690158Y-89778901D01*
X122644078Y-89699088D01*
X122608990Y-89664000D01*
X123384843Y-89664000D01*
X123373649Y-89607725D01*
X123373648Y-89607723D01*
X123294499Y-89416641D01*
X123294494Y-89416631D01*
X123179589Y-89244664D01*
X123179586Y-89244660D01*
X123033339Y-89098413D01*
X123033335Y-89098410D01*
X122861368Y-88983505D01*
X122861358Y-88983500D01*
X122670274Y-88904350D01*
X122670266Y-88904348D01*
X122467420Y-88864000D01*
X122214000Y-88864000D01*
X122214000Y-89563988D01*
X121714000Y-89563988D01*
X121714000Y-88864000D01*
X121460579Y-88864000D01*
X121257733Y-88904348D01*
X121257725Y-88904350D01*
X121066641Y-88983500D01*
X121066631Y-88983505D01*
X120894664Y-89098410D01*
X120894660Y-89098413D01*
X120748413Y-89244660D01*
X120748410Y-89244664D01*
X120633505Y-89416631D01*
X120633500Y-89416641D01*
X120554351Y-89607723D01*
X120554350Y-89607725D01*
X120543157Y-89664000D01*
X119574843Y-89664000D01*
X119563649Y-89607725D01*
X119563648Y-89607723D01*
X119484499Y-89416641D01*
X119484494Y-89416631D01*
X119369589Y-89244664D01*
X119369586Y-89244660D01*
X119223339Y-89098413D01*
X119223335Y-89098410D01*
X119051368Y-88983505D01*
X119051358Y-88983500D01*
X118860274Y-88904350D01*
X118860266Y-88904348D01*
X118657420Y-88864000D01*
X118404000Y-88864000D01*
X118404000Y-89563988D01*
X117904000Y-89563988D01*
X117904000Y-88864000D01*
X117650579Y-88864000D01*
X117447733Y-88904348D01*
X117447725Y-88904350D01*
X117256641Y-88983500D01*
X117256631Y-88983505D01*
X117084664Y-89098410D01*
X117084660Y-89098413D01*
X117016181Y-89166893D01*
X116954858Y-89200378D01*
X116885166Y-89195394D01*
X116829233Y-89153522D01*
X116804816Y-89088058D01*
X116804500Y-89079212D01*
X116804500Y-85058038D01*
X117653500Y-85058038D01*
X117653500Y-85309962D01*
X117669034Y-85408036D01*
X117692910Y-85558785D01*
X117770760Y-85798383D01*
X117885132Y-86022848D01*
X118033201Y-86226649D01*
X118033205Y-86226654D01*
X118211345Y-86404794D01*
X118211350Y-86404798D01*
X118380645Y-86527797D01*
X118415155Y-86552870D01*
X118558184Y-86625747D01*
X118639616Y-86667239D01*
X118639618Y-86667239D01*
X118639621Y-86667241D01*
X118879215Y-86745090D01*
X119128038Y-86784500D01*
X119128039Y-86784500D01*
X119379961Y-86784500D01*
X119379962Y-86784500D01*
X119628785Y-86745090D01*
X119868379Y-86667241D01*
X120092845Y-86552870D01*
X120296656Y-86404793D01*
X120474793Y-86226656D01*
X120622870Y-86022845D01*
X120737241Y-85798379D01*
X120815090Y-85558785D01*
X120854500Y-85309962D01*
X120854500Y-85058038D01*
X120815090Y-84809215D01*
X120737241Y-84569621D01*
X120737239Y-84569618D01*
X120737239Y-84569616D01*
X120688370Y-84473707D01*
X120622870Y-84345155D01*
X120622869Y-84345153D01*
X120616317Y-84336135D01*
X124038500Y-84336135D01*
X124038500Y-86131870D01*
X124038501Y-86131876D01*
X124044908Y-86191483D01*
X124095202Y-86326328D01*
X124095206Y-86326335D01*
X124181452Y-86441544D01*
X124181455Y-86441547D01*
X124296664Y-86527793D01*
X124296671Y-86527797D01*
X124431517Y-86578091D01*
X124431516Y-86578091D01*
X124438444Y-86578835D01*
X124491127Y-86584500D01*
X126286872Y-86584499D01*
X126346483Y-86578091D01*
X126481331Y-86527796D01*
X126596546Y-86441546D01*
X126682796Y-86326331D01*
X126731810Y-86194916D01*
X126773681Y-86138984D01*
X126839145Y-86114566D01*
X126907418Y-86129417D01*
X126935673Y-86150569D01*
X127049213Y-86264109D01*
X127221179Y-86389048D01*
X127221181Y-86389049D01*
X127221184Y-86389051D01*
X127410588Y-86485557D01*
X127612757Y-86551246D01*
X127822713Y-86584500D01*
X127822714Y-86584500D01*
X128035286Y-86584500D01*
X128035287Y-86584500D01*
X128245243Y-86551246D01*
X128447412Y-86485557D01*
X128636816Y-86389051D01*
X128723138Y-86326335D01*
X128808786Y-86264109D01*
X128808788Y-86264106D01*
X128808792Y-86264104D01*
X128959104Y-86113792D01*
X128959106Y-86113788D01*
X128959109Y-86113786D01*
X129084048Y-85941820D01*
X129084047Y-85941820D01*
X129084051Y-85941816D01*
X129180557Y-85752412D01*
X129246246Y-85550243D01*
X129279500Y-85340287D01*
X129279500Y-85127713D01*
X129246246Y-84917757D01*
X129242151Y-84905153D01*
X145003500Y-84905153D01*
X145003500Y-85062846D01*
X145034261Y-85217489D01*
X145034264Y-85217501D01*
X145094602Y-85363172D01*
X145094609Y-85363185D01*
X145182210Y-85494288D01*
X145182213Y-85494292D01*
X145293707Y-85605786D01*
X145293711Y-85605789D01*
X145424814Y-85693390D01*
X145424827Y-85693397D01*
X145567304Y-85752412D01*
X145570503Y-85753737D01*
X145696186Y-85778737D01*
X145725153Y-85784499D01*
X145725156Y-85784500D01*
X145725158Y-85784500D01*
X145882843Y-85784500D01*
X145925589Y-85775996D01*
X146011123Y-85758983D01*
X146027212Y-85756334D01*
X146031919Y-85754845D01*
X146033863Y-85754459D01*
X146037497Y-85753737D01*
X146039162Y-85753046D01*
X146049245Y-85749373D01*
X146084088Y-85738365D01*
X146153942Y-85736941D01*
X146213478Y-85773509D01*
X146243793Y-85836460D01*
X146235261Y-85905807D01*
X146209121Y-85944287D01*
X145861726Y-86291682D01*
X145831241Y-86314022D01*
X145436239Y-86519366D01*
X145436240Y-86519367D01*
X145432353Y-86521388D01*
X145431439Y-86521864D01*
X145424821Y-86524606D01*
X145420106Y-86527756D01*
X145415694Y-86530050D01*
X145415575Y-86530115D01*
X145415527Y-86530141D01*
X145391641Y-86543398D01*
X145390598Y-86544014D01*
X145390576Y-86544029D01*
X145323012Y-86591583D01*
X145312811Y-86599447D01*
X145293717Y-86612205D01*
X145293716Y-86612206D01*
X145182209Y-86723712D01*
X145094609Y-86854814D01*
X145094602Y-86854827D01*
X145034264Y-87000498D01*
X145034261Y-87000510D01*
X145003500Y-87155153D01*
X145003500Y-87312846D01*
X145034261Y-87467489D01*
X145034264Y-87467501D01*
X145094602Y-87613172D01*
X145094609Y-87613185D01*
X145182210Y-87744288D01*
X145182213Y-87744292D01*
X145293707Y-87855786D01*
X145293711Y-87855789D01*
X145424814Y-87943390D01*
X145424827Y-87943397D01*
X145570498Y-88003735D01*
X145570503Y-88003737D01*
X145725153Y-88034499D01*
X145725156Y-88034500D01*
X145725158Y-88034500D01*
X145882844Y-88034500D01*
X145882845Y-88034499D01*
X146037497Y-88003737D01*
X146183179Y-87943394D01*
X146314289Y-87855789D01*
X146425789Y-87744289D01*
X146498450Y-87635543D01*
X146507958Y-87622288D01*
X146510237Y-87617902D01*
X146513394Y-87613179D01*
X146514085Y-87611510D01*
X146518625Y-87601766D01*
X146723975Y-87206757D01*
X146746310Y-87176278D01*
X147626772Y-86295819D01*
X147688095Y-86262334D01*
X147714453Y-86259500D01*
X149893548Y-86259500D01*
X149960587Y-86279185D01*
X149981229Y-86295819D01*
X153561682Y-89876272D01*
X153584022Y-89906757D01*
X153789368Y-90301760D01*
X153789369Y-90301760D01*
X153791861Y-90306554D01*
X153794606Y-90313179D01*
X153797759Y-90317897D01*
X153800046Y-90322297D01*
X153800138Y-90322464D01*
X153800148Y-90322482D01*
X153813273Y-90346146D01*
X153813887Y-90347185D01*
X153813891Y-90347191D01*
X153858787Y-90411011D01*
X153861585Y-90414988D01*
X153869449Y-90425190D01*
X153882210Y-90444288D01*
X153882213Y-90444292D01*
X153993707Y-90555786D01*
X153993711Y-90555789D01*
X154124814Y-90643390D01*
X154124827Y-90643397D01*
X154270498Y-90703735D01*
X154270503Y-90703737D01*
X154400454Y-90729586D01*
X154425153Y-90734499D01*
X154425156Y-90734500D01*
X154425158Y-90734500D01*
X154582844Y-90734500D01*
X154582845Y-90734499D01*
X154737497Y-90703737D01*
X154864691Y-90651052D01*
X154883172Y-90643397D01*
X154883172Y-90643396D01*
X154883179Y-90643394D01*
X155014289Y-90555789D01*
X155125789Y-90444289D01*
X155213394Y-90313179D01*
X155273737Y-90167497D01*
X155304500Y-90012842D01*
X155304500Y-89855158D01*
X155304500Y-89855155D01*
X155304499Y-89855153D01*
X155273737Y-89700503D01*
X155246158Y-89633921D01*
X155213397Y-89554827D01*
X155213390Y-89554814D01*
X155125789Y-89423711D01*
X155125786Y-89423707D01*
X155073760Y-89371681D01*
X155040275Y-89310358D01*
X155045259Y-89240666D01*
X155073760Y-89196319D01*
X155125786Y-89144292D01*
X155125789Y-89144289D01*
X155213394Y-89013179D01*
X155273737Y-88867497D01*
X155304500Y-88712842D01*
X155304500Y-88555158D01*
X155304500Y-88555155D01*
X155304499Y-88555153D01*
X155292865Y-88496666D01*
X155273737Y-88400503D01*
X155241508Y-88322695D01*
X155213397Y-88254827D01*
X155213390Y-88254814D01*
X155125789Y-88123711D01*
X155125786Y-88123707D01*
X155014292Y-88012213D01*
X155014288Y-88012210D01*
X154907253Y-87940691D01*
X154907253Y-87940690D01*
X154905523Y-87939534D01*
X154892288Y-87930042D01*
X154887909Y-87927765D01*
X154883186Y-87924610D01*
X154883172Y-87924602D01*
X154881526Y-87923921D01*
X154871779Y-87919380D01*
X154625218Y-87791203D01*
X154476760Y-87714025D01*
X154446275Y-87691685D01*
X151350144Y-84595554D01*
X151339859Y-84585269D01*
X151339858Y-84585267D01*
X151252733Y-84498142D01*
X151190952Y-84456861D01*
X151150286Y-84429688D01*
X151150287Y-84429688D01*
X151150285Y-84429687D01*
X151150281Y-84429685D01*
X151056754Y-84390946D01*
X151056751Y-84390945D01*
X151048332Y-84387458D01*
X151036452Y-84382537D01*
X150976029Y-84370518D01*
X150973000Y-84369915D01*
X150972994Y-84369914D01*
X150915610Y-84358500D01*
X150915607Y-84358500D01*
X150915606Y-84358500D01*
X146511133Y-84358500D01*
X146473779Y-84352740D01*
X146049264Y-84218630D01*
X146048221Y-84218300D01*
X146044113Y-84217003D01*
X146037497Y-84214263D01*
X146031938Y-84213157D01*
X146027205Y-84211662D01*
X146027036Y-84211613D01*
X146026993Y-84211600D01*
X146000998Y-84204153D01*
X145999801Y-84203845D01*
X145917962Y-84189608D01*
X145905351Y-84187977D01*
X145903625Y-84187633D01*
X145882842Y-84183500D01*
X145725158Y-84183500D01*
X145725155Y-84183500D01*
X145570510Y-84214261D01*
X145570498Y-84214264D01*
X145424827Y-84274602D01*
X145424814Y-84274609D01*
X145293711Y-84362210D01*
X145293707Y-84362213D01*
X145182213Y-84473707D01*
X145182210Y-84473711D01*
X145094609Y-84604814D01*
X145094602Y-84604827D01*
X145034264Y-84750498D01*
X145034261Y-84750510D01*
X145003500Y-84905153D01*
X129242151Y-84905153D01*
X129180557Y-84715588D01*
X129084051Y-84526184D01*
X129084049Y-84526181D01*
X129084048Y-84526179D01*
X128959109Y-84354213D01*
X128808786Y-84203890D01*
X128636820Y-84078951D01*
X128447414Y-83982444D01*
X128447413Y-83982443D01*
X128447412Y-83982443D01*
X128245243Y-83916754D01*
X128245241Y-83916753D01*
X128245240Y-83916753D01*
X128083957Y-83891208D01*
X128035287Y-83883500D01*
X127822713Y-83883500D01*
X127774042Y-83891208D01*
X127612760Y-83916753D01*
X127410585Y-83982444D01*
X127221179Y-84078951D01*
X127049215Y-84203889D01*
X126935673Y-84317431D01*
X126874350Y-84350915D01*
X126804658Y-84345931D01*
X126748725Y-84304059D01*
X126731810Y-84273082D01*
X126682797Y-84141671D01*
X126682793Y-84141664D01*
X126596547Y-84026455D01*
X126596544Y-84026452D01*
X126481335Y-83940206D01*
X126481328Y-83940202D01*
X126346482Y-83889908D01*
X126346483Y-83889908D01*
X126286883Y-83883501D01*
X126286881Y-83883500D01*
X126286873Y-83883500D01*
X126286864Y-83883500D01*
X124491129Y-83883500D01*
X124491123Y-83883501D01*
X124431516Y-83889908D01*
X124296671Y-83940202D01*
X124296664Y-83940206D01*
X124181455Y-84026452D01*
X124181452Y-84026455D01*
X124095206Y-84141664D01*
X124095202Y-84141671D01*
X124044908Y-84276517D01*
X124038501Y-84336116D01*
X124038500Y-84336135D01*
X120616317Y-84336135D01*
X120474798Y-84141350D01*
X120474794Y-84141345D01*
X120296654Y-83963205D01*
X120296649Y-83963201D01*
X120092848Y-83815132D01*
X120092847Y-83815131D01*
X120092845Y-83815130D01*
X120022747Y-83779413D01*
X119868383Y-83700760D01*
X119628785Y-83622910D01*
X119379962Y-83583500D01*
X119128038Y-83583500D01*
X119003626Y-83603205D01*
X118879214Y-83622910D01*
X118639616Y-83700760D01*
X118415151Y-83815132D01*
X118211350Y-83963201D01*
X118211345Y-83963205D01*
X118033205Y-84141345D01*
X118033201Y-84141350D01*
X117885132Y-84345151D01*
X117770760Y-84569616D01*
X117692910Y-84809214D01*
X117674937Y-84922692D01*
X117653500Y-85058038D01*
X116804500Y-85058038D01*
X116804500Y-82858500D01*
X116824185Y-82791461D01*
X116876989Y-82745706D01*
X116928500Y-82734500D01*
X172679500Y-82734500D01*
X172746539Y-82754185D01*
G37*
G04 #@! TD.AperFunction*
G04 #@! TD*
G04 #@! TA.AperFunction,Conductor*
G04 #@! TO.N,V_{bat}*
G36*
X168357002Y-94679280D02*
G01*
X169868296Y-95324155D01*
X169874560Y-95330554D01*
X169874465Y-95339508D01*
X169874423Y-95339605D01*
X169507327Y-96178717D01*
X169500872Y-96184923D01*
X169498234Y-96185615D01*
X168435403Y-96334724D01*
X168426734Y-96332479D01*
X168422662Y-96326792D01*
X167998426Y-95036568D01*
X167999098Y-95027638D01*
X168001265Y-95024643D01*
X168344140Y-94681768D01*
X168352412Y-94678342D01*
X168357002Y-94679280D01*
G37*
G04 #@! TD.AperFunction*
G04 #@! TD*
G04 #@! TA.AperFunction,Conductor*
G04 #@! TO.N,V_{bat}*
G36*
X158243071Y-89521481D02*
G01*
X158635696Y-90109491D01*
X158637440Y-90118274D01*
X158634239Y-90124261D01*
X158294261Y-90464239D01*
X158285988Y-90467666D01*
X158279491Y-90465696D01*
X157691481Y-90073071D01*
X157686504Y-90065627D01*
X157688234Y-90056865D01*
X157901988Y-89735256D01*
X157905256Y-89731988D01*
X158226865Y-89518234D01*
X158235652Y-89516508D01*
X158243071Y-89521481D01*
G37*
G04 #@! TD.AperFunction*
G04 #@! TD*
G04 #@! TA.AperFunction,Conductor*
G04 #@! TO.N,V_{bat}*
G36*
X136323438Y-93357373D02*
G01*
X136665626Y-93699561D01*
X136669053Y-93707834D01*
X136668044Y-93712587D01*
X136016384Y-95178557D01*
X136009892Y-95184724D01*
X136000940Y-95184495D01*
X135999204Y-95183540D01*
X135305241Y-94721005D01*
X135301994Y-94717758D01*
X134839459Y-94023795D01*
X134837722Y-94015010D01*
X134842706Y-94007570D01*
X134844434Y-94006618D01*
X136310413Y-93354954D01*
X136319364Y-93354726D01*
X136323438Y-93357373D01*
G37*
G04 #@! TD.AperFunction*
G04 #@! TD*
G04 #@! TA.AperFunction,Conductor*
G04 #@! TO.N,V_{bat}*
G36*
X157581134Y-89518234D02*
G01*
X157902743Y-89731988D01*
X157906011Y-89735256D01*
X158119765Y-90056865D01*
X158121491Y-90065652D01*
X158116518Y-90073071D01*
X157528508Y-90465696D01*
X157519725Y-90467440D01*
X157513738Y-90464239D01*
X157173760Y-90124261D01*
X157170333Y-90115988D01*
X157172303Y-90109491D01*
X157564930Y-89521479D01*
X157572372Y-89516504D01*
X157581134Y-89518234D01*
G37*
G04 #@! TD.AperFunction*
G04 #@! TD*
G04 #@! TA.AperFunction,Conductor*
G04 #@! TO.N,Net-(U1-~{CHRG})*
G36*
X154179805Y-88129377D02*
G01*
X154659123Y-88378556D01*
X154664883Y-88385412D01*
X154664107Y-88394333D01*
X154663475Y-88395404D01*
X154506015Y-88632734D01*
X154502734Y-88636015D01*
X154265404Y-88793475D01*
X154256616Y-88795194D01*
X154249187Y-88790194D01*
X154248560Y-88789132D01*
X153999377Y-88309806D01*
X153998602Y-88300887D01*
X154001484Y-88296140D01*
X154166139Y-88131485D01*
X154174411Y-88128059D01*
X154179805Y-88129377D01*
G37*
G04 #@! TD.AperFunction*
G04 #@! TD*
G04 #@! TA.AperFunction,Conductor*
G04 #@! TO.N,Net-(U1-~{CHRG})*
G36*
X145874929Y-84693681D02*
G01*
X146390060Y-84856417D01*
X146396917Y-84862177D01*
X146398236Y-84867574D01*
X146398236Y-85100425D01*
X146394809Y-85108698D01*
X146390060Y-85111582D01*
X145874937Y-85274315D01*
X145866016Y-85273539D01*
X145860256Y-85266682D01*
X145859949Y-85265494D01*
X145803469Y-84986318D01*
X145803469Y-84981680D01*
X145826554Y-84867574D01*
X145859946Y-84702518D01*
X145864945Y-84695092D01*
X145873733Y-84693373D01*
X145874929Y-84693681D01*
G37*
G04 #@! TD.AperFunction*
G04 #@! TD*
G04 #@! TA.AperFunction,Conductor*
G04 #@! TO.N,Net-(U1-~{STDBY})*
G36*
X154179805Y-89429377D02*
G01*
X154659123Y-89678556D01*
X154664883Y-89685412D01*
X154664107Y-89694333D01*
X154663475Y-89695404D01*
X154506015Y-89932734D01*
X154502734Y-89936015D01*
X154265404Y-90093475D01*
X154256616Y-90095194D01*
X154249187Y-90090194D01*
X154248560Y-90089132D01*
X153999377Y-89609806D01*
X153998602Y-89600887D01*
X154001484Y-89596140D01*
X154166139Y-89431485D01*
X154174411Y-89428059D01*
X154179805Y-89429377D01*
G37*
G04 #@! TD.AperFunction*
G04 #@! TD*
G04 #@! TA.AperFunction,Conductor*
G04 #@! TO.N,Net-(U1-~{STDBY})*
G36*
X146141861Y-86731486D02*
G01*
X146306513Y-86896138D01*
X146309940Y-86904411D01*
X146308621Y-86909808D01*
X146059444Y-87389123D01*
X146052587Y-87394883D01*
X146043666Y-87394107D01*
X146042595Y-87393475D01*
X145805265Y-87236015D01*
X145801984Y-87232734D01*
X145644524Y-86995404D01*
X145642805Y-86986616D01*
X145647805Y-86979187D01*
X145648859Y-86978564D01*
X146128193Y-86729377D01*
X146137112Y-86728602D01*
X146141861Y-86731486D01*
G37*
G04 #@! TD.AperFunction*
G04 #@! TD*
M02*
