M48
; DRILL file {KiCad 9.0.7} date 2026-02-28T12:09:14-0300
; FORMAT={-:-/ absolute / metric / decimal}
; #@! TF.CreationDate,2026-02-28T12:09:14-03:00
; #@! TF.GenerationSoftware,Kicad,Pcbnew,9.0.7
; #@! TF.FileFunction,Plated,1,2,PTH
FMAT,2
METRIC
; #@! TA.AperFunction,Plated,PTH,ViaDrill
T1C0.300
; #@! TA.AperFunction,Plated,PTH,ComponentDrill
T2C0.300
; #@! TA.AperFunction,Plated,PTH,ViaDrill
T3C0.400
; #@! TA.AperFunction,Plated,PTH,ComponentDrill
T4C0.700
; #@! TA.AperFunction,Plated,PTH,ComponentDrill
T5C0.710
; #@! TA.AperFunction,Plated,PTH,ComponentDrill
T6C1.000
; #@! TA.AperFunction,Plated,PTH,ComponentDrill
T7C1.190
; #@! TA.AperFunction,Plated,PTH,ComponentDrill
T8C1.300
%
G90
G05
T1
X145.804Y-84.984
X145.804Y-87.234
X154.504Y-88.634
X154.504Y-89.934
T2
X149.454Y-88.034
X149.454Y-89.234
X149.454Y-90.434
X150.554Y-88.034
X150.554Y-89.234
X150.554Y-90.434
T3
X136.204Y-90.034
X148.554Y-96.484
X150.554Y-95.234
X153.554Y-94.234
X153.604Y-84.834
X155.304Y-94.234
X157.054Y-94.234
X157.904Y-89.734
X159.304Y-97.984
X160.804Y-92.234
X161.361Y-88.234
X162.304Y-97.234
T5
X161.704Y-89.784
X163.304Y-84.684
T6
X125.389Y-85.234
X127.029Y-96.734
X127.929Y-85.234
X129.569Y-96.734
X135.304Y-94.719
X135.304Y-97.259
X140.804Y-95.684
X143.304Y-95.684
T7
X169.504Y-88.564
X169.504Y-91.104
X169.504Y-93.644
X169.504Y-96.184
T8
X132.104Y-102.734
X136.754Y-102.734
X169.704Y-84.884
T4
G00X118.554Y-89.914
M15
G01X117.754Y-89.914
M16
G05
G00X118.554Y-98.554
M15
G01X117.754Y-98.554
M16
G05
G00X122.364Y-89.914
M15
G01X121.564Y-89.914
M16
G05
G00X122.364Y-98.554
M15
G01X121.564Y-98.554
M16
G05
M30
