%TF.GenerationSoftware,KiCad,Pcbnew,9.0.7*%
%TF.CreationDate,2026-02-28T12:09:14-03:00*%
%TF.ProjectId,power_supply,706f7765-725f-4737-9570-706c792e6b69,rev?*%
%TF.SameCoordinates,Original*%
%TF.FileFunction,Drillmap*%
%TF.FilePolarity,Positive*%
%FSLAX45Y45*%
G04 Gerber Fmt 4.5, Leading zero omitted, Abs format (unit mm)*
G04 Created by KiCad (PCBNEW 9.0.7) date 2026-02-28 12:09:14*
%MOMM*%
%LPD*%
G01*
G04 APERTURE LIST*
%ADD10C,0.050000*%
%ADD11C,0.200000*%
%ADD12C,0.115200*%
%ADD13C,0.270000*%
G04 APERTURE END LIST*
D10*
X11630400Y-8223400D02*
X17330400Y-8223400D01*
X17330400Y-10623400D01*
X11630400Y-10623400D01*
X11630400Y-8223400D01*
D11*
D12*
X11822800Y-10315800D02*
X11938000Y-10431000D01*
X11938000Y-10315800D02*
X11822800Y-10431000D01*
X14172800Y-10315800D02*
X14288000Y-10431000D01*
X14288000Y-10315800D02*
X14172800Y-10431000D01*
X15662800Y-8440800D02*
X15778000Y-8556000D01*
X15778000Y-8440800D02*
X15662800Y-8556000D01*
D13*
X12060400Y-8518400D02*
G75*
G02*
X11790400Y-8518400I-135000J0D01*
G01*
X11790400Y-8518400D02*
G75*
G02*
X12060400Y-8518400I135000J0D01*
G01*
X14940400Y-10323400D02*
G75*
G02*
X14670400Y-10323400I-135000J0D01*
G01*
X14670400Y-10323400D02*
G75*
G02*
X14940400Y-10323400I135000J0D01*
G01*
X17165400Y-10323400D02*
G75*
G02*
X16895400Y-10323400I-135000J0D01*
G01*
X16895400Y-10323400D02*
G75*
G02*
X17165400Y-10323400I135000J0D01*
G01*
D11*
X11888677Y-10937384D02*
X11888677Y-10737384D01*
X11888677Y-10737384D02*
X11936296Y-10737384D01*
X11936296Y-10737384D02*
X11964867Y-10746908D01*
X11964867Y-10746908D02*
X11983915Y-10765955D01*
X11983915Y-10765955D02*
X11993439Y-10785003D01*
X11993439Y-10785003D02*
X12002962Y-10823098D01*
X12002962Y-10823098D02*
X12002962Y-10851670D01*
X12002962Y-10851670D02*
X11993439Y-10889765D01*
X11993439Y-10889765D02*
X11983915Y-10908812D01*
X11983915Y-10908812D02*
X11964867Y-10927860D01*
X11964867Y-10927860D02*
X11936296Y-10937384D01*
X11936296Y-10937384D02*
X11888677Y-10937384D01*
X12088677Y-10937384D02*
X12088677Y-10804050D01*
X12088677Y-10842146D02*
X12098201Y-10823098D01*
X12098201Y-10823098D02*
X12107724Y-10813574D01*
X12107724Y-10813574D02*
X12126772Y-10804050D01*
X12126772Y-10804050D02*
X12145820Y-10804050D01*
X12212486Y-10937384D02*
X12212486Y-10804050D01*
X12212486Y-10737384D02*
X12202962Y-10746908D01*
X12202962Y-10746908D02*
X12212486Y-10756431D01*
X12212486Y-10756431D02*
X12222010Y-10746908D01*
X12222010Y-10746908D02*
X12212486Y-10737384D01*
X12212486Y-10737384D02*
X12212486Y-10756431D01*
X12336296Y-10937384D02*
X12317248Y-10927860D01*
X12317248Y-10927860D02*
X12307724Y-10908812D01*
X12307724Y-10908812D02*
X12307724Y-10737384D01*
X12441058Y-10937384D02*
X12422010Y-10927860D01*
X12422010Y-10927860D02*
X12412486Y-10908812D01*
X12412486Y-10908812D02*
X12412486Y-10737384D01*
X12669629Y-10937384D02*
X12669629Y-10737384D01*
X12669629Y-10737384D02*
X12736296Y-10880241D01*
X12736296Y-10880241D02*
X12802962Y-10737384D01*
X12802962Y-10737384D02*
X12802962Y-10937384D01*
X12983915Y-10937384D02*
X12983915Y-10832622D01*
X12983915Y-10832622D02*
X12974391Y-10813574D01*
X12974391Y-10813574D02*
X12955343Y-10804050D01*
X12955343Y-10804050D02*
X12917248Y-10804050D01*
X12917248Y-10804050D02*
X12898201Y-10813574D01*
X12983915Y-10927860D02*
X12964867Y-10937384D01*
X12964867Y-10937384D02*
X12917248Y-10937384D01*
X12917248Y-10937384D02*
X12898201Y-10927860D01*
X12898201Y-10927860D02*
X12888677Y-10908812D01*
X12888677Y-10908812D02*
X12888677Y-10889765D01*
X12888677Y-10889765D02*
X12898201Y-10870717D01*
X12898201Y-10870717D02*
X12917248Y-10861193D01*
X12917248Y-10861193D02*
X12964867Y-10861193D01*
X12964867Y-10861193D02*
X12983915Y-10851670D01*
X13079153Y-10804050D02*
X13079153Y-11004050D01*
X13079153Y-10813574D02*
X13098201Y-10804050D01*
X13098201Y-10804050D02*
X13136296Y-10804050D01*
X13136296Y-10804050D02*
X13155343Y-10813574D01*
X13155343Y-10813574D02*
X13164867Y-10823098D01*
X13164867Y-10823098D02*
X13174391Y-10842146D01*
X13174391Y-10842146D02*
X13174391Y-10899289D01*
X13174391Y-10899289D02*
X13164867Y-10918336D01*
X13164867Y-10918336D02*
X13155343Y-10927860D01*
X13155343Y-10927860D02*
X13136296Y-10937384D01*
X13136296Y-10937384D02*
X13098201Y-10937384D01*
X13098201Y-10937384D02*
X13079153Y-10927860D01*
X13260105Y-10918336D02*
X13269629Y-10927860D01*
X13269629Y-10927860D02*
X13260105Y-10937384D01*
X13260105Y-10937384D02*
X13250582Y-10927860D01*
X13250582Y-10927860D02*
X13260105Y-10918336D01*
X13260105Y-10918336D02*
X13260105Y-10937384D01*
X13260105Y-10813574D02*
X13269629Y-10823098D01*
X13269629Y-10823098D02*
X13260105Y-10832622D01*
X13260105Y-10832622D02*
X13250582Y-10823098D01*
X13250582Y-10823098D02*
X13260105Y-10813574D01*
X13260105Y-10813574D02*
X13260105Y-10832622D01*
D12*
X11512700Y-11208300D02*
X11627900Y-11323500D01*
X11627900Y-11208300D02*
X11512700Y-11323500D01*
D11*
X11993439Y-11357384D02*
X11879153Y-11357384D01*
X11936296Y-11357384D02*
X11936296Y-11157384D01*
X11936296Y-11157384D02*
X11917248Y-11185955D01*
X11917248Y-11185955D02*
X11898201Y-11205003D01*
X11898201Y-11205003D02*
X11879153Y-11214527D01*
X12079153Y-11338336D02*
X12088677Y-11347860D01*
X12088677Y-11347860D02*
X12079153Y-11357384D01*
X12079153Y-11357384D02*
X12069629Y-11347860D01*
X12069629Y-11347860D02*
X12079153Y-11338336D01*
X12079153Y-11338336D02*
X12079153Y-11357384D01*
X12279153Y-11357384D02*
X12164867Y-11357384D01*
X12222010Y-11357384D02*
X12222010Y-11157384D01*
X12222010Y-11157384D02*
X12202962Y-11185955D01*
X12202962Y-11185955D02*
X12183915Y-11205003D01*
X12183915Y-11205003D02*
X12164867Y-11214527D01*
X12460105Y-11157384D02*
X12364867Y-11157384D01*
X12364867Y-11157384D02*
X12355343Y-11252622D01*
X12355343Y-11252622D02*
X12364867Y-11243098D01*
X12364867Y-11243098D02*
X12383915Y-11233574D01*
X12383915Y-11233574D02*
X12431534Y-11233574D01*
X12431534Y-11233574D02*
X12450582Y-11243098D01*
X12450582Y-11243098D02*
X12460105Y-11252622D01*
X12460105Y-11252622D02*
X12469629Y-11271669D01*
X12469629Y-11271669D02*
X12469629Y-11319288D01*
X12469629Y-11319288D02*
X12460105Y-11338336D01*
X12460105Y-11338336D02*
X12450582Y-11347860D01*
X12450582Y-11347860D02*
X12431534Y-11357384D01*
X12431534Y-11357384D02*
X12383915Y-11357384D01*
X12383915Y-11357384D02*
X12364867Y-11347860D01*
X12364867Y-11347860D02*
X12355343Y-11338336D01*
X12545820Y-11176431D02*
X12555343Y-11166908D01*
X12555343Y-11166908D02*
X12574391Y-11157384D01*
X12574391Y-11157384D02*
X12622010Y-11157384D01*
X12622010Y-11157384D02*
X12641058Y-11166908D01*
X12641058Y-11166908D02*
X12650582Y-11176431D01*
X12650582Y-11176431D02*
X12660105Y-11195479D01*
X12660105Y-11195479D02*
X12660105Y-11214527D01*
X12660105Y-11214527D02*
X12650582Y-11243098D01*
X12650582Y-11243098D02*
X12536296Y-11357384D01*
X12536296Y-11357384D02*
X12660105Y-11357384D01*
X12745820Y-11357384D02*
X12745820Y-11224050D01*
X12745820Y-11243098D02*
X12755343Y-11233574D01*
X12755343Y-11233574D02*
X12774391Y-11224050D01*
X12774391Y-11224050D02*
X12802963Y-11224050D01*
X12802963Y-11224050D02*
X12822010Y-11233574D01*
X12822010Y-11233574D02*
X12831534Y-11252622D01*
X12831534Y-11252622D02*
X12831534Y-11357384D01*
X12831534Y-11252622D02*
X12841058Y-11233574D01*
X12841058Y-11233574D02*
X12860105Y-11224050D01*
X12860105Y-11224050D02*
X12888677Y-11224050D01*
X12888677Y-11224050D02*
X12907724Y-11233574D01*
X12907724Y-11233574D02*
X12917248Y-11252622D01*
X12917248Y-11252622D02*
X12917248Y-11357384D01*
X13012486Y-11357384D02*
X13012486Y-11224050D01*
X13012486Y-11243098D02*
X13022010Y-11233574D01*
X13022010Y-11233574D02*
X13041058Y-11224050D01*
X13041058Y-11224050D02*
X13069629Y-11224050D01*
X13069629Y-11224050D02*
X13088677Y-11233574D01*
X13088677Y-11233574D02*
X13098201Y-11252622D01*
X13098201Y-11252622D02*
X13098201Y-11357384D01*
X13098201Y-11252622D02*
X13107724Y-11233574D01*
X13107724Y-11233574D02*
X13126772Y-11224050D01*
X13126772Y-11224050D02*
X13155343Y-11224050D01*
X13155343Y-11224050D02*
X13174391Y-11233574D01*
X13174391Y-11233574D02*
X13183915Y-11252622D01*
X13183915Y-11252622D02*
X13183915Y-11357384D01*
X13574391Y-11147860D02*
X13402963Y-11405003D01*
X13831534Y-11157384D02*
X13850582Y-11157384D01*
X13850582Y-11157384D02*
X13869629Y-11166908D01*
X13869629Y-11166908D02*
X13879153Y-11176431D01*
X13879153Y-11176431D02*
X13888677Y-11195479D01*
X13888677Y-11195479D02*
X13898201Y-11233574D01*
X13898201Y-11233574D02*
X13898201Y-11281193D01*
X13898201Y-11281193D02*
X13888677Y-11319288D01*
X13888677Y-11319288D02*
X13879153Y-11338336D01*
X13879153Y-11338336D02*
X13869629Y-11347860D01*
X13869629Y-11347860D02*
X13850582Y-11357384D01*
X13850582Y-11357384D02*
X13831534Y-11357384D01*
X13831534Y-11357384D02*
X13812486Y-11347860D01*
X13812486Y-11347860D02*
X13802963Y-11338336D01*
X13802963Y-11338336D02*
X13793439Y-11319288D01*
X13793439Y-11319288D02*
X13783915Y-11281193D01*
X13783915Y-11281193D02*
X13783915Y-11233574D01*
X13783915Y-11233574D02*
X13793439Y-11195479D01*
X13793439Y-11195479D02*
X13802963Y-11176431D01*
X13802963Y-11176431D02*
X13812486Y-11166908D01*
X13812486Y-11166908D02*
X13831534Y-11157384D01*
X13983915Y-11338336D02*
X13993439Y-11347860D01*
X13993439Y-11347860D02*
X13983915Y-11357384D01*
X13983915Y-11357384D02*
X13974391Y-11347860D01*
X13974391Y-11347860D02*
X13983915Y-11338336D01*
X13983915Y-11338336D02*
X13983915Y-11357384D01*
X14117248Y-11157384D02*
X14136296Y-11157384D01*
X14136296Y-11157384D02*
X14155344Y-11166908D01*
X14155344Y-11166908D02*
X14164867Y-11176431D01*
X14164867Y-11176431D02*
X14174391Y-11195479D01*
X14174391Y-11195479D02*
X14183915Y-11233574D01*
X14183915Y-11233574D02*
X14183915Y-11281193D01*
X14183915Y-11281193D02*
X14174391Y-11319288D01*
X14174391Y-11319288D02*
X14164867Y-11338336D01*
X14164867Y-11338336D02*
X14155344Y-11347860D01*
X14155344Y-11347860D02*
X14136296Y-11357384D01*
X14136296Y-11357384D02*
X14117248Y-11357384D01*
X14117248Y-11357384D02*
X14098201Y-11347860D01*
X14098201Y-11347860D02*
X14088677Y-11338336D01*
X14088677Y-11338336D02*
X14079153Y-11319288D01*
X14079153Y-11319288D02*
X14069629Y-11281193D01*
X14069629Y-11281193D02*
X14069629Y-11233574D01*
X14069629Y-11233574D02*
X14079153Y-11195479D01*
X14079153Y-11195479D02*
X14088677Y-11176431D01*
X14088677Y-11176431D02*
X14098201Y-11166908D01*
X14098201Y-11166908D02*
X14117248Y-11157384D01*
X14355344Y-11224050D02*
X14355344Y-11357384D01*
X14307725Y-11147860D02*
X14260106Y-11290717D01*
X14260106Y-11290717D02*
X14383915Y-11290717D01*
X14555344Y-11157384D02*
X14460106Y-11157384D01*
X14460106Y-11157384D02*
X14450582Y-11252622D01*
X14450582Y-11252622D02*
X14460106Y-11243098D01*
X14460106Y-11243098D02*
X14479153Y-11233574D01*
X14479153Y-11233574D02*
X14526772Y-11233574D01*
X14526772Y-11233574D02*
X14545820Y-11243098D01*
X14545820Y-11243098D02*
X14555344Y-11252622D01*
X14555344Y-11252622D02*
X14564867Y-11271669D01*
X14564867Y-11271669D02*
X14564867Y-11319288D01*
X14564867Y-11319288D02*
X14555344Y-11338336D01*
X14555344Y-11338336D02*
X14545820Y-11347860D01*
X14545820Y-11347860D02*
X14526772Y-11357384D01*
X14526772Y-11357384D02*
X14479153Y-11357384D01*
X14479153Y-11357384D02*
X14460106Y-11347860D01*
X14460106Y-11347860D02*
X14450582Y-11338336D01*
X14736296Y-11224050D02*
X14736296Y-11357384D01*
X14688677Y-11147860D02*
X14641058Y-11290717D01*
X14641058Y-11290717D02*
X14764867Y-11290717D01*
X14831534Y-11157384D02*
X14831534Y-11195479D01*
X14907725Y-11157384D02*
X14907725Y-11195479D01*
X15202963Y-11433574D02*
X15193439Y-11424050D01*
X15193439Y-11424050D02*
X15174391Y-11395479D01*
X15174391Y-11395479D02*
X15164868Y-11376431D01*
X15164868Y-11376431D02*
X15155344Y-11347860D01*
X15155344Y-11347860D02*
X15145820Y-11300241D01*
X15145820Y-11300241D02*
X15145820Y-11262146D01*
X15145820Y-11262146D02*
X15155344Y-11214527D01*
X15155344Y-11214527D02*
X15164868Y-11185955D01*
X15164868Y-11185955D02*
X15174391Y-11166908D01*
X15174391Y-11166908D02*
X15193439Y-11138336D01*
X15193439Y-11138336D02*
X15202963Y-11128812D01*
X15260106Y-11157384D02*
X15383915Y-11157384D01*
X15383915Y-11157384D02*
X15317248Y-11233574D01*
X15317248Y-11233574D02*
X15345820Y-11233574D01*
X15345820Y-11233574D02*
X15364868Y-11243098D01*
X15364868Y-11243098D02*
X15374391Y-11252622D01*
X15374391Y-11252622D02*
X15383915Y-11271669D01*
X15383915Y-11271669D02*
X15383915Y-11319288D01*
X15383915Y-11319288D02*
X15374391Y-11338336D01*
X15374391Y-11338336D02*
X15364868Y-11347860D01*
X15364868Y-11347860D02*
X15345820Y-11357384D01*
X15345820Y-11357384D02*
X15288677Y-11357384D01*
X15288677Y-11357384D02*
X15269629Y-11347860D01*
X15269629Y-11347860D02*
X15260106Y-11338336D01*
X15622010Y-11357384D02*
X15622010Y-11157384D01*
X15707725Y-11357384D02*
X15707725Y-11252622D01*
X15707725Y-11252622D02*
X15698201Y-11233574D01*
X15698201Y-11233574D02*
X15679153Y-11224050D01*
X15679153Y-11224050D02*
X15650582Y-11224050D01*
X15650582Y-11224050D02*
X15631534Y-11233574D01*
X15631534Y-11233574D02*
X15622010Y-11243098D01*
X15831534Y-11357384D02*
X15812487Y-11347860D01*
X15812487Y-11347860D02*
X15802963Y-11338336D01*
X15802963Y-11338336D02*
X15793439Y-11319288D01*
X15793439Y-11319288D02*
X15793439Y-11262146D01*
X15793439Y-11262146D02*
X15802963Y-11243098D01*
X15802963Y-11243098D02*
X15812487Y-11233574D01*
X15812487Y-11233574D02*
X15831534Y-11224050D01*
X15831534Y-11224050D02*
X15860106Y-11224050D01*
X15860106Y-11224050D02*
X15879153Y-11233574D01*
X15879153Y-11233574D02*
X15888677Y-11243098D01*
X15888677Y-11243098D02*
X15898201Y-11262146D01*
X15898201Y-11262146D02*
X15898201Y-11319288D01*
X15898201Y-11319288D02*
X15888677Y-11338336D01*
X15888677Y-11338336D02*
X15879153Y-11347860D01*
X15879153Y-11347860D02*
X15860106Y-11357384D01*
X15860106Y-11357384D02*
X15831534Y-11357384D01*
X16012487Y-11357384D02*
X15993439Y-11347860D01*
X15993439Y-11347860D02*
X15983915Y-11328812D01*
X15983915Y-11328812D02*
X15983915Y-11157384D01*
X16164868Y-11347860D02*
X16145820Y-11357384D01*
X16145820Y-11357384D02*
X16107725Y-11357384D01*
X16107725Y-11357384D02*
X16088677Y-11347860D01*
X16088677Y-11347860D02*
X16079153Y-11328812D01*
X16079153Y-11328812D02*
X16079153Y-11252622D01*
X16079153Y-11252622D02*
X16088677Y-11233574D01*
X16088677Y-11233574D02*
X16107725Y-11224050D01*
X16107725Y-11224050D02*
X16145820Y-11224050D01*
X16145820Y-11224050D02*
X16164868Y-11233574D01*
X16164868Y-11233574D02*
X16174391Y-11252622D01*
X16174391Y-11252622D02*
X16174391Y-11271669D01*
X16174391Y-11271669D02*
X16079153Y-11290717D01*
X16250582Y-11347860D02*
X16269630Y-11357384D01*
X16269630Y-11357384D02*
X16307725Y-11357384D01*
X16307725Y-11357384D02*
X16326772Y-11347860D01*
X16326772Y-11347860D02*
X16336296Y-11328812D01*
X16336296Y-11328812D02*
X16336296Y-11319288D01*
X16336296Y-11319288D02*
X16326772Y-11300241D01*
X16326772Y-11300241D02*
X16307725Y-11290717D01*
X16307725Y-11290717D02*
X16279153Y-11290717D01*
X16279153Y-11290717D02*
X16260106Y-11281193D01*
X16260106Y-11281193D02*
X16250582Y-11262146D01*
X16250582Y-11262146D02*
X16250582Y-11252622D01*
X16250582Y-11252622D02*
X16260106Y-11233574D01*
X16260106Y-11233574D02*
X16279153Y-11224050D01*
X16279153Y-11224050D02*
X16307725Y-11224050D01*
X16307725Y-11224050D02*
X16326772Y-11233574D01*
X16402963Y-11433574D02*
X16412487Y-11424050D01*
X16412487Y-11424050D02*
X16431534Y-11395479D01*
X16431534Y-11395479D02*
X16441058Y-11376431D01*
X16441058Y-11376431D02*
X16450582Y-11347860D01*
X16450582Y-11347860D02*
X16460106Y-11300241D01*
X16460106Y-11300241D02*
X16460106Y-11262146D01*
X16460106Y-11262146D02*
X16450582Y-11214527D01*
X16450582Y-11214527D02*
X16441058Y-11185955D01*
X16441058Y-11185955D02*
X16431534Y-11166908D01*
X16431534Y-11166908D02*
X16412487Y-11138336D01*
X16412487Y-11138336D02*
X16402963Y-11128812D01*
X16764868Y-11433574D02*
X16755344Y-11424050D01*
X16755344Y-11424050D02*
X16736296Y-11395479D01*
X16736296Y-11395479D02*
X16726772Y-11376431D01*
X16726772Y-11376431D02*
X16717249Y-11347860D01*
X16717249Y-11347860D02*
X16707725Y-11300241D01*
X16707725Y-11300241D02*
X16707725Y-11262146D01*
X16707725Y-11262146D02*
X16717249Y-11214527D01*
X16717249Y-11214527D02*
X16726772Y-11185955D01*
X16726772Y-11185955D02*
X16736296Y-11166908D01*
X16736296Y-11166908D02*
X16755344Y-11138336D01*
X16755344Y-11138336D02*
X16764868Y-11128812D01*
X16841058Y-11224050D02*
X16841058Y-11357384D01*
X16841058Y-11243098D02*
X16850582Y-11233574D01*
X16850582Y-11233574D02*
X16869630Y-11224050D01*
X16869630Y-11224050D02*
X16898201Y-11224050D01*
X16898201Y-11224050D02*
X16917249Y-11233574D01*
X16917249Y-11233574D02*
X16926773Y-11252622D01*
X16926773Y-11252622D02*
X16926773Y-11357384D01*
X17050582Y-11357384D02*
X17031534Y-11347860D01*
X17031534Y-11347860D02*
X17022011Y-11338336D01*
X17022011Y-11338336D02*
X17012487Y-11319288D01*
X17012487Y-11319288D02*
X17012487Y-11262146D01*
X17012487Y-11262146D02*
X17022011Y-11243098D01*
X17022011Y-11243098D02*
X17031534Y-11233574D01*
X17031534Y-11233574D02*
X17050582Y-11224050D01*
X17050582Y-11224050D02*
X17079154Y-11224050D01*
X17079154Y-11224050D02*
X17098201Y-11233574D01*
X17098201Y-11233574D02*
X17107725Y-11243098D01*
X17107725Y-11243098D02*
X17117249Y-11262146D01*
X17117249Y-11262146D02*
X17117249Y-11319288D01*
X17117249Y-11319288D02*
X17107725Y-11338336D01*
X17107725Y-11338336D02*
X17098201Y-11347860D01*
X17098201Y-11347860D02*
X17079154Y-11357384D01*
X17079154Y-11357384D02*
X17050582Y-11357384D01*
X17174392Y-11224050D02*
X17250582Y-11224050D01*
X17202963Y-11157384D02*
X17202963Y-11328812D01*
X17202963Y-11328812D02*
X17212487Y-11347860D01*
X17212487Y-11347860D02*
X17231534Y-11357384D01*
X17231534Y-11357384D02*
X17250582Y-11357384D01*
X17469630Y-11224050D02*
X17469630Y-11424050D01*
X17469630Y-11233574D02*
X17488677Y-11224050D01*
X17488677Y-11224050D02*
X17526773Y-11224050D01*
X17526773Y-11224050D02*
X17545820Y-11233574D01*
X17545820Y-11233574D02*
X17555344Y-11243098D01*
X17555344Y-11243098D02*
X17564868Y-11262146D01*
X17564868Y-11262146D02*
X17564868Y-11319288D01*
X17564868Y-11319288D02*
X17555344Y-11338336D01*
X17555344Y-11338336D02*
X17545820Y-11347860D01*
X17545820Y-11347860D02*
X17526773Y-11357384D01*
X17526773Y-11357384D02*
X17488677Y-11357384D01*
X17488677Y-11357384D02*
X17469630Y-11347860D01*
X17679154Y-11357384D02*
X17660106Y-11347860D01*
X17660106Y-11347860D02*
X17650582Y-11328812D01*
X17650582Y-11328812D02*
X17650582Y-11157384D01*
X17841058Y-11357384D02*
X17841058Y-11252622D01*
X17841058Y-11252622D02*
X17831535Y-11233574D01*
X17831535Y-11233574D02*
X17812487Y-11224050D01*
X17812487Y-11224050D02*
X17774392Y-11224050D01*
X17774392Y-11224050D02*
X17755344Y-11233574D01*
X17841058Y-11347860D02*
X17822011Y-11357384D01*
X17822011Y-11357384D02*
X17774392Y-11357384D01*
X17774392Y-11357384D02*
X17755344Y-11347860D01*
X17755344Y-11347860D02*
X17745820Y-11328812D01*
X17745820Y-11328812D02*
X17745820Y-11309765D01*
X17745820Y-11309765D02*
X17755344Y-11290717D01*
X17755344Y-11290717D02*
X17774392Y-11281193D01*
X17774392Y-11281193D02*
X17822011Y-11281193D01*
X17822011Y-11281193D02*
X17841058Y-11271669D01*
X17907725Y-11224050D02*
X17983915Y-11224050D01*
X17936296Y-11157384D02*
X17936296Y-11328812D01*
X17936296Y-11328812D02*
X17945820Y-11347860D01*
X17945820Y-11347860D02*
X17964868Y-11357384D01*
X17964868Y-11357384D02*
X17983915Y-11357384D01*
X18126773Y-11347860D02*
X18107725Y-11357384D01*
X18107725Y-11357384D02*
X18069630Y-11357384D01*
X18069630Y-11357384D02*
X18050582Y-11347860D01*
X18050582Y-11347860D02*
X18041058Y-11328812D01*
X18041058Y-11328812D02*
X18041058Y-11252622D01*
X18041058Y-11252622D02*
X18050582Y-11233574D01*
X18050582Y-11233574D02*
X18069630Y-11224050D01*
X18069630Y-11224050D02*
X18107725Y-11224050D01*
X18107725Y-11224050D02*
X18126773Y-11233574D01*
X18126773Y-11233574D02*
X18136296Y-11252622D01*
X18136296Y-11252622D02*
X18136296Y-11271669D01*
X18136296Y-11271669D02*
X18041058Y-11290717D01*
X18307725Y-11357384D02*
X18307725Y-11157384D01*
X18307725Y-11347860D02*
X18288677Y-11357384D01*
X18288677Y-11357384D02*
X18250582Y-11357384D01*
X18250582Y-11357384D02*
X18231535Y-11347860D01*
X18231535Y-11347860D02*
X18222011Y-11338336D01*
X18222011Y-11338336D02*
X18212487Y-11319288D01*
X18212487Y-11319288D02*
X18212487Y-11262146D01*
X18212487Y-11262146D02*
X18222011Y-11243098D01*
X18222011Y-11243098D02*
X18231535Y-11233574D01*
X18231535Y-11233574D02*
X18250582Y-11224050D01*
X18250582Y-11224050D02*
X18288677Y-11224050D01*
X18288677Y-11224050D02*
X18307725Y-11233574D01*
X18383916Y-11433574D02*
X18393439Y-11424050D01*
X18393439Y-11424050D02*
X18412487Y-11395479D01*
X18412487Y-11395479D02*
X18422011Y-11376431D01*
X18422011Y-11376431D02*
X18431535Y-11347860D01*
X18431535Y-11347860D02*
X18441058Y-11300241D01*
X18441058Y-11300241D02*
X18441058Y-11262146D01*
X18441058Y-11262146D02*
X18431535Y-11214527D01*
X18431535Y-11214527D02*
X18422011Y-11185955D01*
X18422011Y-11185955D02*
X18412487Y-11166908D01*
X18412487Y-11166908D02*
X18393439Y-11138336D01*
X18393439Y-11138336D02*
X18383916Y-11128812D01*
X11627900Y-11529900D02*
G75*
G02*
X11427900Y-11529900I-100000J0D01*
G01*
X11427900Y-11529900D02*
G75*
G02*
X11627900Y-11529900I100000J0D01*
G01*
X11879153Y-11440431D02*
X11888677Y-11430908D01*
X11888677Y-11430908D02*
X11907724Y-11421384D01*
X11907724Y-11421384D02*
X11955343Y-11421384D01*
X11955343Y-11421384D02*
X11974391Y-11430908D01*
X11974391Y-11430908D02*
X11983915Y-11440431D01*
X11983915Y-11440431D02*
X11993439Y-11459479D01*
X11993439Y-11459479D02*
X11993439Y-11478527D01*
X11993439Y-11478527D02*
X11983915Y-11507098D01*
X11983915Y-11507098D02*
X11869629Y-11621384D01*
X11869629Y-11621384D02*
X11993439Y-11621384D01*
X12079153Y-11602336D02*
X12088677Y-11611860D01*
X12088677Y-11611860D02*
X12079153Y-11621384D01*
X12079153Y-11621384D02*
X12069629Y-11611860D01*
X12069629Y-11611860D02*
X12079153Y-11602336D01*
X12079153Y-11602336D02*
X12079153Y-11621384D01*
X12155343Y-11421384D02*
X12288677Y-11421384D01*
X12288677Y-11421384D02*
X12202962Y-11621384D01*
X12402962Y-11421384D02*
X12422010Y-11421384D01*
X12422010Y-11421384D02*
X12441058Y-11430908D01*
X12441058Y-11430908D02*
X12450582Y-11440431D01*
X12450582Y-11440431D02*
X12460105Y-11459479D01*
X12460105Y-11459479D02*
X12469629Y-11497574D01*
X12469629Y-11497574D02*
X12469629Y-11545193D01*
X12469629Y-11545193D02*
X12460105Y-11583288D01*
X12460105Y-11583288D02*
X12450582Y-11602336D01*
X12450582Y-11602336D02*
X12441058Y-11611860D01*
X12441058Y-11611860D02*
X12422010Y-11621384D01*
X12422010Y-11621384D02*
X12402962Y-11621384D01*
X12402962Y-11621384D02*
X12383915Y-11611860D01*
X12383915Y-11611860D02*
X12374391Y-11602336D01*
X12374391Y-11602336D02*
X12364867Y-11583288D01*
X12364867Y-11583288D02*
X12355343Y-11545193D01*
X12355343Y-11545193D02*
X12355343Y-11497574D01*
X12355343Y-11497574D02*
X12364867Y-11459479D01*
X12364867Y-11459479D02*
X12374391Y-11440431D01*
X12374391Y-11440431D02*
X12383915Y-11430908D01*
X12383915Y-11430908D02*
X12402962Y-11421384D01*
X12593439Y-11421384D02*
X12612486Y-11421384D01*
X12612486Y-11421384D02*
X12631534Y-11430908D01*
X12631534Y-11430908D02*
X12641058Y-11440431D01*
X12641058Y-11440431D02*
X12650582Y-11459479D01*
X12650582Y-11459479D02*
X12660105Y-11497574D01*
X12660105Y-11497574D02*
X12660105Y-11545193D01*
X12660105Y-11545193D02*
X12650582Y-11583288D01*
X12650582Y-11583288D02*
X12641058Y-11602336D01*
X12641058Y-11602336D02*
X12631534Y-11611860D01*
X12631534Y-11611860D02*
X12612486Y-11621384D01*
X12612486Y-11621384D02*
X12593439Y-11621384D01*
X12593439Y-11621384D02*
X12574391Y-11611860D01*
X12574391Y-11611860D02*
X12564867Y-11602336D01*
X12564867Y-11602336D02*
X12555343Y-11583288D01*
X12555343Y-11583288D02*
X12545820Y-11545193D01*
X12545820Y-11545193D02*
X12545820Y-11497574D01*
X12545820Y-11497574D02*
X12555343Y-11459479D01*
X12555343Y-11459479D02*
X12564867Y-11440431D01*
X12564867Y-11440431D02*
X12574391Y-11430908D01*
X12574391Y-11430908D02*
X12593439Y-11421384D01*
X12745820Y-11621384D02*
X12745820Y-11488050D01*
X12745820Y-11507098D02*
X12755343Y-11497574D01*
X12755343Y-11497574D02*
X12774391Y-11488050D01*
X12774391Y-11488050D02*
X12802963Y-11488050D01*
X12802963Y-11488050D02*
X12822010Y-11497574D01*
X12822010Y-11497574D02*
X12831534Y-11516622D01*
X12831534Y-11516622D02*
X12831534Y-11621384D01*
X12831534Y-11516622D02*
X12841058Y-11497574D01*
X12841058Y-11497574D02*
X12860105Y-11488050D01*
X12860105Y-11488050D02*
X12888677Y-11488050D01*
X12888677Y-11488050D02*
X12907724Y-11497574D01*
X12907724Y-11497574D02*
X12917248Y-11516622D01*
X12917248Y-11516622D02*
X12917248Y-11621384D01*
X13012486Y-11621384D02*
X13012486Y-11488050D01*
X13012486Y-11507098D02*
X13022010Y-11497574D01*
X13022010Y-11497574D02*
X13041058Y-11488050D01*
X13041058Y-11488050D02*
X13069629Y-11488050D01*
X13069629Y-11488050D02*
X13088677Y-11497574D01*
X13088677Y-11497574D02*
X13098201Y-11516622D01*
X13098201Y-11516622D02*
X13098201Y-11621384D01*
X13098201Y-11516622D02*
X13107724Y-11497574D01*
X13107724Y-11497574D02*
X13126772Y-11488050D01*
X13126772Y-11488050D02*
X13155343Y-11488050D01*
X13155343Y-11488050D02*
X13174391Y-11497574D01*
X13174391Y-11497574D02*
X13183915Y-11516622D01*
X13183915Y-11516622D02*
X13183915Y-11621384D01*
X13574391Y-11411860D02*
X13402963Y-11669003D01*
X13831534Y-11421384D02*
X13850582Y-11421384D01*
X13850582Y-11421384D02*
X13869629Y-11430908D01*
X13869629Y-11430908D02*
X13879153Y-11440431D01*
X13879153Y-11440431D02*
X13888677Y-11459479D01*
X13888677Y-11459479D02*
X13898201Y-11497574D01*
X13898201Y-11497574D02*
X13898201Y-11545193D01*
X13898201Y-11545193D02*
X13888677Y-11583288D01*
X13888677Y-11583288D02*
X13879153Y-11602336D01*
X13879153Y-11602336D02*
X13869629Y-11611860D01*
X13869629Y-11611860D02*
X13850582Y-11621384D01*
X13850582Y-11621384D02*
X13831534Y-11621384D01*
X13831534Y-11621384D02*
X13812486Y-11611860D01*
X13812486Y-11611860D02*
X13802963Y-11602336D01*
X13802963Y-11602336D02*
X13793439Y-11583288D01*
X13793439Y-11583288D02*
X13783915Y-11545193D01*
X13783915Y-11545193D02*
X13783915Y-11497574D01*
X13783915Y-11497574D02*
X13793439Y-11459479D01*
X13793439Y-11459479D02*
X13802963Y-11440431D01*
X13802963Y-11440431D02*
X13812486Y-11430908D01*
X13812486Y-11430908D02*
X13831534Y-11421384D01*
X13983915Y-11602336D02*
X13993439Y-11611860D01*
X13993439Y-11611860D02*
X13983915Y-11621384D01*
X13983915Y-11621384D02*
X13974391Y-11611860D01*
X13974391Y-11611860D02*
X13983915Y-11602336D01*
X13983915Y-11602336D02*
X13983915Y-11621384D01*
X14183915Y-11621384D02*
X14069629Y-11621384D01*
X14126772Y-11621384D02*
X14126772Y-11421384D01*
X14126772Y-11421384D02*
X14107725Y-11449955D01*
X14107725Y-11449955D02*
X14088677Y-11469003D01*
X14088677Y-11469003D02*
X14069629Y-11478527D01*
X14307725Y-11421384D02*
X14326772Y-11421384D01*
X14326772Y-11421384D02*
X14345820Y-11430908D01*
X14345820Y-11430908D02*
X14355344Y-11440431D01*
X14355344Y-11440431D02*
X14364867Y-11459479D01*
X14364867Y-11459479D02*
X14374391Y-11497574D01*
X14374391Y-11497574D02*
X14374391Y-11545193D01*
X14374391Y-11545193D02*
X14364867Y-11583288D01*
X14364867Y-11583288D02*
X14355344Y-11602336D01*
X14355344Y-11602336D02*
X14345820Y-11611860D01*
X14345820Y-11611860D02*
X14326772Y-11621384D01*
X14326772Y-11621384D02*
X14307725Y-11621384D01*
X14307725Y-11621384D02*
X14288677Y-11611860D01*
X14288677Y-11611860D02*
X14279153Y-11602336D01*
X14279153Y-11602336D02*
X14269629Y-11583288D01*
X14269629Y-11583288D02*
X14260106Y-11545193D01*
X14260106Y-11545193D02*
X14260106Y-11497574D01*
X14260106Y-11497574D02*
X14269629Y-11459479D01*
X14269629Y-11459479D02*
X14279153Y-11440431D01*
X14279153Y-11440431D02*
X14288677Y-11430908D01*
X14288677Y-11430908D02*
X14307725Y-11421384D01*
X14545820Y-11421384D02*
X14507725Y-11421384D01*
X14507725Y-11421384D02*
X14488677Y-11430908D01*
X14488677Y-11430908D02*
X14479153Y-11440431D01*
X14479153Y-11440431D02*
X14460106Y-11469003D01*
X14460106Y-11469003D02*
X14450582Y-11507098D01*
X14450582Y-11507098D02*
X14450582Y-11583288D01*
X14450582Y-11583288D02*
X14460106Y-11602336D01*
X14460106Y-11602336D02*
X14469629Y-11611860D01*
X14469629Y-11611860D02*
X14488677Y-11621384D01*
X14488677Y-11621384D02*
X14526772Y-11621384D01*
X14526772Y-11621384D02*
X14545820Y-11611860D01*
X14545820Y-11611860D02*
X14555344Y-11602336D01*
X14555344Y-11602336D02*
X14564867Y-11583288D01*
X14564867Y-11583288D02*
X14564867Y-11535669D01*
X14564867Y-11535669D02*
X14555344Y-11516622D01*
X14555344Y-11516622D02*
X14545820Y-11507098D01*
X14545820Y-11507098D02*
X14526772Y-11497574D01*
X14526772Y-11497574D02*
X14488677Y-11497574D01*
X14488677Y-11497574D02*
X14469629Y-11507098D01*
X14469629Y-11507098D02*
X14460106Y-11516622D01*
X14460106Y-11516622D02*
X14450582Y-11535669D01*
X14631534Y-11421384D02*
X14755344Y-11421384D01*
X14755344Y-11421384D02*
X14688677Y-11497574D01*
X14688677Y-11497574D02*
X14717248Y-11497574D01*
X14717248Y-11497574D02*
X14736296Y-11507098D01*
X14736296Y-11507098D02*
X14745820Y-11516622D01*
X14745820Y-11516622D02*
X14755344Y-11535669D01*
X14755344Y-11535669D02*
X14755344Y-11583288D01*
X14755344Y-11583288D02*
X14745820Y-11602336D01*
X14745820Y-11602336D02*
X14736296Y-11611860D01*
X14736296Y-11611860D02*
X14717248Y-11621384D01*
X14717248Y-11621384D02*
X14660106Y-11621384D01*
X14660106Y-11621384D02*
X14641058Y-11611860D01*
X14641058Y-11611860D02*
X14631534Y-11602336D01*
X14831534Y-11421384D02*
X14831534Y-11459479D01*
X14907725Y-11421384D02*
X14907725Y-11459479D01*
X15202963Y-11697574D02*
X15193439Y-11688050D01*
X15193439Y-11688050D02*
X15174391Y-11659479D01*
X15174391Y-11659479D02*
X15164868Y-11640431D01*
X15164868Y-11640431D02*
X15155344Y-11611860D01*
X15155344Y-11611860D02*
X15145820Y-11564241D01*
X15145820Y-11564241D02*
X15145820Y-11526146D01*
X15145820Y-11526146D02*
X15155344Y-11478527D01*
X15155344Y-11478527D02*
X15164868Y-11449955D01*
X15164868Y-11449955D02*
X15174391Y-11430908D01*
X15174391Y-11430908D02*
X15193439Y-11402336D01*
X15193439Y-11402336D02*
X15202963Y-11392812D01*
X15260106Y-11421384D02*
X15383915Y-11421384D01*
X15383915Y-11421384D02*
X15317248Y-11497574D01*
X15317248Y-11497574D02*
X15345820Y-11497574D01*
X15345820Y-11497574D02*
X15364868Y-11507098D01*
X15364868Y-11507098D02*
X15374391Y-11516622D01*
X15374391Y-11516622D02*
X15383915Y-11535669D01*
X15383915Y-11535669D02*
X15383915Y-11583288D01*
X15383915Y-11583288D02*
X15374391Y-11602336D01*
X15374391Y-11602336D02*
X15364868Y-11611860D01*
X15364868Y-11611860D02*
X15345820Y-11621384D01*
X15345820Y-11621384D02*
X15288677Y-11621384D01*
X15288677Y-11621384D02*
X15269629Y-11611860D01*
X15269629Y-11611860D02*
X15260106Y-11602336D01*
X15622010Y-11621384D02*
X15622010Y-11421384D01*
X15707725Y-11621384D02*
X15707725Y-11516622D01*
X15707725Y-11516622D02*
X15698201Y-11497574D01*
X15698201Y-11497574D02*
X15679153Y-11488050D01*
X15679153Y-11488050D02*
X15650582Y-11488050D01*
X15650582Y-11488050D02*
X15631534Y-11497574D01*
X15631534Y-11497574D02*
X15622010Y-11507098D01*
X15831534Y-11621384D02*
X15812487Y-11611860D01*
X15812487Y-11611860D02*
X15802963Y-11602336D01*
X15802963Y-11602336D02*
X15793439Y-11583288D01*
X15793439Y-11583288D02*
X15793439Y-11526146D01*
X15793439Y-11526146D02*
X15802963Y-11507098D01*
X15802963Y-11507098D02*
X15812487Y-11497574D01*
X15812487Y-11497574D02*
X15831534Y-11488050D01*
X15831534Y-11488050D02*
X15860106Y-11488050D01*
X15860106Y-11488050D02*
X15879153Y-11497574D01*
X15879153Y-11497574D02*
X15888677Y-11507098D01*
X15888677Y-11507098D02*
X15898201Y-11526146D01*
X15898201Y-11526146D02*
X15898201Y-11583288D01*
X15898201Y-11583288D02*
X15888677Y-11602336D01*
X15888677Y-11602336D02*
X15879153Y-11611860D01*
X15879153Y-11611860D02*
X15860106Y-11621384D01*
X15860106Y-11621384D02*
X15831534Y-11621384D01*
X16012487Y-11621384D02*
X15993439Y-11611860D01*
X15993439Y-11611860D02*
X15983915Y-11592812D01*
X15983915Y-11592812D02*
X15983915Y-11421384D01*
X16164868Y-11611860D02*
X16145820Y-11621384D01*
X16145820Y-11621384D02*
X16107725Y-11621384D01*
X16107725Y-11621384D02*
X16088677Y-11611860D01*
X16088677Y-11611860D02*
X16079153Y-11592812D01*
X16079153Y-11592812D02*
X16079153Y-11516622D01*
X16079153Y-11516622D02*
X16088677Y-11497574D01*
X16088677Y-11497574D02*
X16107725Y-11488050D01*
X16107725Y-11488050D02*
X16145820Y-11488050D01*
X16145820Y-11488050D02*
X16164868Y-11497574D01*
X16164868Y-11497574D02*
X16174391Y-11516622D01*
X16174391Y-11516622D02*
X16174391Y-11535669D01*
X16174391Y-11535669D02*
X16079153Y-11554717D01*
X16250582Y-11611860D02*
X16269630Y-11621384D01*
X16269630Y-11621384D02*
X16307725Y-11621384D01*
X16307725Y-11621384D02*
X16326772Y-11611860D01*
X16326772Y-11611860D02*
X16336296Y-11592812D01*
X16336296Y-11592812D02*
X16336296Y-11583288D01*
X16336296Y-11583288D02*
X16326772Y-11564241D01*
X16326772Y-11564241D02*
X16307725Y-11554717D01*
X16307725Y-11554717D02*
X16279153Y-11554717D01*
X16279153Y-11554717D02*
X16260106Y-11545193D01*
X16260106Y-11545193D02*
X16250582Y-11526146D01*
X16250582Y-11526146D02*
X16250582Y-11516622D01*
X16250582Y-11516622D02*
X16260106Y-11497574D01*
X16260106Y-11497574D02*
X16279153Y-11488050D01*
X16279153Y-11488050D02*
X16307725Y-11488050D01*
X16307725Y-11488050D02*
X16326772Y-11497574D01*
X16402963Y-11697574D02*
X16412487Y-11688050D01*
X16412487Y-11688050D02*
X16431534Y-11659479D01*
X16431534Y-11659479D02*
X16441058Y-11640431D01*
X16441058Y-11640431D02*
X16450582Y-11611860D01*
X16450582Y-11611860D02*
X16460106Y-11564241D01*
X16460106Y-11564241D02*
X16460106Y-11526146D01*
X16460106Y-11526146D02*
X16450582Y-11478527D01*
X16450582Y-11478527D02*
X16441058Y-11449955D01*
X16441058Y-11449955D02*
X16431534Y-11430908D01*
X16431534Y-11430908D02*
X16412487Y-11402336D01*
X16412487Y-11402336D02*
X16402963Y-11392812D01*
X16764868Y-11697574D02*
X16755344Y-11688050D01*
X16755344Y-11688050D02*
X16736296Y-11659479D01*
X16736296Y-11659479D02*
X16726772Y-11640431D01*
X16726772Y-11640431D02*
X16717249Y-11611860D01*
X16717249Y-11611860D02*
X16707725Y-11564241D01*
X16707725Y-11564241D02*
X16707725Y-11526146D01*
X16707725Y-11526146D02*
X16717249Y-11478527D01*
X16717249Y-11478527D02*
X16726772Y-11449955D01*
X16726772Y-11449955D02*
X16736296Y-11430908D01*
X16736296Y-11430908D02*
X16755344Y-11402336D01*
X16755344Y-11402336D02*
X16764868Y-11392812D01*
X16841058Y-11488050D02*
X16841058Y-11621384D01*
X16841058Y-11507098D02*
X16850582Y-11497574D01*
X16850582Y-11497574D02*
X16869630Y-11488050D01*
X16869630Y-11488050D02*
X16898201Y-11488050D01*
X16898201Y-11488050D02*
X16917249Y-11497574D01*
X16917249Y-11497574D02*
X16926773Y-11516622D01*
X16926773Y-11516622D02*
X16926773Y-11621384D01*
X17050582Y-11621384D02*
X17031534Y-11611860D01*
X17031534Y-11611860D02*
X17022011Y-11602336D01*
X17022011Y-11602336D02*
X17012487Y-11583288D01*
X17012487Y-11583288D02*
X17012487Y-11526146D01*
X17012487Y-11526146D02*
X17022011Y-11507098D01*
X17022011Y-11507098D02*
X17031534Y-11497574D01*
X17031534Y-11497574D02*
X17050582Y-11488050D01*
X17050582Y-11488050D02*
X17079154Y-11488050D01*
X17079154Y-11488050D02*
X17098201Y-11497574D01*
X17098201Y-11497574D02*
X17107725Y-11507098D01*
X17107725Y-11507098D02*
X17117249Y-11526146D01*
X17117249Y-11526146D02*
X17117249Y-11583288D01*
X17117249Y-11583288D02*
X17107725Y-11602336D01*
X17107725Y-11602336D02*
X17098201Y-11611860D01*
X17098201Y-11611860D02*
X17079154Y-11621384D01*
X17079154Y-11621384D02*
X17050582Y-11621384D01*
X17174392Y-11488050D02*
X17250582Y-11488050D01*
X17202963Y-11421384D02*
X17202963Y-11592812D01*
X17202963Y-11592812D02*
X17212487Y-11611860D01*
X17212487Y-11611860D02*
X17231534Y-11621384D01*
X17231534Y-11621384D02*
X17250582Y-11621384D01*
X17469630Y-11488050D02*
X17469630Y-11688050D01*
X17469630Y-11497574D02*
X17488677Y-11488050D01*
X17488677Y-11488050D02*
X17526773Y-11488050D01*
X17526773Y-11488050D02*
X17545820Y-11497574D01*
X17545820Y-11497574D02*
X17555344Y-11507098D01*
X17555344Y-11507098D02*
X17564868Y-11526146D01*
X17564868Y-11526146D02*
X17564868Y-11583288D01*
X17564868Y-11583288D02*
X17555344Y-11602336D01*
X17555344Y-11602336D02*
X17545820Y-11611860D01*
X17545820Y-11611860D02*
X17526773Y-11621384D01*
X17526773Y-11621384D02*
X17488677Y-11621384D01*
X17488677Y-11621384D02*
X17469630Y-11611860D01*
X17679154Y-11621384D02*
X17660106Y-11611860D01*
X17660106Y-11611860D02*
X17650582Y-11592812D01*
X17650582Y-11592812D02*
X17650582Y-11421384D01*
X17841058Y-11621384D02*
X17841058Y-11516622D01*
X17841058Y-11516622D02*
X17831535Y-11497574D01*
X17831535Y-11497574D02*
X17812487Y-11488050D01*
X17812487Y-11488050D02*
X17774392Y-11488050D01*
X17774392Y-11488050D02*
X17755344Y-11497574D01*
X17841058Y-11611860D02*
X17822011Y-11621384D01*
X17822011Y-11621384D02*
X17774392Y-11621384D01*
X17774392Y-11621384D02*
X17755344Y-11611860D01*
X17755344Y-11611860D02*
X17745820Y-11592812D01*
X17745820Y-11592812D02*
X17745820Y-11573765D01*
X17745820Y-11573765D02*
X17755344Y-11554717D01*
X17755344Y-11554717D02*
X17774392Y-11545193D01*
X17774392Y-11545193D02*
X17822011Y-11545193D01*
X17822011Y-11545193D02*
X17841058Y-11535669D01*
X17907725Y-11488050D02*
X17983915Y-11488050D01*
X17936296Y-11421384D02*
X17936296Y-11592812D01*
X17936296Y-11592812D02*
X17945820Y-11611860D01*
X17945820Y-11611860D02*
X17964868Y-11621384D01*
X17964868Y-11621384D02*
X17983915Y-11621384D01*
X18126773Y-11611860D02*
X18107725Y-11621384D01*
X18107725Y-11621384D02*
X18069630Y-11621384D01*
X18069630Y-11621384D02*
X18050582Y-11611860D01*
X18050582Y-11611860D02*
X18041058Y-11592812D01*
X18041058Y-11592812D02*
X18041058Y-11516622D01*
X18041058Y-11516622D02*
X18050582Y-11497574D01*
X18050582Y-11497574D02*
X18069630Y-11488050D01*
X18069630Y-11488050D02*
X18107725Y-11488050D01*
X18107725Y-11488050D02*
X18126773Y-11497574D01*
X18126773Y-11497574D02*
X18136296Y-11516622D01*
X18136296Y-11516622D02*
X18136296Y-11535669D01*
X18136296Y-11535669D02*
X18041058Y-11554717D01*
X18307725Y-11621384D02*
X18307725Y-11421384D01*
X18307725Y-11611860D02*
X18288677Y-11621384D01*
X18288677Y-11621384D02*
X18250582Y-11621384D01*
X18250582Y-11621384D02*
X18231535Y-11611860D01*
X18231535Y-11611860D02*
X18222011Y-11602336D01*
X18222011Y-11602336D02*
X18212487Y-11583288D01*
X18212487Y-11583288D02*
X18212487Y-11526146D01*
X18212487Y-11526146D02*
X18222011Y-11507098D01*
X18222011Y-11507098D02*
X18231535Y-11497574D01*
X18231535Y-11497574D02*
X18250582Y-11488050D01*
X18250582Y-11488050D02*
X18288677Y-11488050D01*
X18288677Y-11488050D02*
X18307725Y-11497574D01*
X18383916Y-11697574D02*
X18393439Y-11688050D01*
X18393439Y-11688050D02*
X18412487Y-11659479D01*
X18412487Y-11659479D02*
X18422011Y-11640431D01*
X18422011Y-11640431D02*
X18431535Y-11611860D01*
X18431535Y-11611860D02*
X18441058Y-11564241D01*
X18441058Y-11564241D02*
X18441058Y-11526146D01*
X18441058Y-11526146D02*
X18431535Y-11478527D01*
X18431535Y-11478527D02*
X18422011Y-11449955D01*
X18422011Y-11449955D02*
X18412487Y-11430908D01*
X18412487Y-11430908D02*
X18393439Y-11402336D01*
X18393439Y-11402336D02*
X18383916Y-11392812D01*
M02*
